<svg width="26" height="26" viewBox="0 0 26 26" fill="none" xmlns="http://www.w3.org/2000/svg">
<g clip-path="url(#clip0_144_161)">
<circle cx="13" cy="13" r="13" fill="#000091"/>
<path fill-rule="evenodd" clip-rule="evenodd" d="M20.1276 7.91217V7.93802L20.8214 15.3578C20.8736 15.9162 20.4667 16.4126 19.9085 16.4798L15.8343 16.9607L14.118 19.7166C13.9667 19.9596 13.6433 20.0371 13.3981 19.8872C13.3616 19.8665 13.3251 19.8355 13.2938 19.8045L11.0976 17.5242L6.86685 18.0258C6.29302 18.093 5.77657 17.6897 5.70875 17.1209C5.70875 17.1106 5.70875 17.1054 5.70875 17.0951L5.0045 9.67533C4.95234 9.11691 5.35924 8.62053 5.92263 8.55332L18.9643 7.00732C19.5381 6.9401 20.0546 7.3434 20.1224 7.91217" fill="white"/>
</g>
<defs>
<clipPath id="clip0_144_161">
<rect width="26" height="26" fill="white"/>
</clipPath>
</defs>
</svg>
