<?xml version="1.0" encoding="UTF-8" standalone="no"?>
<svg
   id="Calque_1"
   viewBox="0 0 26 26"
   version="1.1"
   sodipodi:docname="tracer.svg"
   inkscape:version="1.2.2 (b0a8486541, 2022-12-01)"
   xmlns:inkscape="http://www.inkscape.org/namespaces/inkscape"
   xmlns:sodipodi="http://sodipodi.sourceforge.net/DTD/sodipodi-0.dtd"
   xmlns="http://www.w3.org/2000/svg"
   xmlns:svg="http://www.w3.org/2000/svg">
  <sodipodi:namedview
     id="namedview21"
     pagecolor="#ffffff"
     bordercolor="#666666"
     borderopacity="1.0"
     inkscape:showpageshadow="2"
     inkscape:pageopacity="0.0"
     inkscape:pagecheckerboard="0"
     inkscape:deskcolor="#d1d1d1"
     showgrid="false"
     inkscape:zoom="40.5"
     inkscape:cx="13.024691"
     inkscape:cy="13.012346"
     inkscape:window-width="2560"
     inkscape:window-height="1371"
     inkscape:window-x="0"
     inkscape:window-y="0"
     inkscape:window-maximized="1"
     inkscape:current-layer="Calque_1" />
  <defs
     id="defs4">
    <style
       id="style2">.cls-1{fill:#020201;}</style>
  </defs>
  <g
     id="g311"
     style="fill:#00ff00;fill-opacity:1">
    <path
       class="cls-1"
       d="M22.08530735,1.65793641c-1.21886129,0-2.20696409.9881028-2.20696409,2.20696409s.9881028,2.20685436,2.20696409,2.20685436,2.20696409-.98799307,2.20696409-2.20685436-.9881028-2.20696409-2.20696409-2.20696409Z"
       id="path6"
       style="fill:#00ff00;fill-opacity:1" />
    <path
       class="cls-1"
       d="M18.52717498,17.05886841c-1.21886129,0-2.20696409.9881028-2.20696409,2.20696409s.9881028,2.20685436,2.20696409,2.20685436,2.20696409-.98799307,2.20696409-2.20685436-.9881028-2.20696409-2.20696409-2.20696409Z"
       id="path8"
       style="fill:#00ff00;fill-opacity:1" />
    <path
       class="cls-1"
       d="M7.15510487,8.58618154c-1.21886129,0-2.20696409.9881028-2.20696409,2.20696409s.9881028,2.20685436,2.20696409,2.20685436,2.20696409-.98799307,2.20696409-2.20685436-.9881028-2.20696409-2.20696409-2.20696409Z"
       id="path10"
       style="fill:#00ff00;fill-opacity:1" />
    <path
       class="cls-1"
       d="M3.55131077,20.59259033c-1.21886129,0-2.20696409.9881028-2.20696409,2.20696409s.9881028,2.20685436,2.20696409,2.20685436,2.20696409-.98799307,2.20696409-2.20685436-.9881028-2.20696409-2.20696409-2.20696409Z"
       id="path12"
       style="fill:#00ff00;fill-opacity:1" />
    <path
       class="cls-1"
       d="M18.52701212,15.55859375c.64581299,0,1.24450684.18078613,1.77386475.47241211l1.95880127-8.47680664c-.05889893.00280762-.11444092.01757812-.17407227.01757812-.64587402,0-1.24456787-.18084717-1.77392578-.47247314l-1.95855713,8.47686768c.05883789-.00280762.11431885-.01757812.17388916-.01757812Z"
       id="path14"
       style="fill:#00ff00;fill-opacity:1" />
    <path
       class="cls-1"
       d="M10.60647989,12.11767578c-.24645996.63970947-.66589355,1.18719482-1.20013428,1.59960938l5.66912842,4.22351074c.24645996-.6395874.66583252-1.18695068,1.19995117-1.5993042l-5.66894531-4.22381592Z"
       id="path16"
       style="fill:#00ff00;fill-opacity:1" />
    <path
       class="cls-1"
       d="M5.53250528,19.67779541l1.5559082-5.18450928c-.7041626-.01275635-1.35809326-.22393799-1.91455078-.57830811l-1.55603027,5.18450928c.7041626.01275635,1.3581543.22393799,1.91467285.57830811Z"
       id="path18"
       style="fill:#00ff00;fill-opacity:1" />
  </g>
</svg>
