<svg width="100" height="100" fill="none" xmlns="http://www.w3.org/2000/svg"><path fill-rule="evenodd" clip-rule="evenodd" d="M18.75 17.5a1.25 1.25 0 110-2.5 1.25 1.25 0 010 2.5zm-12.5 70a1.25 1.25 0 110-2.5 1.25 1.25 0 010 2.5zm87.5-7.5a1.25 1.25 0 110-2.5 1.25 1.25 0 010 2.5zm-20-65a1.25 1.25 0 110-2.5 1.25 1.25 0 010 2.5z" fill="#CACAFB"/><path d="M52.685 12.5c20.71 0 37.5 16.79 37.5 37.5a1.25 1.25 0 01-2.5 0c0-19.33-15.67-35-35-35s-35 15.67-35 35 15.67 35 35 35c13.944 0 26.384-8.228 31.973-20.74a1.25 1.25 0 012.283 1.02C80.953 78.684 67.624 87.5 52.685 87.5c-20.71 0-37.5-16.79-37.5-37.5s16.79-37.5 37.5-37.5z" fill="#E1000F"/><path d="M88.935 60.74a1.343 1.343 0 11-2.685 0 1.343 1.343 0 012.685 0zM18.116 26.29a1.25 1.25 0 00-1.751.238 31.989 31.989 0 00-6.55 19.444 1.25 1.25 0 102.5 0 29.49 29.49 0 016.039-17.93 1.25 1.25 0 00-.238-1.752z" fill="#E1000F"/><path fill-rule="evenodd" clip-rule="evenodd" d="M69.996 43.646C69.108 33 63.15 27.5 52.5 27.5S35.892 33 35.004 43.646a1.25 1.25 0 001.436 1.34l2.31-.356v.546c-.895.173-1.554.411-2.017.756C35.561 46.806 35 48.204 35 50c0 3.19 1.81 5 5 5 .136 0 .267-.022.39-.062 1.33 2.579 3.39 4.686 5.896 6.014a1.258 1.258 0 00-.036.298 4.992 4.992 0 01-2.029 4.022 4.978 4.978 0 01-2.971.978h-2.5l-.281.005a7.5 7.5 0 00-7.219 7.495 1.25 1.25 0 102.5 0 5 5 0 015-5h2.5l.281-.005a7.46 7.46 0 002.93-.715c1.34 2.109 3.812 2.753 7.092 1.933a1.25 1.25 0 00-.606-2.426c-2.337.585-3.702.268-4.43-.947a7.478 7.478 0 002.2-4.64c1.202.358 2.47.55 3.783.55 1.312 0 2.581-.192 3.782-.55a7.501 7.501 0 007.187 6.795l.281.005h2.5a5 5 0 015 5 1.25 1.25 0 102.5 0 7.5 7.5 0 00-7.219-7.495l-.281-.005h-2.5a5 5 0 01-5-5c0-.103-.012-.202-.036-.298 2.505-1.328 4.567-3.435 5.896-6.014.123.04.254.062.39.062 3.19 0 5-1.81 5-5 0-1.796-.561-3.194-1.734-4.068-.632-.471-1.632-.744-3.098-.92a1.257 1.257 0 00-.163-.012h-.002a1.24 1.24 0 00-.83.313 1.247 1.247 0 00-.423.956v1.856l-.005.345C63.572 54.88 58.59 60 52.5 60c-6.2 0-11.25-5.303-11.25-11.875v-3.88l11.44-1.76.148-.031a1.25 1.25 0 00.78-.645l1.25-2.5.058-.134a1.25 1.25 0 00-.617-1.543l-.134-.058a1.25 1.25 0 00-1.543.617l-.962 1.921-13.995 2.153.023-.161C38.923 33.939 43.754 30 52.5 30l.449.003c8.314.132 12.984 3.94 14.287 11.682l.064.414-8.247-2.062-.143-.027a1.25 1.25 0 00-.463 2.453l10 2.5.146.027c.775.1 1.47-.54 1.403-1.344zM38.75 47.738c-.265.07-.442.139-.522.198-.469.35-.728.996-.728 2.064 0 1.59.533 2.316 1.89 2.469a14.943 14.943 0 01-.636-3.974l-.004-.37v-.387zM67.5 50c0 1.59-.533 2.316-1.89 2.469.416-1.371.64-2.83.64-4.344v-.387c.265.07.442.139.522.198.469.35.728.996.728 2.064z" fill="#6A6AF4"/></svg>
