<svg width="134" height="134" viewBox="0 0 133 134" fill="none" xmlns="http://www.w3.org/2000/svg"><path fill-rule="evenodd" clip-rule="evenodd" d="M127.598 39.6c-.91 0-1.65-.74-1.65-1.65 0-.91.74-1.65 1.65-1.65.91 0 1.65.74 1.65 1.65 0 .91-.74 1.65-1.65 1.65zm-79.2 92.4c-.91 0-1.65-.74-1.65-1.65 0-.91.74-1.65 1.65-1.65.91 0 1.65.74 1.65 1.65 0 .91-.74 1.65-1.65 1.65zm-23.1-115.5c-.91 0-1.65-.74-1.65-1.65 0-.91.74-1.65 1.65-1.65.91 0 1.65.74 1.65 1.65 0 .91-.74 1.65-1.65 1.65z" fill="#CACAFB"/><path d="M38.498 16.5a1.65 1.65 0 011.639 1.458l.01.192v4.95h52.8v-4.95a1.65 1.65 0 013.29-.192l.01.192v4.95h11.551a8.25 8.25 0 018.242 7.892l.008.358v42.9a1.65 1.65 0 01-3.289.192l-.011-.192V46.2h-8.25a1.65 1.65 0 01-.193-3.289l.193-.011h8.25V31.35a4.95 4.95 0 00-4.659-4.942l-.291-.008h-11.55v4.95a1.65 1.65 0 01-3.29.192l-.01-.192V26.4h-52.8v4.95a1.65 1.65 0 01-3.29.192l-.01-.192V26.4h-11.55a4.95 4.95 0 00-4.942 4.66l-.008.29V42.9h16.5v-1.65a1.65 1.65 0 013.289-.192l.01.192v1.65h54.45a1.65 1.65 0 01.193 3.289l-.192.011h-54.45v1.65a1.65 1.65 0 01-3.29.192l-.01-.192V46.2h-16.5v54.45a4.951 4.951 0 004.659 4.942l.29.008h46.2a1.65 1.65 0 01.193 3.289l-.192.011h-46.2a8.25 8.25 0 01-8.243-7.892l-.007-.358v-69.3a8.25 8.25 0 017.892-8.242l.358-.008h11.55v-4.95c0-.911.739-1.65 1.65-1.65zm39.6 89.1a1.65 1.65 0 100 3.3 1.65 1.65 0 000-3.3z" fill="#8585F6"/><path fill-rule="evenodd" clip-rule="evenodd" d="M50.048 61.05a4.95 4.95 0 00-4.95-4.95h-9.9a4.95 4.95 0 00-4.95 4.95v6.6a4.95 4.95 0 004.95 4.95h9.9a4.95 4.95 0 004.95-4.95v-6.6zm-16.5 0c0-.911.738-1.65 1.65-1.65h9.9c.911 0 1.65.739 1.65 1.65v6.6a1.65 1.65 0 01-1.65 1.65h-9.9a1.65 1.65 0 01-1.65-1.65v-6.6zm64.35-4.95a4.95 4.95 0 014.95 4.95v6.6a4.95 4.95 0 01-4.95 4.95h-9.9a4.95 4.95 0 01-4.95-4.95v-6.6a4.95 4.95 0 014.95-4.95h9.9zm-9.9 3.3a1.65 1.65 0 00-1.65 1.65v6.6c0 .911.739 1.65 1.65 1.65h9.9a1.65 1.65 0 001.65-1.65v-6.6a1.65 1.65 0 00-1.65-1.65h-9.9zm-16.5-3.3h-9.9a4.95 4.95 0 00-4.95 4.95v6.6a4.95 4.95 0 004.95 4.95h9.9a4.95 4.95 0 004.95-4.95v-6.6a4.95 4.95 0 00-4.95-4.95zm-9.9 3.3h9.9c.911 0 1.65.739 1.65 1.65v6.6a1.65 1.65 0 01-1.65 1.65h-9.9a1.65 1.65 0 01-1.65-1.65v-6.6c0-.911.739-1.65 1.65-1.65zm-16.5 19.8a4.95 4.95 0 014.95 4.95v6.6a4.95 4.95 0 01-4.95 4.95h-9.9a4.95 4.95 0 01-4.95-4.95v-6.6a4.95 4.95 0 014.95-4.95h9.9zm-9.9 3.3a1.65 1.65 0 00-1.65 1.65v6.6c0 .911.738 1.65 1.65 1.65h9.9a1.65 1.65 0 001.65-1.65v-6.6a1.65 1.65 0 00-1.65-1.65h-9.9zm36.3-3.3h-9.9a4.95 4.95 0 00-4.95 4.95v6.6a4.95 4.95 0 004.95 4.95h9.9a4.95 4.95 0 004.95-4.95v-6.6a4.95 4.95 0 00-4.95-4.95zm-9.9 3.3h9.9c.911 0 1.65.739 1.65 1.65v6.6a1.65 1.65 0 01-1.65 1.65h-9.9a1.65 1.65 0 01-1.65-1.65v-6.6c0-.911.739-1.65 1.65-1.65z" fill="#8585F6"/><path d="M107.53 93l-1.009 1.003c-2.223 2.213-3.936 4.07-5.973 6.141l-2.07-1.74-1.09-.914-1.84 2.16 1.09.914 3.087 2.596 1.001.84.928-.922c2.562-2.551 4.382-4.585 6.885-7.077l1.009-1.003L107.53 93z" fill="#E1000F"/><path d="M85.55 92.164V84.33c0-.367.32-.713.696-.754.063-.007.127-.007.19-.007.853 0 1.705-.002 2.558 0a20.383 20.383 0 007.318-1.337c1.31-.496 2.546-1.144 3.737-1.879.652-.402 1.319-.78 1.969-1.186.364-.228.699-.215 1.057.002.952.577 1.903 1.156 2.867 1.712a20 20 0 006.38 2.344c1.068.198 2.145.32 3.232.331 1.052.01 2.103.008 3.155.013.414.001.728.24.815.625.02.09.022.184.022.277.002 3.541.002 7.083.001 10.624-.001 1.454.006 2.907-.013 4.36a17.14 17.14 0 01-.49 3.785c-.694 2.876-2.059 5.407-3.978 7.65-1.882 2.199-4.129 3.959-6.612 5.431a32.11 32.11 0 01-5.548 2.615 1.017 1.017 0 01-.717-.001 32.14 32.14 0 01-5.473-2.568 28.17 28.17 0 01-4.549-3.294c-1.964-1.759-3.6-3.773-4.775-6.141a17.457 17.457 0 01-1.596-4.945c-.193-1.166-.253-2.34-.248-3.52.01-2.101.003-4.201.003-6.302z" stroke="#E1000F" stroke-width="3" stroke-miterlimit="10"/></svg>
