<?xml version="1.0" encoding="UTF-8"?>
<svg id="Calque_1" xmlns="http://www.w3.org/2000/svg" viewBox="0 0 399.98258401 126.80957031"><defs><style>.cls-1{fill:#9ef9be;}.cls-2{fill:#000091;}.cls-3{fill:#f5f5fe;}.cls-4{fill:#cacafb;}.cls-5{fill:red;}.cls-6{fill:#8585f6;}</style></defs><path class="cls-2" d="M137.67711,31.19993314h29.99511719v8.67480469h-19.55566406v12.20410156h16.61425781v8.67480469h-16.61425781v13.23339844h19.55566406v8.67480469h-29.99511719V31.19993314Z"></path><path class="cls-2" d="M176.56285219,45.60911283h9.33691406v2.94042969c2.57324219-2.49902344,6.02832031-4.41015625,10.95410156-4.41015625,8.01367188,0,14.40917969,5.51367188,14.40917969,16.46777344v22.0546875h-9.41015625v-21.6875c0-4.92578125-2.79394531-8.01367188-7.3515625-8.01367188-4.70507812,0-7.20507812,3.16113281-8.6015625,5.51367188v24.1875h-9.33691406v-37.05273438Z"></path><path class="cls-2" d="M224.34605531,45.60911283l9.63085938,26.46582031,9.55761719-26.46582031h10.07128906l-13.52636719,37.05273438h-12.27734375l-13.45410156-37.05273438h9.99804688Z"></path><path class="cls-2" d="M275.14293031,84.13255033c-13.15917969,0-20.58496094-9.19042969-20.58496094-19.99707031,0-10.95410156,6.91113281-19.99609375,19.04101562-19.99609375,10.29199219,0,17.05566406,6.98339844,17.05566406,16.6875,0,2.05859375-.29394531,3.97070312-.58789062,5.21972656h-25.95117188c.88183594,6.91113281,5.14550781,9.70507812,10.95410156,9.70507812,4.04296875,0,7.57226562-1.76464844,9.55664062-4.41113281l6.69042969,5.29296875c-3.45507812,4.63183594-9.18945312,7.49902344-16.17382812,7.49902344ZM264.40953187,59.28391752h17.05566406c-.14648438-3.75-2.8671875-7.49902344-8.08691406-7.49902344-4.77832031,0-7.93945312,2.64648438-8.96875,7.49902344Z"></path><path class="cls-2" d="M297.92906312,45.60911283h9.33691406v3.67578125c2.42578125-2.49902344,5.58691406-4.41113281,9.77832031-4.41113281,1.24902344,0,2.3515625.22070312,3.234375.51464844v9.19042969c-1.17675781-.29492188-2.42578125-.51464844-4.1171875-.51464844-4.55761719,0-7.49902344,2.49902344-8.89550781,4.8515625v23.74609375h-9.33691406v-37.05273438Z"></path><path class="cls-2" d="M326.67125062,80.08860502c-1.47070312-1.46972656-2.27929688-3.45507812-2.27929688-5.36621094,0-2.94140625,1.25-5.29394531,4.04394531-7.35253906-3.23535156-2.42578125-4.99902344-6.1015625-4.99902344-10.21875,0-7.20410156,5.58691406-13.01171875,14.84960938-13.01171875,2.8671875,0,5.3671875.51464844,7.49902344,1.46972656h13.52734375v7.94042969h-6.54296875c.3671875,1.17578125.51464844,2.35253906.51464844,3.6015625,0,7.27832031-5.44042969,13.16015625-14.99804688,13.16015625-1.24902344,0-2.42578125-.07421875-3.52832031-.29394531-.80859375.734375-1.25,1.54394531-1.25,2.35253906,0,1.46972656.80859375,2.20507812,2.5,2.20507812h9.3359375c9.33691406,0,14.41015625,4.99902344,14.41015625,11.91015625,0,8.23339844-7.8671875,14.55566406-19.40917969,14.55566406-11.8359375,0-18.8203125-4.11621094-18.8203125-11.90917969,0-3.67578125,1.83789062-6.6171875,5.14648438-9.04296875ZM340.27183656,93.54270658c6.76367188,0,10.21875-2.5,10.21875-6.17578125,0-2.79394531-1.69042969-4.77832031-6.17480469-4.77832031h-11.46875c-1.39746094,1.32324219-2.5,2.94042969-2.5,5.21972656,0,3.52832031,3.38183594,5.734375,9.92480469,5.734375ZM344.82945375,57.15110502c0-3.67578125-2.49902344-6.02832031-6.39550781-6.02832031-4.04296875,0-6.46972656,2.42675781-6.46972656,6.02832031,0,3.67578125,2.42675781,6.10253906,6.46972656,6.10253906,3.89648438,0,6.39550781-2.42675781,6.39550781-6.10253906Z"></path><path class="cls-2" d="M400.55406312,64.13548002c0,11.1015625-8.234375,19.99707031-20.29101562,19.99707031s-20.29101562-8.89550781-20.29101562-19.99707031c0-11.10058594,8.234375-19.99609375,20.29101562-19.99609375s20.29101562,8.89550781,20.29101562,19.99609375ZM390.848985,64.13548002c0-6.46972656-4.484375-11.17480469-10.43945312-11.17480469-6.17480469,0-10.73339844,4.70507812-10.73339844,11.17480469s4.55859375,11.17480469,10.73339844,11.17480469c5.95507812,0,10.43945312-4.77832031,10.43945312-11.17480469Z"></path><path class="cls-3" d="M51.70605469,126.80957031c-29.47753906,0-51.70605469-11.05078125-51.70605469-25.70507812,0-2.5625.6875-5.05957031,2.04589844-7.44042969-1.35839844-2.37988281-2.04589844-4.87695312-2.04589844-7.44042969,0-9.06835938,8.2265625-16.79101562,22.71289062-21.46386719-6.37792969-7.125-9.86523438-16.23925781-9.86523438-25.90039062,0-10.39550781,4.03710938-20.15820312,11.36914062-27.48925781C31.54882812,4.03808594,41.31152344,0,51.70605469,0c10.39550781,0,20.15820312,4.03808594,27.48925781,11.37011719,7.33203125,7.33105469,11.36914062,17.09375,11.36914062,27.48925781,0,9.66113281-3.48730469,18.77539062-9.86523438,25.90039062,14.48632812,4.67285156,22.71289062,12.39550781,22.71289062,21.46386719,0,2.56347656-.6875,5.06054688-2.04589844,7.44042969,1.35839844,2.38085938,2.04589844,4.87792969,2.04589844,7.44042969,0,14.65429688-22.22851562,25.70507812-51.70605469,25.70507812Z"></path><path class="cls-3" d="M51.70638621,9.11771408c-7.65136719,0-15.30175781,2.91210938-21.12597656,8.73632812-11.6484375,11.6484375-11.6484375,30.60253906,0,42.25195312l21.12597656,21.125,21.12597656-21.125c11.6484375-11.64941406,11.6484375-30.60351562,0-42.25195312-5.82519531-5.82421875-13.47558594-8.73632812-21.12597656-8.73632812Z"></path><path class="cls-2" d="M51.54989207,107.92863882c-20.60229492,0-38.15307617-5.94189453-44.828125-14.26428223-1.86157227,2.32092285-2.87817383,4.82666016-2.87817383,7.44055176,0,11.98730469,21.35888672,21.70483398,47.70629883,21.70483398s47.70629883-9.7175293,47.70629883-21.70483398c0-2.6138916-1.01660156-5.11962891-2.87817383-7.44055176-6.67504883,8.3223877-24.22583008,14.26428223-44.828125,14.26428223Z"></path><path class="cls-6" d="M56.66830027,79.52727163l-3.50854492,3.50854492c-.88916016.88916016-2.33056641.88916016-3.21972656,0l-3.50854492-3.50854492c-18.35253906.89111328-33.59521484,6.5135498-39.7097168,14.13708496,6.67504883,8.3223877,24.22583008,14.26428223,44.828125,14.26428223s38.15307617-5.94189453,44.828125-14.26428223c-6.11450195-7.62353516-21.35717773-13.24597168-39.7097168-14.13708496Z"></path><path class="cls-4" d="M33.10628855,66.20207632c-17.1887207,3.28149414-29.26269531,11.00952148-29.26269531,20.02172852,0,2.6138916,1.01660156,5.11962891,2.87817383,7.44055176,6.11450195-7.62353516,21.35717773-13.24597168,39.7097168-14.13708496l-13.32519531-13.32519531Z"></path><path class="cls-4" d="M69.99373972,66.20207632l-13.32543945,13.32519531c18.35253906.89111328,33.59521484,6.5135498,39.7097168,14.13708496,1.86157227-2.32092285,2.87817383-4.82666016,2.87817383-7.44055176,0-9.01220703-12.07397461-16.74023438-29.26245117-20.02172852Z"></path><ellipse class="cls-1" cx="51.54969905" cy="86.22373754" rx="10.71291648" ry="4.87402339"></ellipse><path class="cls-2" d="M51.55013621,86.20012319c-1.22265625,0-2.44628906-.46484375-3.37695312-1.39550781l-21.28417969-21.28417969c-13.59765625-13.59863281-13.59765625-35.72460938,0-49.32226562C40.48665964.60149038,62.61361277.60051382,76.21126902,14.19817007s13.59765625,35.72363281,0,49.32226562l-21.28417969,21.28320312c-.93066406.93066406-2.15429688,1.39648438-3.37695312,1.39648438ZM51.70540964,81.26555288l.00097656.00195312c0-.00097656-.00097656-.00097656-.00097656-.00195312ZM51.55013621,8.99699819c-7.65136719,0-15.30175781,2.91210938-21.12597656,8.73632812-11.6484375,11.6484375-11.6484375,30.60253906,0,42.25195312l21.12597656,21.125,21.12597656-21.125c11.6484375-11.64941406,11.6484375-30.60351562,0-42.25195312-5.82519531-5.82421875-13.47558594-8.73632812-21.12597656-8.73632812Z"></path><path class="cls-5" d="M47.23769863,43.17189255c-1.47719664-1.47671247-1.78706418-3.16016469-1.78706418-4.31296876,0-1.1523199.30986754-2.83577212,1.78609584-4.31200042,1.47719664-1.47719664,3.16064886-1.78706418,4.31345293-1.78706418,1.1523199,0,2.83577212.30986754,4.31200042,1.78609584,1.47671247,1.47719664,1.78658001,3.16064886,1.78658001,4.31296876,0,1.15280407-.30986754,2.83625629-1.78609584,4.31296876l-3.63992395,3.63951534c-.37171238.37167065-.9743434.37163683-1.34601406-.00007556l-3.63903117-3.63943978Z"></path>
  </svg>
