<svg id="Calque_1" xmlns="http://www.w3.org/2000/svg" viewBox="0 0 399.983 126.81"><defs><style>.cls-2{fill:#000091}.cls-3{fill:#f5f5fe}</style></defs><path class="cls-2" d="M137.677 31.2h29.995v8.675h-19.555v12.204h16.614v8.675h-16.614v13.233h19.555v8.675h-29.995V31.2Zm38.886 14.41h9.337v2.94c2.573-2.5 6.028-4.41 10.954-4.41 8.014 0 14.409 5.513 14.409 16.467v22.055h-9.41V60.974c0-4.925-2.794-8.013-7.352-8.013-4.705 0-7.205 3.16-8.601 5.513v24.188h-9.337V45.609Zm47.783 0 9.63 26.465 9.559-26.466h10.07L240.08 82.662h-12.277l-13.454-37.053h9.998Zm50.797 38.523c-13.16 0-20.585-9.19-20.585-19.998 0-10.954 6.911-19.996 19.041-19.996 10.292 0 17.056 6.984 17.056 16.688 0 2.058-.294 3.97-.588 5.22h-25.951c.881 6.91 5.145 9.705 10.954 9.705 4.043 0 7.572-1.765 9.556-4.411l6.69 5.293c-3.454 4.631-9.189 7.499-16.173 7.499Zm-10.733-24.85h17.055c-.146-3.75-2.867-7.498-8.087-7.498-4.778 0-7.94 2.646-8.968 7.499Zm33.52-13.673h9.336v3.675c2.426-2.5 5.587-4.411 9.778-4.411 1.25 0 2.352.22 3.235.514v9.19a16.048 16.048 0 0 0-4.118-.514c-4.557 0-7.499 2.5-8.895 4.852v23.746h-9.337V45.609Zm28.741 34.479c-1.47-1.47-2.279-3.455-2.279-5.367 0-2.941 1.25-5.294 4.044-7.352-3.235-2.426-5-6.102-5-10.219 0-7.204 5.588-13.012 14.85-13.012 2.868 0 5.368.515 7.5 1.47h13.527v7.94h-6.543c.367 1.176.515 2.353.515 3.602 0 7.278-5.44 13.16-14.999 13.16-1.249 0-2.425-.074-3.528-.294-.808.735-1.25 1.544-1.25 2.353 0 1.47.809 2.205 2.5 2.205h9.336c9.337 0 14.41 4.999 14.41 11.91 0 8.233-7.867 14.556-19.409 14.556-11.836 0-18.82-4.116-18.82-11.91 0-3.675 1.838-6.617 5.146-9.042Zm13.6 13.454c6.765 0 10.22-2.5 10.22-6.176 0-2.794-1.69-4.778-6.175-4.778h-11.469c-1.397 1.323-2.5 2.94-2.5 5.22 0 3.528 3.382 5.734 9.925 5.734Zm4.558-36.392c0-3.676-2.499-6.028-6.395-6.028-4.043 0-6.47 2.427-6.47 6.028 0 3.676 2.427 6.103 6.47 6.103 3.896 0 6.395-2.427 6.395-6.103Zm55.725 6.984c0 11.102-8.234 19.998-20.291 19.998s-20.291-8.896-20.291-19.998c0-11.1 8.234-19.996 20.291-19.996s20.291 8.896 20.291 19.996Zm-9.705 0c0-6.47-4.484-11.174-10.44-11.174-6.174 0-10.733 4.705-10.733 11.174s4.559 11.175 10.734 11.175c5.955 0 10.439-4.778 10.439-11.175Z"/><path class="cls-3" d="M51.706 126.81C22.23 126.81 0 115.759 0 101.104c0-2.562.688-5.06 2.046-7.44C.688 91.284 0 88.787 0 86.224c0-9.069 8.227-16.791 22.713-21.464-6.378-7.125-9.865-16.24-9.865-25.9 0-10.396 4.037-20.159 11.369-27.49C31.549 4.038 41.312 0 51.707 0s20.157 4.038 27.488 11.37c7.332 7.331 11.37 17.094 11.37 27.49 0 9.66-3.488 18.775-9.866 25.9 14.487 4.673 22.713 12.395 22.713 21.464 0 2.563-.687 5.06-2.046 7.44 1.359 2.38 2.046 4.878 2.046 7.44 0 14.655-22.228 25.706-51.706 25.706Z"/><path class="cls-3" d="M51.706 9.118c-7.651 0-15.301 2.912-21.126 8.736-11.648 11.648-11.648 30.603 0 42.252l21.126 21.125 21.126-21.125c11.649-11.65 11.649-30.604 0-42.252-5.825-5.824-13.475-8.736-21.126-8.736Z"/><path class="cls-2" d="M51.55 107.929c-20.602 0-38.153-5.942-44.828-14.265-1.862 2.321-2.878 4.827-2.878 7.44 0 11.988 21.358 21.706 47.706 21.706s47.706-9.718 47.706-21.705c0-2.614-1.016-5.12-2.878-7.44-6.675 8.322-24.226 14.264-44.828 14.264Z"/><path d="m56.668 79.527-3.508 3.509c-.89.889-2.33.889-3.22 0l-3.509-3.509c-18.352.891-33.595 6.514-39.71 14.137 6.676 8.323 24.227 14.265 44.829 14.265s38.153-5.942 44.828-14.265c-6.114-7.623-21.357-13.246-39.71-14.137Z" style="fill:#8585f6"/><path d="M33.106 66.202C15.918 69.484 3.844 77.212 3.844 86.224c0 2.614 1.016 5.12 2.878 7.44 6.114-7.623 21.357-13.246 39.71-14.137L33.105 66.202Zm36.888 0L56.668 79.527c18.353.891 33.596 6.514 39.71 14.137 1.862-2.32 2.878-4.826 2.878-7.44 0-9.012-12.074-16.74-29.262-20.022Z" style="fill:#cacafb"/><ellipse cx="51.55" cy="86.224" rx="10.713" ry="4.874" style="fill:#9ef9be"/><path class="cls-2" d="M51.55 86.2a4.761 4.761 0 0 1-3.377-1.395L26.89 63.52c-13.598-13.598-13.598-35.724 0-49.322C40.487.601 62.614.601 76.211 14.198s13.598 35.724 0 49.322L54.927 84.804A4.762 4.762 0 0 1 51.55 86.2Zm.155-4.934.001.002v-.002ZM51.55 8.997c-7.651 0-15.302 2.912-21.126 8.736-11.648 11.649-11.648 30.603 0 42.252L51.55 81.11l21.126-21.125c11.649-11.65 11.649-30.603 0-42.252-5.825-5.824-13.475-8.736-21.126-8.736Z"/><path d="M47.238 43.172c-1.477-1.477-1.787-3.16-1.787-4.313 0-1.152.31-2.836 1.786-4.312 1.477-1.477 3.16-1.787 4.313-1.787 1.153 0 2.836.31 4.312 1.786 1.477 1.477 1.787 3.16 1.787 4.313 0 1.153-.31 2.836-1.786 4.313l-3.64 3.64a.952.952 0 0 1-1.346 0l-3.64-3.64Z" style="fill:red"/></svg>