<svg width="411" height="408" fill="none" xmlns="http://www.w3.org/2000/svg"><ellipse cx="222.743" cy="186.515" rx="95.387" ry="95.355" fill="#000091"/><path fill="#000091" d="M127.356 186.235H318.13v190.709H127.356z"/><path d="M237.179 139.818l1.14.902 1.139-.902c.912-.721 22.322-17.879 22.322-37.138 0-13.056-10.525-23.68-23.461-23.68-12.937 0-23.462 10.624-23.462 23.68 0 19.259 21.41 36.417 22.322 37.138zm1.14-57.088c10.898 0 19.766 8.95 19.766 19.95 0 15.039-15.399 29.458-19.766 33.244-4.368-3.786-19.767-18.205-19.767-33.244 0-11 8.868-19.95 19.767-19.95z" fill="#FCC0B4"/><path d="M238.538 113.828c6.528 0 11.84-5.34 11.84-11.903 0-6.563-5.312-11.903-11.84-11.903-6.529 0-11.841 5.34-11.841 11.903 0 6.563 5.312 11.903 11.841 11.903zm0-20.059c4.473 0 8.112 3.66 8.112 8.156 0 4.497-3.639 8.156-8.112 8.156-4.473 0-8.113-3.659-8.113-8.156 0-4.497 3.64-8.156 8.113-8.156z" fill="#FCC0B4"/><path fill="#0063CB" d="M273.305 231.137h95.667v171.694h-95.667z"/><path fill-rule="evenodd" clip-rule="evenodd" d="M273.305 231.697h95.666l.001-.28c0-52.663-42.707-95.354-95.387-95.354h-.28v95.634z" fill="#0063CB"/><g clip-path="url(#clip0_152_440)" stroke="#73E0CF" stroke-width="4" stroke-miterlimit="10"><path d="M254.371 187.627c16.669 0 16.669 16.458 33.338 16.458s16.669-16.458 33.338-16.458c16.671 0 16.671 16.458 33.342 16.458s16.671-16.458 33.342-16.458m-133.36 29.625c16.669 0 16.669 16.459 33.338 16.459s16.669-16.459 33.338-16.459c16.671 0 16.671 16.459 33.342 16.459s16.671-16.459 33.342-16.459"/><path d="M254.371 232.065c16.669 0 16.669 16.458 33.338 16.458s16.669-16.458 33.338-16.458c16.671 0 16.671 16.458 33.342 16.458s16.671-16.458 33.342-16.458"/><path d="M254.371 202.44c16.669 0 16.669 16.458 33.338 16.458s16.669-16.458 33.338-16.458c16.671 0 16.671 16.458 33.342 16.458s16.671-16.458 33.342-16.458" stroke-linecap="round"/></g><path stroke="#fff" d="M273.374 377.444H52.389"/><ellipse cx="365.552" cy="49.423" rx="31.329" ry="31.319" fill="#FF4347"/><ellipse cx="76.166" cy="258.201" rx="40.56" ry="40.547" fill="#000091"/><path fill-rule="evenodd" clip-rule="evenodd" d="M94.305 294.551c-2.36.427-4.792.65-7.275.65-22.4 0-40.56-18.154-40.56-40.547 0-15.875 9.127-29.62 22.421-36.276-18.93 3.427-33.286 19.986-33.286 39.896 0 22.394 18.16 40.547 40.56 40.547a40.42 40.42 0 0018.14-4.27z" fill="#030357"/><path d="M79.787 376.944H75.08l1.449-78.197h1.086l.725 24.98 5.794-2.896.724 1.81-6.518 3.258 1.448 51.045z" fill="#242424"/><ellipse cx="114.336" cy="287.31" rx="30.617" ry="30.607" fill="#6A6AF4"/><path d="M117.07 376.944h-3.554l1.093-59.027h.82l.547 18.856 4.374-2.187.547 1.367-4.921 2.459 1.094 38.532z" fill="#6A6AF4"/><rect y="33.197" width="193.572" height="120.242" rx="28" fill="#EEE"/><path d="M43.139 61.72l-1.09 1.07c-2.397 2.363-4.246 4.345-6.443 6.557l-2.233-1.858-1.177-.976-1.985 2.307 1.176.976 3.33 2.77 1.081.898 1-.984c2.765-2.724 4.729-4.895 7.43-7.557l1.088-1.07-2.177-2.134zm0 26.844l-1.09 1.07c-2.397 2.364-4.246 4.346-6.443 6.558l-2.233-1.858-1.177-.976-1.985 2.306 1.176.976 3.33 2.771 1.081.898 1-.984c2.765-2.724 4.729-4.896 7.43-7.557l1.088-1.07-2.177-2.134zm0 26.845l-1.09 1.07c-2.397 2.364-4.246 4.345-6.443 6.557l-2.233-1.857-1.177-.976-1.985 2.306 1.176.976 3.33 2.771 1.081.897 1-.984c2.765-2.724 4.729-4.895 7.43-7.556l1.088-1.071-2.177-2.133z" fill="#0078F3"/><path d="M193.572 156.507c0 5.877-6.804 9.138-11.385 5.457l-30.896-24.827 42.281-6.012v25.382z" fill="#EEE"/><path d="M61.54 65.634h96.786M61.54 94.157h96.786M61.54 121.001h96.786" stroke="#000091" stroke-width="6" stroke-linecap="round"/><path d="M190.706 376.371h-1.061l-7.345.088s-1.593 7.158-2.301 10.163c-.088.177-.177.707-.265 1.06-.177.53-.177 1.061-.177 1.591.177 2.651 1.239 5.037 3.628 6.274 2.655 1.326 4.778 2.651 7.521 0 2.744-2.651 3.186-4.242 2.124-8.748-1.062-4.596-1.416-10.34-2.124-10.428zm29.29 9.014c-4.778-1.591-8.052-8.042-8.052-8.042l-8.23-.53s-.442 6.627-.619 9.986c-.266 4.418.531 6.539 3.362 6.274 3.894-.354 19.734 1.149 22.211-.53 3.274-2.033-4.159-5.744-8.672-7.158z" fill="#1212FF"/><path d="M221.412 314.158c.354 3.358-2.124 20.855-2.124 24.214 0 3.358-7.344 38.971-7.344 38.971l-8.407-.265s1.947-52.581 1.682-55.143c-.177-2.563-10.796-33.051-10.796-33.051s-.796 8.042-.796 10.605c0 2.562-2.832 76.882-2.832 76.882h-8.407l-12.034-109.756-1.151-9.367 45.572 1.148s6.283 52.404 6.637 55.762z" fill="url(#paint0_linear_152_440)"/><path d="M227.076 235.95l-3.806 3.27 1.239 5.126 1.593 2.297c-.177.177-.531-1.149 1.239-.177l3.363-.176 2.566-3.358s-1.328-15.377-7.345-26.07l1.151 19.088zm-4.69-20.325l-.354-2.121-.885-.176 1.239 2.297zm-32.122-56.645c2.124-.884 10.353-4.772 11.592-3.977 1.858 1.591 3.186 3.623 3.717 5.921.354 1.591 1.592 3.623 1.858 3.358.885-.884.708 2.563.708 3.623-.266 1.502-.885 3.005-1.947 4.065-.708.53-1.416 2.475-1.77 3.977-.354 1.591-1.062 4.86-.442 6.274.708 1.591 9.38 17.321 17.078 31.195l-43.36-7.777-13.715 28.897 6.194 4.949-1.77 5.921-1.15.177s-.974 2.297-2.035 1.237c-.885-.884-2.124-.442-2.655-.177-.177.088-.354.088-.531.088l-1.416-.265-.885-7.776 13.362-41.004s16.017-14.404 16.99-14.935c.885-.53 1.239-4.418.354-6.274-.885-1.856-1.947-3.623-3.009-5.391-.708-1.06-1.592-5.125-1.592-6.892 0-1.768 1.061-1.149 1.061-1.149s.974-3.447 3.098-4.419c.796-.53 11.857-3.623 11.857-3.623" fill="url(#paint1_linear_152_440)"/><path d="M173.186 188.849c-2.124 1.414-4.071 3.358-4.779 5.832-.708 2.475-12.742 25.628-13.362 27.307-.531 1.679-2.831 8.395-1.593 15.553 1.239 7.246 6.726 8.925 7.699 8.925.531 0-.442-3.711-.619-6.274-.089-.884.707-3.181.884-4.065.354-1.325 1.505-.972 1.505-2.209 0-2.298 5.663-10.163 7.787-14.493 2.124-4.418 6.106-5.125 6.814-7.07.707-1.944-5.929 39.414-5.929 39.414s-.177 7.246 1.239 7.953c1.238.619 16.547 6.451 20.087 7.777.354.176.796-.089.973-.442l2.301-6.451c0-.089.088-.177.177-.089.088 0 .088.089.088.089l2.124 6.981c.088.353.531.53.885.53l18.76-4.065s-.266-34.641.088-40.474c.266-5.655-.442-8.837.62-7.334 1.15 1.679 10.53 10.958 10.53 13.609-.089 1.502.619 2.828 1.858 3.711l-.531 12.726s5.309-5.921 5.84-9.191c.531-3.358.708-5.125-.885-8.395-1.592-3.358-10.176-33.581-10.176-33.581s-.885-3.711-7.256-5.567c-6.371-1.944-11.15-4.772-12.3-4.684-1.15.089-4.69 6.716-6.283 8.661-.708.883-.531 1.237-1.504 2.562-.531.619-1.416.796-2.035.265-.177-.176-.266-.176-.354-.441-.531-.796-.885-1.591-1.328-2.298-.707-1.414-6.194-9.456-6.194-9.456s-13.008 3.27-15.131 4.684z" fill="url(#paint2_linear_152_440)"/><path d="M201.768 155.003s-10.973 3.712-13.008 5.479c-1.239 1.149-1.947 2.563-1.947 2.563s-1.062-.442-1.062 1.149c0 0-.442-1.061-.796-1.679-.354-.619-1.682-4.065-.443-6.717 1.239-2.651 2.832-4.241 3.451-4.683.62-.442 4.336-3.623 7.964-3.447 3.628.177 5.929 2.651 6.637 3.182.708.53 1.947 1.59 2.832 1.855.885.266 3.008 3.093 3.097 5.214.177 2.121-.62 6.716-.62 6.716s-.088-.618-.531-.265c-.442.354-1.592-1.944-1.946-3.534-.354-1.68-3.628-5.833-3.628-5.833z" fill="url(#paint3_linear_152_440)"/><path opacity=".31" d="M187.521 264.847s-5.044 26.777-2.389 37.469c3.982 16.261-1.77 38.176-1.77 48.693 0 6.804 2.654 25.804 2.831 33.404.089 2.297 1.682 6.804.531 7.864-.531.442-3.716-.53-5.574-1.413-.885-.442-1.505-1.414-1.328-2.386l1.062-4.596 1.504-6.009-10.441-97.914s-3.363-21.828-1.505-21.916c1.947 0 17.079 6.804 17.079 6.804z" fill="#000"/><path d="M178.318 215.625l16.282-5.037.796 46.041-14.954 5.656-2.124-46.66z" fill="#fff"/><path d="M194.6 210.588l19.202 5.744v45.246l-18.406-4.949-.796-46.041z" fill="#fff"/><path d="M213.802 216.332l18.406-5.656-2.566 23.949-4.513 3.358c-.531.353-.797.884-.885 1.414l-.177.883c-.089.442 0 .884.177 1.238l.796 1.944c.266.618.708 1.237 1.328 1.59l2.654 1.414-.177 9.721-15.131 5.567v-45.422h.088zm-35.484-.707l-17.875-5.567 2.478 24.302 4.424 3.358c.443.353.797.883.885 1.414l.177.883c.089.442 0 .884-.177 1.238l-.708 1.944c-.265.618-.708 1.237-1.327 1.59l-2.566 1.414.177 10.251 16.636 5.833-2.124-46.66zm15.928-4.86l.354-.177.354.088.796 46.13-.354-.177-.531.177-.619-46.041z" fill="#E1E6FC"/><path fill-rule="evenodd" clip-rule="evenodd" d="M287.178 280.68h-25.277a5 5 0 00-5 5v36.1h23.625a2.5 2.5 0 110 5h-2.27c.094.155.18.318.258.49l34.568 76.081a2.5 2.5 0 01-4.552 2.068l-10.168-22.379-19.511 22.255a5.5 5.5 0 01-8.271 0l-19.769-22.55-10.213 22.667a2.499 2.499 0 11-4.558-2.054l34.274-76.075c.08-.177.168-.344.264-.503h-21.86a2.5 2.5 0 010-5h3.183v-36.1c0-5.523 4.478-10 10-10h25.277c5.523 0 10 4.477 10 10v36.1h4.146a2.5 2.5 0 110 5H289.09a2.5 2.5 0 010-5h3.088v-36.1a5 5 0 00-5-5zm-12.769 11.856a6.647 6.647 0 00-4.524 1.766 2.5 2.5 0 11-3.389-3.676 11.647 11.647 0 017.913-3.09c6.448 0 11.676 5.225 11.676 11.673 0 6.447-5.228 11.672-11.676 11.672-6.447 0-11.675-5.225-11.675-11.672a2.5 2.5 0 115 0 6.674 6.674 0 006.675 6.672 6.674 6.674 0 006.676-6.672 6.674 6.674 0 00-6.676-6.673zm2.806 43.963l18.877 41.546-18.877 21.531v-63.077zm-5-1.263v64.34l-19.147-21.841 19.147-42.499z" fill="#FFCA00"/><defs><linearGradient id="paint0_linear_152_440" x1="169.203" y1="317.295" x2="221.501" y2="317.295" gradientUnits="userSpaceOnUse"><stop stop-color="#0D0D9D"/><stop offset="1" stop-color="#6060EA"/></linearGradient><linearGradient id="paint1_linear_152_440" x1="178.999" y1="201.148" x2="233.13" y2="200.998" gradientUnits="userSpaceOnUse"><stop stop-color="#CB8C7B"/><stop offset=".333" stop-color="#F1B5A5"/><stop offset=".667" stop-color="#F6D0C6"/><stop offset="1" stop-color="#FCC0B0"/></linearGradient><linearGradient id="paint2_linear_152_440" x1="153.091" y1="226.141" x2="236.807" y2="226.141" gradientUnits="userSpaceOnUse"><stop stop-color="#FBB8F6"/><stop offset="1" stop-color="#6A6AF4"/></linearGradient><linearGradient id="paint3_linear_152_440" x1="196.256" y1="147.661" x2="196.256" y2="164.635" gradientUnits="userSpaceOnUse"><stop stop-color="#4949D5"/><stop offset="1" stop-color="#26266F"/></linearGradient><clipPath id="clip0_152_440"><path fill="#fff" transform="translate(254.371 170.345)" d="M0 0h133.36v80.647H0z"/></clipPath></defs></svg>
