<svg id="Calque_1" xmlns="http://www.w3.org/2000/svg" xmlns:xlink="http://www.w3.org/1999/xlink" viewBox="0 0 541.33 503.441"><defs><linearGradient id="Dégradé_sans_nom_174" x1="-2842.604" y1="281.606" x2="-2846.993" y2="282.437" gradientTransform="matrix(-1 0 0 1 -2394.384 0)" gradientUnits="userSpaceOnUse"><stop offset="0" stop-color="#ff554e"/><stop offset="1" stop-color="#e8193b"/></linearGradient><linearGradient id="Dégradé_sans_nom_174-2" x1="-2844.799" y1="280.187" x2="-2840.607" y2="280.187" xlink:href="#Dégradé_sans_nom_174"/><linearGradient id="Dégradé_sans_nom_173" x1="-2384.815" y1="217.7" x2="-2466.34" y2="242.523" gradientTransform="scale(-1 1) rotate(-4.85 88.214 -27906.71)" gradientUnits="userSpaceOnUse"><stop offset="0" stop-color="#ff353b"/><stop offset="1" stop-color="#e11c3d"/></linearGradient><linearGradient id="Dégradé_sans_nom_171" x1="-2730.379" y1="212.159" x2="-2720.795" y2="240.873" gradientTransform="scale(-1 1) rotate(-4.85 88.214 -27906.71)" gradientUnits="userSpaceOnUse"><stop offset="0" stop-color="#ba6993"/><stop offset="1" stop-color="#603ab3"/></linearGradient><linearGradient id="Dégradé_sans_nom_170" x1="-2690.755" y1="173.289" x2="-2687.537" y2="226.694" gradientTransform="scale(-1 1) rotate(-4.85 88.214 -27906.71)" gradientUnits="userSpaceOnUse"><stop offset="0" stop-color="#ba6e93"/><stop offset="1" stop-color="#574588"/></linearGradient><linearGradient id="Dégradé_sans_nom_174-3" x1="-2415.984" y1="308.233" x2="-2431.125" y2="311.098" xlink:href="#Dégradé_sans_nom_174"/><linearGradient id="Dégradé_sans_nom_174-4" x1="-2423.554" y1="303.336" x2="-2409.095" y2="303.336" xlink:href="#Dégradé_sans_nom_174"/><linearGradient id="Dégradé_sans_nom_174-5" x1="-2424.609" y1="326.246" x2="-2433.361" y2="327.902" xlink:href="#Dégradé_sans_nom_174"/><linearGradient id="Dégradé_sans_nom_174-6" x1="-2896.244" y1="277.839" x2="-2900.633" y2="278.67" xlink:href="#Dégradé_sans_nom_174"/><linearGradient id="Dégradé_sans_nom_174-7" x1="-2898.438" y1="276.419" x2="-2894.247" y2="276.419" xlink:href="#Dégradé_sans_nom_174"/><linearGradient id="Dégradé_sans_nom_174-8" x1="-2898.744" y1="283.061" x2="-2901.281" y2="283.541" xlink:href="#Dégradé_sans_nom_174"/><linearGradient id="Dégradé_sans_nom_174-9" x1="-2772.042" y1="304.226" x2="-2776.431" y2="305.056" xlink:href="#Dégradé_sans_nom_174"/><linearGradient id="Dégradé_sans_nom_174-10" x1="-2774.237" y1="302.806" x2="-2770.045" y2="302.806" xlink:href="#Dégradé_sans_nom_174"/><linearGradient id="Dégradé_sans_nom_174-11" x1="-2774.543" y1="309.447" x2="-2777.08" y2="309.927" xlink:href="#Dégradé_sans_nom_174"/><clipPath id="clippath"><path class="cls-1" d="M456.25 63.959s71.218-18.313 83.427 107.845c12.209 126.157-41.713 257.402-211.62 316.411-169.905 59.01-297.08-67.148-321.498-145.488-24.418-78.34 18.313-217.724 145.488-219.759 127.175-2.035 102.758 3.052 160.75-13.226C370.788 93.464 405.38 68.03 456.25 63.96Z"/></clipPath><clipPath id="clippath-1"><rect class="cls-1" x="354.798" y="75.417" width="135.632" height="103.322" rx="10.287" ry="10.287"/></clipPath><clipPath id="clippath-2"><rect class="cls-1" x="354.798" y="75.417" width="135.632" height="103.322" rx="10.287" ry="10.287"/></clipPath><clipPath id="clippath-3"><path class="cls-1" d="M-191.19 63.959s71.218-18.313 83.426 107.845c12.21 126.157-41.713 257.402-211.619 316.411-169.906 59.01-297.081-67.148-321.499-145.488-24.417-78.34 18.314-217.724 145.489-219.759 127.175-2.035 102.757 3.052 160.749-13.226C-276.652 93.464-242.06 68.03-191.19 63.96Z"/></clipPath><style>.cls-1{fill:none}.cls-3{fill:#000091}.cls-5{fill:#5e2a2b}.cls-6{fill:#e10814}.cls-8{fill:#5b5b5b}.cls-9{fill:#ff0017}.cls-11{fill:#ff0027}.cls-14{fill:#8b8b8c}.cls-15{fill:#e1000f}.cls-24{fill:#333030}.cls-26{fill:#fff}.cls-28{fill:#b40100}.cls-39{fill:#6a6af4}</style></defs><g style="clip-path:url(#clippath)"><path d="m23.557 366.396 56.864-2.005c59.436 4.014 118.454-8.546 175.489 7.76 28.182-8.425 189.843-42.188 189.843-42.188s55.588-6.44 80.54-9.109c0 0 119.233-144.032 41.972-252.412C554.623 49.305 473.677 4.62 437.693.447c-12.683-1.471-76.869-7.24-84.01-.02-4.121-2.552 19.531 85.323 14.887 86.958-13.601-12.142-53.174-1.062-61.364-.959-8.943.113-18.84-3.864-27.805-3.835-23.639.077-47.33 2.3-70.952 2.877-5.541.135-50.69-4.877-47.46 5.273.38 1.2 19.133 16.147 8.15 18.697-6.973 1.618-69.162-1.213-86.293 0-4.107-1.94 1.547-11.613 4.794-13.424 3.988-2.224 14.97-.55 14.861-6.232-.165-8.607-69.602-6.303-88.69 9.109-21.646 17.478-21.503 57.84-44.584 72.39 7.939 31.534 21.32 179.723 22.905 192.422l31.425 2.693Z" style="fill:#313178"/><path style="fill:url(#Dégradé_sans_nom_174)" d="M450.415 270.01v24.024"/><path class="cls-6" d="M449.668 270.011h1.494v24.022h-1.494z"/><path class="cls-15" d="M461.113 261.66c0 5.908-4.79 10.697-10.698 10.697v-21.395c5.908 0 10.698 4.79 10.698 10.698Z"/><path class="cls-28" d="M439.718 261.66c0-5.908 4.789-10.698 10.697-10.698v21.395c-5.908 0-10.697-4.79-10.697-10.697Z"/><path style="fill:url(#Dégradé_sans_nom_174-2)" d="m450.415 282.022-4.191-3.67"/><path class="cls-6" transform="rotate(-48.793 448.32 280.187)" d="M447.572 277.401h1.494v5.571h-1.494z"/><path class="cls-28" d="M411.272 298.113c.253-.096.223.404.375.405.08 0 .197-.013.313-.025-.383-1.585-.038-3.512.435-4.879 1.498-4.321 5.19-5.54 8.884-3.935-1.872-10.05 5.045-15.339 11.911-9.632l.015-.014c.045.042.081.086.125.128.215.183.43.376.644.581l-.04.037c1.123 1.186 2.036 2.43 2.902 4.062 2.31-5.852 7.645-4.768 11.39-.342.91 1.076 1.22 2.001 1.602 2.085-.247 1.246-.24 2.343.056 3.65l.052.234c-7.256 1.633-14.482 3.372-21.718 5.066-.025.08-.052.154-.095.19-3.5.478-13.967 3.509-15.708 3.503-.048 0-.078-.056-.104-.123-.17.036-.339.076-.509.112-.471-.243-.388-.657-.53-1.103Zm82.868-12.59c2.592-5.135 7.38-7.355 10.78-2.146.471-1.782 1.068-3.194 1.877-4.596-.016-.008-.03-.019-.046-.027.158-.247.32-.482.483-.707.032-.051.058-.101.09-.153l.018.01c5.258-7.063 12.87-3.407 13.217 6.81 3.137-2.372 6.863-1.985 9.177 1.906.732 1.232 1.46 3.037 1.432 4.668.111-.013.224-.027.3-.044.142-.034.01-.516.267-.477-.04.467.125.852-.267 1.192-.168.002-.335 0-.502.002-.01.07-.027.131-.072.142-1.636.385-12.111-.296-15.502 0-.048-.025-.089-.093-.13-.164-7.157-.08-14.315-.204-21.479-.219v-.238c.005-1.34-.22-2.413-.712-3.576.342-.164.438-1.135 1.069-2.383Z"/><path class="cls-15" d="M448.26 289.07c1.132-2.849 3.75-3.381 5.938-2.127.34-6.912 4.52-11.333 9.694-8.227.342.008-.122-1.744.16-3.227.91-4.805 4.955-7.98 8.834-7.955 3.724-.304 7.837 2.571 9.058 7.298.377 1.458.058 3.24.386 3.206 4.747-3.47 9.079.639 9.903 7.508 2.012-1.408 4.565-1.066 5.857 1.694.536 1.143.8 2.207.844 3.547l.009.238c-8.375.29-16.76 1.01-25.15 1.223-8.703.414-17.439.324-26.132.66l-.008-.238c-.055-1.34.139-2.42.608-3.6Z"/><path class="cls-15" d="m288.995 365.205-18.33-17.066s0-27.12 20.862-13.908c18.052 11.433 35.688 2.626 40.115.044 58.38-36.196 156.053-73.87 266.554-22.209 178.49 83.448-69.941 116.571-69.941 116.571L287.66 415.201l-12.983-36.944s5.013-5.171 14.317-13.052Z"/><path class="cls-5" d="M322.101 344.85s166.483-46.085 259.173 32.264c92.69 78.35-72.63 209.179-72.63 209.179l-170.433-5.32"/><path d="M-.884 279.378c-1.19 14.154-5.724 84.384-6.848 97.812 20.575 11.859 43.017 8.632 63.741 19.954 8.29-4.923 16.798-8.502 26.148-10.939.257-1.702-1.853-1.025-2.085-1.273-5.203-5.575 9.927-103.73-80.956-105.554Z" style="fill:url(#Dégradé_sans_nom_173)"/><path class="cls-9" d="M25.937 349.377c-.058.701-.12 1.403-.178 2.104 2.4-.793 11.902 5.82 12.358 4.228l-12.18-6.332Z"/><path class="cls-11" d="M87.32 297.756c6.135 11.966 13.264 23.91 13.039 37.844 2.557-.218 5.316-.63 7.835-.748.829-11.928-.816-22.956-4.509-34.294 7.132 9.48 7.582 23.125 6.613 34.473 21.745-.85 43.173.515 64.712 3.371.59-1.562 1.112-3.291 1.82-4.791-1.437-14.654-2.101-29.4-9.085-42.808-20.55-39.451-68.4-23.778-80.425 6.953Z"/><path class="cls-11" d="M80.42 337.44c.15.161 1.51-.276 1.344.821 6.238-1.626 12.217-2.116 18.595-2.66.225-13.934-6.904-25.88-13.039-37.845-4.792 12.249-4.594 26.778-6.9 39.685Z"/><path class="cls-9" d="M108.194 334.852c.69-.033 1.412.206 2.104.179.969-11.348.52-24.993-6.613-34.473 3.693 11.338 5.338 22.366 4.509 34.294Z"/><path d="M363.006 387.56c2.701-.041 3.323-.39 3.567-.405-1.358-19.657-13.125-44.062-34.01-48.808-4.776-1.35-9.934-1.631-10.462-1.594-12.39.872-27.649 22.19-24.168 35.04l20.127 8.42c1.954-1.566 8.852 2.753 9.642 2.938.175.04.47-1.052 3.567-.404.549.115.033 1.355.582 1.462 1.244.244 23.308 2.735 25.192 2.844.335.02 2.569-3.265 5.963.506Z" style="fill:url(#Dégradé_sans_nom_171)"/><path d="M277.914 291.32c-15.08-.225-32.834 8.296-40.02 22.038 5.193 13.975 9.296 28.346 15.516 41.94l-1.433.232c40.586 12.712 67.252 32.687 111.029 32.03-3.394-3.772-5.628-.487-5.963-.507-1.884-.109-23.948-2.6-25.192-2.844-.549-.107-.033-1.347-.582-1.462-3.097-.648-3.392.444-3.567.404-.79-.185-7.688-4.504-9.642-2.938l-20.127-8.42c-3.48-12.85 11.779-34.168 24.168-35.04-.947-7.225-5.794-19-9.901-24.86-1.41-2.013-5.716-6.892-7.412-8.401-7.506-6.68-16.957-12.023-26.874-12.172Z" style="fill:url(#Dégradé_sans_nom_170)"/><path style="fill:url(#Dégradé_sans_nom_174-3)" d="M29.17 268.231v82.87"/><path class="cls-6" d="M26.593 268.232h5.155V351.1h-5.155z"/><path class="cls-15" d="M66.073 239.424c0 20.38-16.522 36.902-36.903 36.902v-73.805c20.381 0 36.903 16.522 36.903 36.903Z"/><path class="cls-28" d="M-7.732 239.424c0-20.381 16.522-36.903 36.902-36.903v73.805c-20.38 0-36.902-16.522-36.902-36.902Z"/><path style="fill:url(#Dégradé_sans_nom_174-4)" d="m29.17 309.666-14.458-12.661"/><path class="cls-6" transform="rotate(-48.793 21.94 303.336)" d="M19.363 293.726h5.155v19.219h-5.155z"/><path style="fill:url(#Dégradé_sans_nom_174-5)" d="m40.032 322.326-10.862 9.496"/><path class="cls-6" transform="rotate(-41.16 34.601 327.074)" d="M27.388 324.496h14.427v5.156H27.388z"/><path class="cls-3" d="M264.731 318.7c1.753 3.51 3.658 11.877 3.785 16.488 11.591-2.298 19.788 10.749 18.207 24.455l-.399 1.875c-51.183-9.825-103.352-19.516-153.35-33.087 1.67-8.298-1.972-14.433 5.284-24.853 25.894-29.139 35.726-4.375 37.665-5.716 12.277-46.3 63.778-31.131 57.604 14.205 11.21-12.276 24.735-6.325 31.204 6.633Z"/><path class="cls-5" d="M364.29 358.667s-28.84 18.43-148.58-24.225c-119.738-42.655-260.986-1.357-260.986-1.357L-69.098 485.6 94.03 627.752l256.652-21.362 77.573-130.332-63.964-117.39Z"/><path d="M500.444 404.285c-37.215 7.974-32.71 58.77-35.865 59.364-23.056-30.192-46.902-4.66-52.536 29.681h-74.256c-.028-7.259 1.244-13.063 4.04-19.357 6.747-15.187 21.142-17.546 32.835-10.324 3.242-37.331 26.935-60.414 54.556-42.588 1.866.112-.315-9.458 1.516-17.422 7.74-33.675 44.038-51.392 68.195-35.489 2.766 3.85 1.388 29.197 1.515 36.135Z" style="fill:#0f277f"/><path class="cls-39" d="M334.55 472.923c3.572 6.757 4.12 12.013 6.061 12.905-2.796 6.295-4.069 12.099-4.041 19.358v1.29c-71.276.138-142.46 2.243-213.678 1.291-2.224-1.837-1.288-3.925-1.515-6.453 1.46-.21.71 2.4 1.515 2.581 9.272 2.084 68.67-1.6 87.896 0 2.751-1.388 3.018-16.486 5.557-23.874 8.386-24.406 24.792-38.677 43.442-48.395 6.23 9.262 10.402 18.008 13.64 29.682 19.27-28.199 46.422-16.184 61.122 11.615Z"/><path class="cls-3" d="M263.042 436.28c-18.65 9.717-35.057 23.988-43.443 48.394-2.539 7.388-2.805 22.486-5.556 23.875-19.226-1.601-78.624 2.083-87.896 0-.806-.182-.055-2.791-1.516-2.582-.833-9.279 3.645-19.974 8.083-27.1 13.12-21.069 34.245-23.163 52.03-10.325 2.046-57.414 48.485-76.589 78.298-32.263Zm237.402-31.995c.546 29.839-1.239 59.918 1.01 89.69l-2.525 1.937c-53.69 1.471-107.51-1.395-161.142-1.291v-1.29h74.256c5.634-34.343 29.48-59.874 52.536-29.682 3.154-.593-1.35-51.39 35.865-59.364Z"/><path style="fill:url(#Dégradé_sans_nom_174-6)" d="M504.055 266.243v24.022"/><path class="cls-6" d="M503.307 266.243h1.494v24.022h-1.494z"/><path class="cls-15" d="M514.752 257.892c0 5.908-4.79 10.698-10.697 10.698v-21.395c5.908 0 10.697 4.79 10.697 10.697Z"/><path class="cls-28" d="M493.357 257.892c0-5.908 4.79-10.697 10.698-10.697v21.395c-5.908 0-10.698-4.79-10.698-10.698Z"/><path style="fill:url(#Dégradé_sans_nom_174-7)" d="m504.055 278.254-4.192-3.67"/><path class="cls-6" transform="rotate(-48.793 501.959 276.42)" d="M501.212 273.634h1.494v5.571h-1.494z"/><path style="fill:url(#Dégradé_sans_nom_174-8)" d="m507.203 281.924-3.148 2.753"/><path class="cls-6" transform="rotate(-41.16 505.63 283.3)" d="M503.538 282.553h4.182v1.495h-4.182z"/><path style="fill:url(#Dégradé_sans_nom_174-9)" d="M379.853 292.63v24.022"/><path class="cls-6" d="M379.106 292.63h1.494v24.022h-1.494z"/><path class="cls-15" d="M390.55 284.279c0 5.908-4.79 10.697-10.697 10.697v-21.395c5.908 0 10.697 4.79 10.697 10.698Z"/><path class="cls-28" d="M369.155 284.279c0-5.908 4.79-10.698 10.698-10.698v21.395c-5.908 0-10.698-4.79-10.698-10.697Z"/><path style="fill:url(#Dégradé_sans_nom_174-10)" d="m379.853 304.641-4.192-3.67"/><path class="cls-6" transform="rotate(-48.793 377.757 302.806)" d="M377.01 300.02h1.494v5.571h-1.494z"/><path style="fill:url(#Dégradé_sans_nom_174-11)" d="m383.002 308.311-3.149 2.752"/><path class="cls-6" transform="rotate(-41.16 381.427 309.687)" d="M379.336 308.94h4.182v1.495h-4.182z"/><path class="cls-3" d="M119.026 333.847h9.508v248.018h-9.508z"/><path class="cls-39" d="M191.828 360.974c0 37.588-30.47 68.059-68.058 68.059V166.28c72.038 117.278 68.058 194.693 68.058 194.693Z"/><path class="cls-3" d="M123.79 166.28v150.711l-.02.013v112.029c-37.588 0-68.059-30.471-68.059-68.059 0-.104.008-.206.008-.31-.176-5.314-1.38-81.318 68.07-194.383Zm164.17 119.758v68.704m-2.137-68.703h4.274v68.703h-4.274z"/><path class="cls-39" d="M318.555 262.155c0 16.897-13.698 30.594-30.595 30.594V231.56c16.897 0 30.595 13.698 30.595 30.595Z"/><path class="cls-3" d="M257.366 262.155c0-16.897 13.697-30.595 30.594-30.595v61.19c-16.897 0-30.594-13.698-30.594-30.595Zm30.594 58.235-11.987-10.496"/><path class="cls-3" transform="rotate(-48.793 281.967 315.142)" d="M279.83 307.175h4.274v15.934h-4.274z"/><path class="cls-3" d="m296.966 330.887-9.006 7.872"/><path class="cls-3" transform="rotate(-41.16 292.463 334.823)" d="M286.482 332.686h11.961v4.274h-11.961z"/><path style="stroke:#000091;stroke-miterlimit:10;stroke-width:7px;fill:none" d="m124.479 455.254 17.995-14.846"/><path class="cls-3" d="M337.825 370.793h4.422v115.35h-4.422z"/><path class="cls-39" d="M371.685 383.409c0 17.481-14.172 31.653-31.653 31.653V292.86c33.504 54.545 31.653 90.55 31.653 90.55Z"/><path class="cls-3" d="M340.04 292.86v70.093l-.008.006v52.103c-17.482 0-31.654-14.172-31.654-31.653 0-.048.004-.096.004-.144-.082-2.472-.642-37.82 31.659-90.406Z"/><path class="cls-5" d="m426.605 322.809 10.804-12.04 10.805 12.04h-21.609z"/><path class="cls-24" d="M430.124 322.809h18.09v16.052h-18.09z"/><path class="cls-5" d="M421.118 310.77h16.291v12.039h-16.291z"/><path class="cls-8" d="m410.314 322.809 10.804-12.04 10.805 12.04h-21.609zm0 0h21.609v16.052h-21.609z"/><path class="cls-5" d="m471.77 313.548 10.804-12.04 10.805 12.04H471.77z"/><path class="cls-24" d="M458.979 313.548h34.4v25.313h-34.4z"/><path class="cls-5" d="M449.973 301.509h32.601v12.039h-32.601z"/><path class="cls-8" d="m439.169 313.548 10.804-12.04 10.804 12.04H439.17zm0 0h21.609v25.313h-21.609z"/><path class="cls-5" d="m466.264 338.244 10.804-12.04 10.805 12.04h-21.609z"/><path class="cls-24" d="M469.783 338.244h18.09v16.052h-18.09z"/><path class="cls-5" d="M460.777 326.205h16.291v12.039h-16.291z"/><path class="cls-8" d="m449.973 338.244 10.804-12.04 10.805 12.04h-21.609zm0 0h21.609v16.052h-21.609z"/><path class="cls-5" d="m401.527 341.408-10.804-12.04-10.805 12.04h21.61z"/><path class="cls-24" transform="rotate(-180 388.963 349.434)" d="M379.918 341.408h18.09v16.052h-18.09z"/><path class="cls-5" transform="rotate(-180 398.868 335.388)" d="M390.723 329.369h16.291v12.039h-16.291z"/><path class="cls-8" d="m417.818 341.408-10.804-12.04-10.805 12.04h21.61z"/><path class="cls-8" transform="rotate(-180 407.014 349.434)" d="M396.209 341.408h21.609v16.052h-21.609z"/></g><path d="M217.848 152.84c-17.474-.849-22.616 13.805-23.97 14.382-1.54.656-22.444-3.63-23.012 16.3l120.33-.48c2.92-3.575-13.882-41.717-52.255-19.655-4.392-4.775-14.71-10.237-21.093-10.547ZM85.697 38.894c-23.853-3.388-31.12 14.112-32.6 15.34-1.132.941-19.526 2.695-14.382 21.095l97.32-1.439c2.123-2.59-9.208-22.502-28.286-19.655-5.558-6.583-13.055-14.063-22.052-15.341Zm236.154 18.124c-17.103-1.853-28.83 7.229-37.393 21.094-13.723-5.689-28.97 3.579-34.517 16.3-11.714-3.073-32.524-1.415-33.079 12.944l161.559.479c5.75-2.553-6.344-29.133-26.847-25.888-4.797-11.877-16.271-23.471-29.723-24.929Z" style="fill:#666"/><rect x="334.461" y="1.21" width="180.214" height="255.628" rx="6.409" ry="6.409" style="fill:#6e6e70"/><path d="M508.866 258.048H340.268a7.026 7.026 0 0 1-7.017-7.017V7.018A7.026 7.026 0 0 1 340.268 0h168.598a7.026 7.026 0 0 1 7.018 7.018V251.03a7.026 7.026 0 0 1-7.018 7.017ZM340.268 2.42a4.603 4.603 0 0 0-4.597 4.598V251.03a4.603 4.603 0 0 0 4.597 4.597h168.598a4.603 4.603 0 0 0 4.598-4.597V7.018a4.603 4.603 0 0 0-4.598-4.598H340.268Z" style="fill:#444"/><rect class="cls-14" x="353.043" y="43.273" width="126.417" height="6.483" rx="2.172" ry="2.172"/><rect class="cls-14" x="353.043" y="53.537" width="78.515" height="6.483" rx="2.172" ry="2.172"/><rect class="cls-14" x="353.043" y="198.323" width="95.893" height="6.483" rx="2.172" ry="2.172"/><rect class="cls-14" x="353.043" y="208.587" width="78.515" height="6.483" rx="2.172" ry="2.172"/><rect class="cls-14" x="353.043" y="226.996" width="95.893" height="6.483" rx="2.172" ry="2.172"/><rect class="cls-14" x="353.043" y="237.261" width="78.515" height="6.483" rx="2.172" ry="2.172"/><rect x="354.798" y="75.417" width="135.632" height="103.322" rx="10.287" ry="10.287" style="fill:#dffee6"/><path class="cls-26" d="M470.74 178.739h-8.228v-75.055c0-1.086-1.164-2.003-2.542-2.003h-12.552c-5.938 0-10.77-4.59-10.77-10.231V75.417h8.228V91.45c0 1.086 1.164 2.003 2.542 2.003h12.552c5.938 0 10.77 4.59 10.77 10.231v75.055Z"/><path class="cls-26" d="M409.021 178.739h-8.227v-30.047c0-4.4 2.215-8.62 5.925-11.289l19.843-14.273c2.617-1.882 5.874-2.918 9.17-2.918h54.699v8.227h-54.698c-1.587 0-3.138.487-4.367 1.37l-19.843 14.273c-1.59 1.144-2.502 2.824-2.502 4.61v30.047Z"/><path class="cls-26" d="M354.798 157.202h50.109v8.227h-50.109z"/><g style="clip-path:url(#clippath-1)"><path d="M417.839 67.043s8.229 21.61 7.641 32.145c-.588 10.535-19.103 20.26-34.386 20.26s-28.948 3.646-32.622 7.63c-3.674 3.984-9.11 3.174-9.11 3.174l-8.23-59.967 76.707-3.242Z" style="fill:#abe1a9"/></g><g style="clip-path:url(#clippath-2)"><path d="m348.4 156.29-1.604-5.076c5.961-1.883 9.66-6.37 13.578-11.12 1.663-2.018 3.384-4.104 5.324-6.05 6.933-6.951 14.29-11.727 35.263-18.54 18.18-5.905 19.9-10.99 21.563-15.907.148-.44.295-.874.45-1.306 1.206-3.367-1.523-14.92-3.846-22.049l5.062-1.65c1.029 3.155 6.046 19.21 3.796 25.494-.144.402-.281.808-.42 1.216-2.401 7.102-5.765 13.03-24.96 19.265-20.06 6.517-26.67 10.75-33.138 17.237-1.763 1.767-3.402 3.755-4.987 5.677-4.237 5.138-8.618 10.452-16.08 12.81Z" style="fill:#8ca9f4"/></g><path style="fill:#120091" d="M354.495 17.803h14.729v11.964h-14.729z"/><path class="cls-26" d="M369.223 17.803h14.729v11.964h-14.729z"/><path class="cls-15" d="M383.735 17.803h14.576v11.964h-14.576zm97.461 187.702 7.182-7.182 2.053 2.052-7.183 7.182 7.183 7.183-2.053 2.052-7.182-7.182-7.183 7.182-2.052-2.052 7.183-7.183-7.183-7.182 2.052-2.052 7.183 7.182Z"/><path d="m480.623 239.701 12.513-12.512 1.925 1.925-14.438 14.437-8.662-8.662 1.925-1.925 6.737 6.737Z" style="fill:#3bea7e"/><g style="clip-path:url(#clippath-3)"><path d="m-358.446 365.205-18.33-17.066s0-27.12 20.862-13.908c18.052 11.433 35.688 2.626 40.116.044 58.379-36.196 156.052-73.87 266.554-22.209 178.49 83.448-69.942 116.571-69.942 116.571l-240.594-13.436-12.983-36.944s5.014-5.171 14.317-13.052Z" style="fill:#fcbfbf"/></g></svg>