<svg width="133" height="123" viewBox="0 0 133 123" fill="none" xmlns="http://www.w3.org/2000/svg">
<path d="M43.0715 18C43.8693 18 44.5159 18.4477 44.5159 19C44.5159 19.5128 43.9584 19.9355 43.2399 19.9933L43.0715 20H19.9604C19.1626 20 18.5159 19.5523 18.5159 19C18.5159 18.4872 19.0735 18.0645 19.792 18.0067L19.9604 18H43.0715Z" fill="#8585F6"/>
<path d="M57.0874 26C57.8764 26 58.5159 26.4477 58.5159 27C58.5159 27.5128 57.9645 27.9355 57.2539 27.9933L57.0874 28H19.9445C19.1555 28 18.5159 27.5523 18.5159 27C18.5159 26.4872 19.0674 26.0645 19.7779 26.0067L19.9445 26H57.0874Z" fill="#8585F6"/>
<path d="M49.5159 36C49.5159 35.4477 48.8851 35 48.1068 35H19.925L19.7607 35.0067C19.0598 35.0645 18.5159 35.4872 18.5159 36C18.5159 36.5523 19.1468 37 19.925 37H48.1068L48.2711 36.9933C48.972 36.9355 49.5159 36.5128 49.5159 36Z" fill="#8585F6"/>
<path d="M57.0874 43C57.8764 43 58.5159 43.4477 58.5159 44C58.5159 44.5128 57.9645 44.9355 57.2539 44.9933L57.0874 45H19.9445C19.1555 45 18.5159 44.5523 18.5159 44C18.5159 43.4872 19.0674 43.0645 19.7779 43.0067L19.9445 43H57.0874Z" fill="#000091"/>
<path d="M35.5159 61C35.5159 60.4477 34.8817 60 34.0993 60H19.9326L19.7674 60.0067C19.0628 60.0645 18.5159 60.4872 18.5159 61C18.5159 61.5523 19.1502 62 19.9326 62H34.0993L34.2644 61.9933C34.9691 61.9355 35.5159 61.5128 35.5159 61Z" fill="#000091"/>
<path d="M35.5159 53C35.5159 52.4477 34.8541 52 34.0377 52H19.9942L19.8218 52.0067C19.0865 52.0645 18.5159 52.4872 18.5159 53C18.5159 53.5523 19.1777 54 19.9942 54H34.0377L34.21 53.9933C34.9453 53.9355 35.5159 53.5128 35.5159 53Z" fill="#000091"/>
<path d="M36.0544 77C36.8616 77 37.5159 77.4477 37.5159 78C37.5159 78.5128 36.9518 78.9355 36.2248 78.9933L36.0544 79H19.9775C19.1703 79 18.5159 78.5523 18.5159 78C18.5159 77.4872 19.0801 77.0645 19.8071 77.0067L19.9775 77H36.0544Z" fill="#000091"/>
<path d="M36.5159 70C36.5159 69.4477 35.8712 69 35.0759 69H19.9559L19.788 69.0067C19.0718 69.0645 18.5159 69.4872 18.5159 70C18.5159 70.5523 19.1606 71 19.9559 71H35.0759L35.2438 70.9933C35.9601 70.9355 36.5159 70.5128 36.5159 70Z" fill="#000091"/>
<path fill-rule="evenodd" clip-rule="evenodd" d="M13.0657 11.5603V85.4397H39.5159C40.22 85.4397 40.7908 86.0128 40.7908 86.7198C40.7908 87.4268 40.22 88 39.5159 88H12.2014C11.2706 88 10.5159 87.2423 10.5159 86.3075V10.6925C10.5159 9.75775 11.2706 9 12.2014 9H66.8304C67.7613 9 68.5159 9.75775 68.5159 10.6925V46.6245C68.5159 47.3315 67.9452 47.9047 67.2411 47.9047C66.537 47.9047 65.9662 47.3315 65.9662 46.6245V11.5603H13.0657Z" fill="#000091"/>
<path fill-rule="evenodd" clip-rule="evenodd" d="M26.0159 104C25.1888 104 24.5159 103.327 24.5159 102.5C24.5159 101.673 25.1888 101 26.0159 101C26.843 101 27.5159 101.673 27.5159 102.5C27.5159 103.327 26.843 104 26.0159 104Z" fill="#CACAFB"/>
<path fill-rule="evenodd" clip-rule="evenodd" d="M115.016 30C114.189 30 113.516 29.3271 113.516 28.5C113.516 27.6728 114.189 27 115.016 27C115.843 27 116.516 27.6728 116.516 28.5C116.516 29.3271 115.843 30 115.016 30Z" fill="#CACAFB"/>
<path fill-rule="evenodd" clip-rule="evenodd" d="M79.0159 15C78.1888 15 77.5159 14.3271 77.5159 13.5C77.5159 12.6729 78.1888 12 79.0159 12C79.843 12 80.5159 12.6729 80.5159 13.5C80.5159 14.3271 79.843 15 79.0159 15Z" fill="#CACAFB"/>
<path fill-rule="evenodd" clip-rule="evenodd" d="M66.1303 83.4627C66.3207 82.6838 67.0875 82.2115 67.843 82.4077C68.5985 82.6041 69.0565 83.3946 68.8662 84.1737C67.455 89.9478 62.3073 94 56.2127 94C50.2756 94 45.2313 89.9665 43.575 84.2335C43.3526 83.4636 43.7776 82.6535 44.5243 82.4241C45.271 82.1949 46.0566 82.633 46.2791 83.4029C47.5851 87.9238 51.5459 91.0909 56.2127 91.0909C61.026 91.0909 65.0379 87.9328 66.1303 83.4627ZM119.737 83.4627C119.927 82.6838 120.694 82.2115 121.45 82.4077C122.205 82.6041 122.663 83.3946 122.473 84.1737C121.062 89.9478 115.914 94 109.819 94C103.882 94 98.838 89.9665 97.1817 84.2335C96.9592 83.4636 97.3842 82.6535 98.1309 82.4241C98.8776 82.1949 99.6632 82.633 99.8857 83.4029C101.192 87.9238 105.153 91.0909 109.819 91.0909C114.633 91.0909 118.644 87.9328 119.737 83.4627ZM109.819 62C110.543 62 111.139 62.5615 111.221 63.2849L111.23 63.4545V68.6691L119.281 76.9715C119.832 77.5395 119.832 78.4605 119.281 79.0285C118.772 79.5529 117.972 79.5932 117.419 79.1495L117.286 79.0285L109.819 71.3309L102.353 79.0285C101.802 79.5965 100.908 79.5965 100.358 79.0285C99.849 78.5041 99.8099 77.6791 100.24 77.1085L100.358 76.9715L108.409 68.6676V63.4545C108.409 62.6512 109.04 62 109.819 62ZM56.2127 62C56.9361 62 57.5324 62.5615 57.6139 63.2849L57.6234 63.4545V68.6691L62.9085 74.1196C63.4594 74.6877 63.4594 75.6086 62.9085 76.1767C62.4 76.7009 61.5997 76.7414 61.0463 76.2976L60.9134 76.1767L56.2127 71.3295L48.746 79.0285C48.1951 79.5965 47.3018 79.5965 46.7509 79.0285C46.2424 78.5041 46.2033 77.6791 46.6336 77.1085L46.7509 76.9715L54.8019 68.6676V63.4545C54.8019 62.6512 55.4335 62 56.2127 62ZM65.6744 76.9715C66.2252 77.5395 66.2252 78.4605 65.6744 79.0285C65.1235 79.5965 64.2302 79.5965 63.6793 79.0285C63.1285 78.4605 63.1285 77.5395 63.6793 76.9715C64.2302 76.4035 65.1235 76.4035 65.6744 76.9715Z" fill="#8585F6"/>
<path fill-rule="evenodd" clip-rule="evenodd" d="M83.0159 34C79.8995 34 77.3731 36.567 77.3731 39.7333C77.3731 42.3598 79.1112 44.5737 81.4825 45.2524C80.7122 49.0034 76.3448 51.8985 69.2042 53.901L68.1779 54.1776L67.1152 54.4425C66.0346 54.7015 64.9002 54.9426 63.7144 55.1656C59.6109 55.9377 55.2019 56.4354 50.7911 56.712C50.2762 56.7444 49.7734 56.7728 49.2845 56.7977L47.8599 56.8618C47.3998 56.8797 46.9545 56.8943 46.526 56.9058L45.8914 56.9209L44.9911 56.9332L44.7622 56.9429C44.0605 57.0258 43.5159 57.6317 43.5159 58.3667C43.5159 59.1583 44.1475 59.8 44.9266 59.8L46.2634 59.7801L47.2718 59.7514L48.6846 59.6962L50.1848 59.62L50.9651 59.5734C55.4815 59.29 59.9997 58.78 64.2282 57.9844C65.0372 57.8322 65.8259 57.6718 66.5937 57.5029L67.7293 57.2432C74.0342 55.7454 78.809 53.6364 81.6052 50.757V75.5667L81.6147 75.7338C81.6962 76.4467 82.2925 77 83.0159 77C83.7951 77 84.4266 76.3583 84.4266 75.5667V50.757C87.2228 53.6364 91.9977 55.7454 98.3024 57.2432L99.4382 57.5029C100.206 57.6718 100.995 57.8322 101.804 57.9844C106.032 58.78 110.55 59.29 115.067 59.5734L115.847 59.62L117.347 59.6962L118.76 59.7514L119.768 59.7801L121.105 59.8C121.884 59.8 122.516 59.1583 122.516 58.3667C122.516 57.6317 121.971 57.0258 121.27 56.9429L121.041 56.9332L120.14 56.9209L119.506 56.9058C119.077 56.8943 118.632 56.8797 118.172 56.8618L116.747 56.7977C116.258 56.7728 115.756 56.7444 115.241 56.712C110.83 56.4354 106.421 55.9377 102.317 55.1656C101.132 54.9426 99.9973 54.7015 98.9167 54.4425L97.854 54.1776L96.8277 53.901C89.6869 51.8985 85.3196 49.0034 84.5494 45.2524C86.9206 44.5737 88.6588 42.3598 88.6588 39.7333C88.6588 36.567 86.1323 34 83.0159 34ZM85.8374 39.7333C85.8374 38.1501 84.5742 36.8667 83.0159 36.8667C81.4577 36.8667 80.1945 38.1501 80.1945 39.7333C80.1945 41.3166 81.4577 42.6 83.0159 42.6C84.5742 42.6 85.8374 41.3166 85.8374 39.7333Z" fill="#000091"/>
<path d="M83.0159 91C83.7393 91 84.3357 91.5308 84.4172 92.2147L84.4266 92.375V99.25H98.5338C99.3129 99.25 99.9445 99.8656 99.9445 100.625C99.9445 101.33 99.4 101.911 98.6983 101.991L98.5338 102H70.1913C69.5476 102 68.9934 102.519 68.9177 103.212L68.9088 103.375V104.75H112.641C114.895 104.75 116.737 106.467 116.866 108.633L116.873 108.875V110.25H121.105C121.884 110.25 122.516 110.866 122.516 111.625C122.516 112.33 121.971 112.911 121.27 112.991L121.105 113H95.7124C94.9332 113 94.3016 112.384 94.3016 111.625C94.3016 110.92 94.8462 110.339 95.5479 110.259L95.7124 110.25H114.052V108.875C114.052 108.17 113.507 107.589 112.805 107.509L112.641 107.5H53.3909C52.6675 107.5 52.0712 108.031 51.9897 108.715L51.9802 108.875V110.25H61.8552C62.6344 110.25 63.2659 110.866 63.2659 111.625C63.2659 112.33 62.7214 112.911 62.0197 112.991L61.8552 113H44.9266C44.1475 113 43.5159 112.384 43.5159 111.625C43.5159 110.92 44.0605 110.339 44.7622 110.259L44.9266 110.25H49.1588V108.875C49.1588 106.678 50.9206 104.882 53.1422 104.757L53.3909 104.75H66.0874V103.375C66.0874 101.192 67.7818 99.3834 69.9486 99.257L70.1913 99.25H81.6052V92.375C81.6052 91.6156 82.2368 91 83.0159 91Z" fill="#000091"/>
<path d="M83.0159 88C83.8444 88 84.5159 87.3284 84.5159 86.5C84.5159 85.6716 83.8444 85 83.0159 85C82.1875 85 81.5159 85.6716 81.5159 86.5C81.5159 87.3284 82.1875 88 83.0159 88Z" fill="#000091"/>
</svg>
