<svg width="134" height="134" viewBox="0 0 133 123" fill="none" xmlns="http://www.w3.org/2000/svg"><path d="M43.072 18c.797 0 1.444.448 1.444 1 0 .513-.558.936-1.276.993l-.17.007H19.96c-.798 0-1.445-.448-1.445-1 0-.513.558-.936 1.276-.993L19.96 18h23.111zm14.015 8c.79 0 1.429.448 1.429 1 0 .513-.551.936-1.262.993l-.167.007H19.945c-.79 0-1.43-.448-1.43-1 0-.513.552-.936 1.263-.993l.167-.007h37.142zm-7.571 10c0-.552-.63-1-1.41-1h-28.18l-.164.007c-.701.058-1.245.48-1.245.993 0 .552.63 1 1.409 1h28.182l.164-.007c.701-.058 1.245-.48 1.245-.993z" fill="#8585F6"/><path d="M57.087 43c.79 0 1.429.448 1.429 1 0 .513-.551.935-1.262.993l-.167.007H19.945c-.79 0-1.43-.448-1.43-1 0-.513.552-.935 1.263-.993l.167-.007h37.142zM35.516 61c0-.552-.634-1-1.417-1H19.933l-.166.007c-.704.058-1.251.48-1.251.993 0 .552.634 1 1.417 1h14.166l.165-.007c.705-.058 1.252-.48 1.252-.993zm0-8c0-.552-.662-1-1.478-1H19.994l-.172.007c-.735.058-1.306.48-1.306.993 0 .552.662 1 1.478 1h14.044l.172-.007c.735-.058 1.306-.48 1.306-.993zm.538 24c.808 0 1.462.448 1.462 1 0 .513-.564.936-1.291.993l-.17.007H19.976c-.807 0-1.461-.448-1.461-1 0-.513.564-.936 1.291-.993l.17-.007h16.077zm.462-7c0-.552-.645-1-1.44-1h-15.12l-.168.007c-.716.057-1.272.48-1.272.993 0 .552.645 1 1.44 1h15.12l.168-.007c.716-.057 1.272-.48 1.272-.993z" fill="#000091"/><path fill-rule="evenodd" clip-rule="evenodd" d="M13.066 11.56v73.88h26.45c.704 0 1.275.573 1.275 1.28 0 .707-.571 1.28-1.275 1.28H12.2a1.69 1.69 0 01-1.685-1.692V10.692A1.69 1.69 0 0112.2 9h54.63c.93 0 1.685.758 1.685 1.693v35.931c0 .707-.57 1.28-1.275 1.28a1.278 1.278 0 01-1.275-1.28V11.56h-52.9z" fill="#000091"/><path fill-rule="evenodd" clip-rule="evenodd" d="M26.016 104c-.827 0-1.5-.673-1.5-1.5s.673-1.5 1.5-1.5 1.5.673 1.5 1.5-.673 1.5-1.5 1.5zm89-74c-.827 0-1.5-.673-1.5-1.5s.673-1.5 1.5-1.5 1.5.673 1.5 1.5-.673 1.5-1.5 1.5zm-36-15c-.827 0-1.5-.673-1.5-1.5s.673-1.5 1.5-1.5 1.5.673 1.5 1.5-.673 1.5-1.5 1.5z" fill="#CACAFB"/><path fill-rule="evenodd" clip-rule="evenodd" d="M66.13 83.463c.19-.78.958-1.251 1.713-1.055.755.196 1.213.987 1.023 1.766C67.455 89.948 62.307 94 56.213 94c-5.937 0-10.982-4.034-12.638-9.766-.222-.77.203-1.58.95-1.81.746-.23 1.532.209 1.754.979 1.306 4.52 5.267 7.688 9.934 7.688 4.813 0 8.825-3.158 9.917-7.628zm53.607 0c.19-.78.957-1.251 1.713-1.055.755.196 1.213.987 1.023 1.766-1.411 5.774-6.559 9.826-12.654 9.826-5.937 0-10.981-4.034-12.637-9.766-.223-.77.202-1.58.949-1.81.747-.23 1.532.209 1.755.979 1.306 4.52 5.267 7.688 9.933 7.688 4.814 0 8.825-3.158 9.918-7.628zM109.819 62c.724 0 1.32.562 1.402 1.285l.009.17v5.214l8.051 8.303a1.486 1.486 0 010 2.056 1.38 1.38 0 01-1.862.121l-.133-.12-7.467-7.698-7.466 7.697a1.38 1.38 0 01-1.995 0 1.488 1.488 0 01-.118-1.92l.118-.136 8.051-8.304v-5.214c0-.803.631-1.454 1.41-1.454zm-53.606 0c.723 0 1.32.562 1.4 1.285l.01.17v5.214l5.285 5.45c.551.569.551 1.49 0 2.058a1.38 1.38 0 01-1.862.12l-.133-.12-4.7-4.848-7.467 7.7a1.381 1.381 0 01-1.995 0 1.489 1.489 0 01-.117-1.92l.117-.137 8.05-8.304v-5.214c0-.803.633-1.454 1.412-1.454zm9.461 14.972a1.485 1.485 0 010 2.056 1.381 1.381 0 01-1.995 0 1.487 1.487 0 010-2.056 1.381 1.381 0 011.995 0z" fill="#8585F6"/><path fill-rule="evenodd" clip-rule="evenodd" d="M83.016 34c-3.117 0-5.643 2.567-5.643 5.733 0 2.627 1.738 4.84 4.11 5.52-.77 3.75-5.138 6.645-12.279 8.648l-1.026.277-1.063.265c-1.08.259-2.215.5-3.4.723-4.104.772-8.513 1.27-12.924 1.546-.515.032-1.018.06-1.506.086l-1.425.064c-.46.018-.905.032-1.334.044l-.635.015-.9.012-.229.01a1.426 1.426 0 00-1.246 1.424c0 .791.632 1.433 1.41 1.433l1.337-.02 1.009-.029 1.413-.055 1.5-.076.78-.047c4.516-.283 9.035-.793 13.263-1.589a79.014 79.014 0 002.366-.481l1.135-.26c6.305-1.498 11.08-3.607 13.876-6.486v24.81l.01.167a1.42 1.42 0 001.4 1.266c.78 0 1.412-.642 1.412-1.433v-24.81c2.796 2.88 7.57 4.988 13.875 6.486l1.136.26c.768.169 1.557.33 2.366.481 4.228.796 8.746 1.306 13.263 1.59l.78.046 1.5.076 1.413.055 1.008.03 1.337.019c.779 0 1.411-.642 1.411-1.433 0-.735-.545-1.341-1.246-1.424l-.229-.01-.901-.012-.634-.015c-.429-.012-.874-.026-1.334-.044l-1.425-.064c-.489-.025-.991-.054-1.506-.086-4.411-.277-8.82-.774-12.924-1.546a70.742 70.742 0 01-3.4-.723l-1.063-.265-1.026-.277c-7.141-2.003-11.508-4.898-12.279-8.649 2.372-.678 4.11-2.892 4.11-5.519 0-3.166-2.527-5.733-5.643-5.733zm2.821 5.733c0-1.583-1.263-2.866-2.821-2.866-1.558 0-2.822 1.283-2.822 2.866 0 1.584 1.264 2.867 2.822 2.867s2.821-1.283 2.821-2.867z" fill="#000091"/><path d="M83.016 91c.723 0 1.32.53 1.401 1.215l.01.16v6.875h14.107c.779 0 1.41.616 1.41 1.375 0 .705-.544 1.286-1.246 1.366l-.164.009H70.19c-.643 0-1.198.519-1.273 1.212l-.01.163v1.375h43.733c2.254 0 4.096 1.717 4.225 3.883l.007.242v1.375h4.232c.779 0 1.411.616 1.411 1.375 0 .705-.545 1.286-1.246 1.366l-.165.009H95.712c-.779 0-1.41-.616-1.41-1.375 0-.705.544-1.286 1.246-1.366l.164-.009h18.34v-1.375c0-.705-.545-1.286-1.247-1.366l-.164-.009h-59.25c-.724 0-1.32.531-1.401 1.215l-.01.16v1.375h9.875c.78 0 1.41.616 1.41 1.375 0 .705-.544 1.286-1.245 1.366l-.165.009H44.927c-.78 0-1.411-.616-1.411-1.375 0-.705.544-1.286 1.246-1.366l.165-.009h4.232v-1.375c0-2.197 1.762-3.993 3.983-4.118l.249-.007h12.696v-1.375c0-2.183 1.695-3.992 3.862-4.118l.242-.007h11.414v-6.875c0-.76.632-1.375 1.41-1.375zm0-3a1.5 1.5 0 100-3 1.5 1.5 0 000 3z" fill="#000091"/></svg>
