<svg width="232" height="172" viewBox="0 0 232 172" fill="none" xmlns="http://www.w3.org/2000/svg"><rect width="55" height="20" transform="translate(20 20)" fill="white"/><path d="M37.7649 37.5888C37.7716 37.5888 37.7782 37.579 37.7782 37.579C37.8313 37.5397 37.8844 37.4907 37.9309 37.4319C37.9243 37.4319 37.9176 37.4319 37.911 37.4221C37.8645 37.4711 37.8114 37.5299 37.7649 37.5888Z" fill="#000091"/><path d="M45.1222 35.1098L45.006 35.2098C45.0724 35.1932 45.1222 35.1765 45.1222 35.1098Z" fill="#000091"/><path fill-rule="evenodd" clip-rule="evenodd" d="M42.7435 37.6421C42.9566 37.4277 43.1697 37.2004 43.3828 36.9665H43.3764C43.7767 36.5119 44.1642 36.0766 44.6291 35.6804C44.7712 35.5505 44.9068 35.4401 45.0359 35.3491C45.0549 35.3301 45.0646 35.3016 45.0741 35.2738C45.084 35.2447 45.0937 35.2163 45.1134 35.1997C45.0214 35.2349 44.948 35.2904 44.8743 35.3463C44.7979 35.4041 44.7211 35.4622 44.6227 35.4985C44.5839 35.4985 44.5452 35.4596 44.5839 35.4206C44.7195 35.3232 44.8551 35.2192 44.9843 35.1153H44.9585C44.9197 35.1153 44.9197 35.0763 44.9197 35.0374C44.439 34.961 44.0698 35.2898 43.7392 35.5841L43.7186 35.6025C43.6671 35.6283 43.6185 35.6027 43.5803 35.5825C43.561 35.5723 43.5444 35.5635 43.5313 35.5635C43.2389 35.6615 42.9867 35.8423 42.7329 36.0243C42.499 36.1919 42.2638 36.3605 41.9944 36.4664V36.3884C41.903 36.42 41.8126 36.4611 41.7219 36.5023C41.5886 36.563 41.4548 36.6238 41.3164 36.6548C41.0637 36.7134 40.8292 36.7059 40.602 36.6985C40.5274 36.6961 40.4535 36.6937 40.38 36.6937C39.9665 36.7347 39.5581 36.8233 39.1503 36.9118L39.0175 36.9406C39.011 36.9438 39.0046 36.9454 38.9981 36.9471C38.9917 36.9487 38.9852 36.9503 38.9788 36.9536C38.7334 37.0185 38.5074 37.1095 38.2813 37.2394L38.2555 37.2524C38.2466 37.2643 38.2378 37.2748 38.2295 37.2846C38.2197 37.2962 38.2108 37.3068 38.2038 37.3173C38.1264 37.4083 38.0553 37.4862 37.9455 37.5447C37.7834 37.6262 37.6433 37.752 37.5054 37.8757C37.4457 37.9293 37.3861 37.9827 37.3256 38.0318C37.3127 38.0448 37.2869 38.0513 37.2675 38.0513C37.0673 38.2462 36.8671 38.4411 36.6605 38.6294C36.6476 38.6424 36.5895 38.6489 36.5443 38.6424C36.5443 38.6424 36.5507 38.6424 36.5507 38.6359L36.5701 38.5969L36.667 38.4411C36.6863 38.4118 36.7041 38.3826 36.7218 38.3534C36.7396 38.3241 36.7574 38.2949 36.7767 38.2657C36.8283 38.1878 36.8801 38.1097 36.9382 38.0383C36.9511 38.0188 36.9511 37.9994 36.9382 37.9864C36.9253 37.9734 36.9059 37.9669 36.8865 37.9669C37.0738 37.785 37.2933 37.6291 37.5193 37.4927V37.4862C37.4935 37.4927 37.4548 37.4732 37.4741 37.4472C37.4931 37.4234 37.5086 37.3961 37.5231 37.3704L37.5387 37.3433C37.5419 37.3368 37.5436 37.3319 37.5452 37.3271C37.5468 37.3222 37.5484 37.3173 37.5516 37.3108C37.5484 37.3043 37.5436 37.2994 37.5387 37.2946C37.5339 37.2897 37.529 37.2848 37.5258 37.2783L37.4866 37.3042C37.4398 37.3348 37.3917 37.3663 37.3515 37.4018C37.3229 37.4263 37.2963 37.46 37.2691 37.4945C37.2098 37.5694 37.1472 37.6486 37.0544 37.6486C37.0479 37.6486 37.0157 37.6486 36.9963 37.6421C36.9769 37.6421 36.964 37.6356 36.9575 37.6291C36.9575 37.6259 36.9575 37.6242 36.9583 37.6234C36.9592 37.6226 36.9608 37.6226 36.964 37.6226C36.964 37.6226 36.9705 37.6161 36.9705 37.6096C36.9705 37.6096 36.9705 37.6031 36.9769 37.6031C36.9801 37.5966 36.9834 37.5918 36.9866 37.5869C36.9898 37.582 36.9931 37.5771 36.9963 37.5706C36.9995 37.5641 37.0027 37.5593 37.006 37.5544C37.0092 37.5495 37.0124 37.5447 37.0157 37.5382C37.0189 37.5349 37.0205 37.53 37.0221 37.5252C37.0237 37.5203 37.0253 37.5154 37.0286 37.5122L37.0359 37.4988C37.0423 37.4874 37.0499 37.4738 37.0544 37.4602C37.0576 37.4537 37.0609 37.4489 37.0641 37.444C37.0673 37.4391 37.0706 37.4342 37.0738 37.4277C37.0835 37.4147 37.0915 37.4001 37.0996 37.3855C37.1077 37.3709 37.1158 37.3563 37.1254 37.3433C37.1319 37.3303 37.1384 37.3173 37.1513 37.3043C37.1577 37.2913 37.1642 37.28 37.1706 37.2686C37.1771 37.2572 37.1836 37.2459 37.19 37.2329C37.2094 37.2004 37.19 37.1744 37.1642 37.1679C37.2352 37.077 37.3192 36.999 37.4225 36.9406H37.4096C37.4987 36.8957 37.5904 36.8432 37.6815 36.7911C37.7352 36.7603 37.7896 36.7291 37.8422 36.7002C37.8616 36.6807 37.881 36.6613 37.9068 36.6483C37.6937 36.7197 37.5 36.8172 37.3127 36.9471C37.3127 36.9471 37.261 36.9665 37.2481 36.9795C37.2481 36.9795 37.2094 36.9925 37.1577 36.9471C37.1513 36.9406 37.1513 36.9341 37.1513 36.9211C37.1737 36.8759 37.22 36.846 37.27 36.8137C37.3064 36.7902 37.3447 36.7655 37.3773 36.7327C37.416 36.7327 37.4483 36.7327 37.4483 36.7717C38.192 36.1885 39.1091 36.0536 40.0292 35.9182C40.5951 35.8349 41.1622 35.7515 41.6909 35.5635C41.7458 35.5245 41.8023 35.4872 41.8588 35.4498C41.9153 35.4125 41.9718 35.3751 42.0267 35.3361C42.1209 35.2969 42.2053 35.2298 42.2947 35.1587C42.383 35.0884 42.4762 35.0143 42.5885 34.9594C42.8856 34.7321 43.1116 34.4722 43.2278 34.089C43.2278 34.05 43.1891 34.011 43.1891 34.011C42.6983 34.5372 42.1365 34.9529 41.5359 35.2582C40.9633 35.5604 40.3497 35.6052 39.7423 35.6495C39.5141 35.6661 39.2867 35.6827 39.0627 35.7129C39.1014 35.6349 39.1789 35.6349 39.25 35.6349C39.25 35.5427 39.2942 35.503 39.3509 35.4521C39.366 35.4385 39.3821 35.424 39.3985 35.4076H39.5083C39.5276 35.4076 39.5373 35.3881 39.547 35.3686C39.5567 35.3491 39.5664 35.3297 39.5858 35.3297C39.6633 35.3297 39.773 35.2907 39.7343 35.2907C39.6751 35.2145 39.589 35.2447 39.494 35.2779C39.4027 35.3099 39.3031 35.3448 39.2112 35.2907C39.2454 35.2532 39.2556 35.2082 39.265 35.1673C39.2751 35.1231 39.2841 35.0836 39.321 35.0633H39.4695C39.4695 34.9854 39.547 34.9139 39.547 34.9139C39.8838 34.7114 40.209 34.5346 40.5281 34.3611C40.7413 34.2452 40.952 34.1307 41.1614 34.011C41.119 34.011 41.0815 34.0285 41.045 34.0454C40.987 34.0723 40.9318 34.0979 40.8644 34.05C40.9031 34.05 40.9031 34.0224 40.9031 33.9948C40.9031 33.9672 40.9031 33.9396 40.9419 33.9396C41.1841 33.8749 41.3997 33.77 41.62 33.6628C41.7754 33.5872 41.9332 33.5104 42.1042 33.4459C42.0534 33.4459 42.0065 33.4596 41.9607 33.4729C41.8725 33.4985 41.7887 33.5229 41.6909 33.4459C41.7166 33.433 41.7373 33.4166 41.7577 33.4003C41.799 33.3675 41.8392 33.3355 41.9169 33.3355V33.2251C41.9169 33.1861 41.9557 33.1861 41.9944 33.1861C41.9557 33.1861 41.9169 33.1471 41.9169 33.1471C41.9375 33.1059 41.9779 33.0974 42.0229 33.0879C42.0629 33.0795 42.1065 33.0703 42.143 33.0367C42.1042 33.0367 42.0332 33.0367 42.0332 32.9977C42.143 32.8483 42.3302 32.8094 42.5175 32.7704C42.4981 32.7314 42.461 32.7314 42.4287 32.7314C42.3964 32.7314 42.369 32.7314 42.369 32.6924C42.369 32.6535 42.4077 32.6535 42.4465 32.6535H42.369C42.3082 32.6229 42.3189 32.5683 42.3264 32.5305C42.3284 32.5202 42.3302 32.5111 42.3302 32.5041C42.4819 32.3253 42.5318 32.1144 42.5814 31.9046C42.6057 31.8019 42.6299 31.6994 42.666 31.6012C42.6273 31.6012 42.5885 31.6012 42.5885 31.5622C42.2254 31.9652 41.6499 32.1179 41.1032 32.263L41.0516 32.2767H40.8644C40.6771 32.3547 40.4123 32.3547 40.2251 32.2377C40.136 32.191 40.0725 32.1326 40.0039 32.0695C39.9581 32.0274 39.91 31.9832 39.8505 31.9389C39.547 31.7506 39.25 31.6012 38.9142 31.4842C37.9778 31.1855 37.0027 31.0296 36.0277 31.0685C36.2999 30.9187 36.5891 30.8592 36.8821 30.7988C37.0338 30.7676 37.1865 30.7361 37.3385 30.6918C37.4344 30.6635 37.5294 30.6344 37.6239 30.6054C38.1595 30.4412 38.6791 30.2819 39.25 30.315C39.1753 30.2885 39.0796 30.2981 38.9915 30.3069C38.9502 30.3111 38.9105 30.315 38.8754 30.315C38.4438 30.2829 38.0078 30.379 37.5528 30.4793C37.4564 30.5005 37.3592 30.5219 37.261 30.5424C37.0829 30.5795 36.9134 30.6327 36.7438 30.6861C36.5568 30.7448 36.3695 30.8037 36.1697 30.8412C36.0831 30.8711 36.0135 30.9219 35.9458 30.9715C35.8368 31.0512 35.7324 31.1275 35.5692 31.1075V30.9906C35.9437 30.5359 36.3957 30.0877 36.9963 30.0487C37.5768 29.9542 38.1242 30.0215 38.6952 30.0918C38.7911 30.1036 38.8877 30.1155 38.9852 30.1267C39.4533 30.1643 39.8912 30.2687 40.3632 30.3813L40.4123 30.393C40.5157 30.393 40.5738 30.4839 40.63 30.572C40.6758 30.6436 40.7203 30.7133 40.7869 30.7308C40.8788 30.7625 40.9707 30.7684 41.0627 30.7743C41.1968 30.7829 41.3308 30.7915 41.4649 30.8802C41.4649 30.8539 41.4605 30.8284 41.4562 30.8032C41.4476 30.7534 41.4392 30.7045 41.4649 30.6528C41.5482 30.569 41.6437 30.5915 41.7378 30.6136C41.8114 30.6309 41.884 30.6481 41.9492 30.6138C42.154 30.4867 41.9619 30.2916 41.7697 30.0964C41.677 30.0022 41.5843 29.908 41.5359 29.8214C41.5359 29.7824 41.5747 29.7434 41.5747 29.7434C41.6595 29.8195 41.7385 29.8981 41.8168 29.9761C42.0129 30.1713 42.2047 30.3623 42.4723 30.4969C42.6596 30.5749 43.1116 30.6853 43.0341 30.4579C42.9015 30.1635 42.6749 29.9082 42.4461 29.6504C42.3519 29.5442 42.2573 29.4376 42.1688 29.3277V29.1783C42.1099 29.1783 42.0958 29.1558 42.0782 29.1279C42.0727 29.1191 42.0668 29.1097 42.059 29.1004V28.951C41.9643 28.9013 41.9431 28.8226 41.9218 28.7434C41.9097 28.6984 41.8975 28.6532 41.8717 28.6132C41.807 28.5083 41.8024 28.3792 41.7976 28.2462C41.7937 28.1403 41.7898 28.0319 41.7555 27.9311C41.678 27.7038 41.6457 27.5154 41.607 27.2881C41.5649 27.0555 41.5187 26.8331 41.4734 26.6154C41.3934 26.2311 41.3165 25.8614 41.2712 25.4758C41.2114 24.9247 41.4897 24.4586 41.7742 23.9821C41.8586 23.8408 41.9435 23.6987 42.0203 23.5531C42.285 23.0984 42.5821 22.6502 43.0728 22.3449C43.1799 21.9014 43.4713 21.5321 43.7612 21.1646L43.7832 21.1367C44.0693 20.7801 44.5471 20.5621 44.8993 20.4014L44.9391 20.3832C45.4621 20.1494 45.9335 20 45.94 20H20V40H38.404C38.8962 39.6432 39.3854 39.418 39.9677 39.15C40.2334 39.0278 40.5185 38.8966 40.8321 38.7399C40.8985 38.7065 40.9774 38.6676 41.065 38.6245C41.5906 38.3659 42.428 37.9539 42.7435 37.6421ZM36.9037 34.9438C36.8307 34.9511 36.7533 34.9589 36.7825 34.9002C36.8096 34.7688 36.9442 34.7293 37.0757 34.6909C37.132 34.6744 37.1877 34.6581 37.2341 34.6348L37.2554 34.6238L37.2709 34.6156C37.3437 34.5769 37.4328 34.5295 37.4986 34.5571C37.543 34.6202 37.598 34.6365 37.6514 34.6523C37.6912 34.6641 37.7301 34.6756 37.7631 34.706C37.6236 34.8461 37.4607 34.8599 37.2955 34.8739C37.1858 34.8832 37.0752 34.8926 36.9696 34.9391C36.9506 34.9391 36.9274 34.9414 36.9037 34.9438ZM31.1906 34.0304C31.1906 34.0693 31.2293 34.1083 31.2293 34.1083C32.1334 33.0885 32.9535 32.2181 34.1159 31.4971C34.147 31.484 34.1354 31.5003 34.12 31.5219C34.0971 31.5542 34.0657 31.5983 34.1546 31.575C34.5394 31.4873 34.7123 31.1576 34.8804 30.8369C34.9239 30.7539 34.967 30.6716 35.0135 30.5942C35.1898 30.3073 35.4403 30.1236 35.6927 29.9384C35.8747 29.8049 36.0577 29.6706 36.2146 29.4964C36.2146 29.5354 36.2146 29.5744 36.1758 29.6133C36.2146 29.6523 36.2533 29.6523 36.2921 29.6523C36.3602 29.6009 36.4346 29.5796 36.5058 29.5592C36.5967 29.5333 36.6826 29.5087 36.7441 29.425C36.4471 29.308 36.0661 29.2691 35.769 29.386C34.9812 29.7627 34.3096 30.3668 33.6703 31.0489C33.2828 31.4581 32.8825 31.8413 32.3917 32.1076C32.0559 32.7832 31.6814 33.3873 31.1906 34.0304ZM34.3432 31.6145C34.3229 31.6552 34.3027 31.6763 34.2834 31.6965C34.2658 31.7149 34.2489 31.7326 34.2335 31.7635C34.1948 31.8411 34.1561 31.8735 34.0851 31.9124C34.0464 31.9124 34.0077 31.9124 34.0077 31.8735C34.0464 31.7246 34.1561 31.5757 34.3045 31.5368C34.3432 31.5433 34.3432 31.5822 34.3432 31.6145ZM35.9945 37.3831C36.0267 37.3506 36.0654 37.3116 36.0848 37.2726C36.1171 37.1947 35.9171 37.2142 35.8848 37.2337C35.8555 37.2572 35.8369 37.2808 35.8144 37.3093L35.8074 37.3181C35.7805 37.3491 35.749 37.3777 35.717 37.4068C35.6953 37.4266 35.6734 37.4465 35.6526 37.4675C35.5622 37.5585 35.4719 37.6494 35.3751 37.7338C35.3106 37.7923 35.5171 37.8183 35.5622 37.7793C35.6138 37.7403 35.659 37.6949 35.7042 37.6494C35.7214 37.6494 35.7386 37.6465 35.75 37.6446L35.7579 37.6433L35.7622 37.6429C35.8692 37.607 35.9488 37.5325 36.0262 37.4601L36.0461 37.4415C36.0719 37.4155 36.0396 37.3896 35.9945 37.3831ZM35.4106 36.9607C35.4099 36.9608 35.4094 36.961 35.409 36.9613C35.4082 36.9621 35.4082 36.9638 35.4082 36.967C35.3686 36.9942 35.3295 37.0219 35.2905 37.0495C35.1895 37.1209 35.0891 37.1919 34.982 37.2528C34.8796 37.3105 34.7746 37.3604 34.6686 37.4107C34.6075 37.4397 34.5462 37.4688 34.4848 37.4997C34.4848 37.4997 34.4848 37.4932 34.4783 37.4932C34.4654 37.4737 34.4396 37.4672 34.4138 37.4802C34.2717 37.5581 34.149 37.6621 34.0392 37.7725C34.0199 37.7855 34.0005 37.805 33.9876 37.8244L33.9294 37.8829V37.8894C33.9036 37.9154 33.8778 37.9414 33.8455 37.9803C33.8388 37.9871 33.8336 37.9938 33.8287 38.0003C33.8193 38.0125 33.8107 38.0238 33.7938 38.0323C33.768 38.0453 33.7034 38.0453 33.7099 38.0063V37.9998C33.6905 38.0128 33.6647 38.0258 33.6453 38.0323C33.6356 38.0388 33.6259 38.0437 33.6163 38.0485C33.6066 38.0534 33.5969 38.0583 33.5872 38.0648C33.5807 38.0583 33.5678 38.0583 33.5614 38.0583C33.5549 38.0583 33.542 38.0583 33.5355 38.0648C33.5205 38.0778 33.5054 38.09 33.4903 38.1023C33.4602 38.1269 33.4301 38.1514 33.3999 38.1817C33.3224 38.2532 33.2514 38.3311 33.1804 38.4155C33.1804 38.4155 33.1804 38.422 33.1739 38.422C33.1739 38.4253 33.1723 38.4269 33.1707 38.4285C33.1691 38.4302 33.1675 38.4318 33.1675 38.435L33.1545 38.448C33.1521 38.4505 33.1505 38.453 33.1492 38.4551C33.1471 38.4585 33.1456 38.461 33.1416 38.461L33.1352 38.4675C33.1287 38.4805 33.1223 38.4935 33.1093 38.5065C33.1029 38.513 33.09 38.5195 33.0771 38.5195C33.0706 38.513 33.0641 38.5065 33.0641 38.5C33.0609 38.4967 33.0593 38.4935 33.0577 38.4902C33.0561 38.487 33.0544 38.4837 33.0512 38.4805C33.0448 38.4708 33.0399 38.461 33.0351 38.4513C33.0302 38.4415 33.0254 38.4318 33.0189 38.422V38.4155C33.0189 38.4123 33.0173 38.409 33.0157 38.4058C33.0141 38.4026 33.0125 38.3993 33.0125 38.3961L33.1287 38.2596L33.1352 38.2532C33.1416 38.2467 33.1481 38.2386 33.1545 38.2304C33.161 38.2223 33.1675 38.2142 33.1739 38.2077C33.1836 38.1947 33.1949 38.1817 33.2062 38.1687C33.2175 38.1557 33.2288 38.1427 33.2385 38.1297C33.2417 38.1232 33.2449 38.1184 33.2482 38.1135C33.2514 38.1086 33.2546 38.1038 33.2579 38.0973C33.2966 38.0453 33.3354 37.9933 33.3741 37.9349V37.9284C33.3806 37.9219 33.387 37.9154 33.387 37.9024C33.4064 37.8764 33.4258 37.8504 33.4387 37.8244L33.4774 37.7465V37.74L33.4839 37.7335C33.4839 37.7303 33.4855 37.7286 33.4871 37.727C33.4887 37.7254 33.4903 37.7238 33.4903 37.7205C33.4968 37.7043 33.5032 37.6897 33.5097 37.6751C33.5161 37.6605 33.5226 37.6458 33.5291 37.6296V37.6231L33.5355 37.5971C33.5388 37.5906 33.5404 37.5841 33.542 37.5776C33.5436 37.5711 33.5452 37.5646 33.5485 37.5581V37.5516C33.5517 37.5419 33.5533 37.5321 33.5549 37.5224C33.5565 37.5127 33.5581 37.5029 33.5614 37.4932C33.5614 37.4867 33.5614 37.4737 33.5549 37.4672C33.5937 37.3957 33.6453 37.3308 33.7034 37.2658C33.7002 37.2658 33.697 37.2674 33.6937 37.2691C33.6919 37.27 33.69 37.2709 33.6882 37.2716C33.6868 37.272 33.6854 37.2723 33.6841 37.2723C33.6553 37.2904 33.6306 37.3145 33.6054 37.339C33.5853 37.3586 33.5649 37.3784 33.542 37.3957C33.5032 37.4282 33.4258 37.3762 33.4774 37.3373C33.5097 37.3113 33.5355 37.2853 33.5613 37.2593C33.5613 37.2593 33.5614 37.2528 33.5678 37.2528C33.5936 37.2295 33.6183 37.2031 33.6432 37.1765C33.6808 37.1364 33.7188 37.0957 33.7615 37.0645C33.8068 37.032 33.839 37.006 33.8778 36.9735C33.8842 36.967 33.8907 36.9605 33.8972 36.9605C33.923 36.928 33.9488 36.8956 33.9811 36.8631C33.9811 36.8631 33.9876 36.8631 33.9876 36.8566C34.2093 36.6415 34.5209 36.5656 34.839 36.4882C35.0396 36.4394 35.2428 36.3899 35.4276 36.3045C35.532 36.261 35.6484 36.2781 35.7635 36.295C35.8548 36.3084 35.9453 36.3217 36.0282 36.3045C36.1379 36.3045 36.2542 36.3045 36.3639 36.3824C36.1086 36.5184 35.8649 36.6739 35.6238 36.8277C35.554 36.8723 35.4843 36.9168 35.4147 36.9605C35.4129 36.9605 35.4116 36.9605 35.4106 36.9607ZM36.2176 34.3132C36.1874 34.3167 36.1678 34.3189 36.1846 34.3358C36.2943 34.4463 36.5204 34.4073 36.6753 34.3228C36.7851 34.2449 36.9014 34.2449 37.0499 34.2449C37.0886 34.2449 37.0886 34.1734 37.0886 34.1345C37.1984 34.1734 37.2759 34.1734 37.3857 34.1734C38.2833 33.9851 39.1486 33.7967 39.9751 33.381C39.1388 32.7347 38.1077 32.4468 37.0978 32.1649C36.9302 32.1181 36.7632 32.0715 36.5978 32.0234C36.6342 32.0234 36.6706 32.0355 36.7072 32.0477C36.781 32.0723 36.8559 32.0973 36.9336 32.0234C36.8312 31.9417 36.7171 31.926 36.6041 31.9106C36.5106 31.8977 36.4179 31.885 36.3331 31.835C36.3419 31.835 36.3525 31.8371 36.3639 31.8393C36.4026 31.8467 36.4517 31.8562 36.4816 31.7961C36.2855 31.6974 36.0893 31.6639 35.8913 31.6301C35.7894 31.6127 35.6871 31.5952 35.584 31.5687C35.7713 31.5297 35.8875 31.3803 35.8875 31.192C35.8875 31.153 35.81 31.153 35.7713 31.153C35.3257 31.3803 35.0222 31.7961 34.8349 32.2832C35.0038 32.3826 35.1857 32.3711 35.3641 32.3598C35.4654 32.3534 35.5656 32.347 35.6615 32.3612C35.5768 32.4416 35.4545 32.4635 35.3368 32.4845C35.293 32.4923 35.2498 32.5 35.2095 32.5106C35.0932 32.5366 34.9835 32.621 35.0222 32.6989C35.048 32.7314 35.0739 32.7444 35.1062 32.7509C35.0222 32.7769 34.9447 32.8159 34.8737 32.8873C34.98 32.971 35.0896 32.9549 35.1978 32.9389C35.2408 32.9326 35.2835 32.9263 35.3257 32.9263C35.3257 32.9735 35.3567 32.9895 35.3889 33.0062C35.4054 33.0147 35.4223 33.0235 35.4355 33.0367C35.2482 33.1082 35.0997 33.2641 35.0609 33.3745C35.0147 33.487 34.9292 33.5601 34.8445 33.6326C34.7874 33.6815 34.7306 33.73 34.6864 33.7902V33.9071C34.5617 34.0177 34.4334 34.1165 34.307 34.2139C34.0472 34.414 33.7949 34.6084 33.5951 34.888C33.6338 34.888 33.6338 34.9269 33.6338 34.9659C33.5981 35.0198 33.5473 35.0572 33.4991 35.0926C33.4427 35.134 33.3899 35.1727 33.3691 35.2322C33.3691 35.2712 33.3691 35.3102 33.4078 35.3102C33.6448 35.2319 33.8498 35.1 34.0508 34.9707C34.2332 34.8534 34.4123 34.7382 34.6089 34.6671C34.7696 34.6285 34.9095 34.5556 35.046 34.4845C35.1618 34.4242 35.2752 34.3651 35.3967 34.3293C35.4904 34.3099 35.5937 34.2823 35.697 34.2546C35.8003 34.227 35.9037 34.1994 35.9973 34.1799C35.9973 34.2189 35.9973 34.2579 36.036 34.2579H36.3331C36.3148 34.3021 36.2571 34.3087 36.2176 34.3132Z" fill="#000091"/><path d="M75 20H53.4884C53.4884 20 53.5274 20.0065 53.69 20.091C53.8656 20.1821 54.0932 20.3056 54.2297 20.3771C54.5094 20.5202 54.776 20.7022 54.9516 20.9818C55.0296 21.0923 55.1401 21.3199 55.0686 21.4694C54.9906 21.658 54.9516 21.9636 54.763 22.0351C54.5354 22.1521 54.2362 22.1521 53.9696 22.1131C53.8201 22.1131 53.6705 22.0741 53.5144 22.0351C54.0802 22.2627 54.6134 22.5293 54.9906 23.0559C55.0296 23.1339 55.1792 23.1665 55.3287 23.1665C55.3677 23.1665 55.3677 23.2445 55.3677 23.277C55.2897 23.355 55.2182 23.394 55.2572 23.5046H55.3677C55.5563 23.4265 55.5173 23.0494 55.7839 23.1665C55.9725 23.277 56.0505 23.5436 55.9335 23.7321C55.7839 23.8817 55.6344 23.9987 55.4783 24.1092C55.4393 24.1873 55.4393 24.2978 55.4783 24.3758C55.5888 24.5254 55.6279 24.6749 55.6669 24.8309C55.7839 25.0975 55.8164 25.3966 55.9335 25.6632C56.0831 26.2289 56.2326 26.7945 56.2001 27.3667C56.2001 27.6658 56.0505 27.9324 56.1611 28.238C56.2391 28.5371 56.4277 28.7646 56.5773 29.0312C56.7268 29.2588 56.8764 29.4083 56.9935 29.6359C57.2211 30.013 57.6373 30.3901 57.4487 30.8453C57.3381 31.1118 56.9219 31.0728 56.6553 31.2224C56.4277 31.4109 56.6163 31.7165 56.7334 31.9051C56.9219 32.2432 56.5057 32.4707 56.2391 32.5878C56.3172 32.7048 56.4667 32.6658 56.5057 32.7373C56.5448 32.9259 56.7334 33.0364 56.6163 33.2315C56.4667 33.459 56.0115 33.5696 56.2391 33.9142C56.3887 34.1808 56.2912 34.4733 56.2001 34.7464C56.0896 35.0845 55.7839 35.2341 55.5173 35.3121C55.2897 35.3901 55.0231 35.3901 54.802 35.3511C54.724 35.3121 54.6524 35.2731 54.5744 35.2731C53.9306 35.1951 53.2868 35.013 52.6495 35.013C52.461 35.052 52.2724 35.0845 52.1228 35.1625C51.9537 35.2861 51.7977 35.4226 51.6676 35.5657C51.6676 35.5657 51.6676 35.5657 51.6611 35.5722C51.6351 35.6047 51.6026 35.6307 51.5766 35.6632C51.5636 35.6827 51.544 35.7022 51.531 35.7217C51.518 35.7347 51.5115 35.7477 51.4985 35.7607C51.388 35.8973 51.2904 36.0468 51.1994 36.1964C51.1929 36.2094 51.1864 36.2159 51.1799 36.2224C51.1734 36.2419 51.1604 36.2549 51.1474 36.2744C51.0238 36.5019 50.9328 36.736 50.8612 36.9701C50.6011 37.8349 50.7182 38.5761 50.9003 38.7581C50.9523 38.8101 52.1488 39.1808 52.9812 39.5514C53.3714 39.7269 53.6445 39.857 53.8721 40H74.9935V20H75Z" fill="#E1000F"/><path d="M54.7665 27.2945C54.9161 27.3335 55.1437 27.3335 55.1437 27.4114C55.0657 27.7101 54.6169 27.788 54.3892 28.0932H54.2722C54.1616 28.1712 54.1941 28.3595 54.0835 28.3595C53.973 28.3205 53.8559 28.3595 53.7453 28.3984C53.8949 28.5478 54.0835 28.6647 54.3112 28.6257C54.3502 28.6257 54.4218 28.7036 54.4218 28.775C54.4218 28.775 54.4608 28.775 54.4998 28.7361C54.5388 28.7361 54.5779 28.7361 54.5779 28.775V28.9244C54.4673 29.0737 54.2722 29.0023 54.1226 29.0348C54.4283 29.1127 54.7275 29.1127 54.9941 29.0348C55.2218 28.9569 54.9941 28.5802 55.1437 28.3919C55.0657 28.3919 55.1437 28.2751 55.0657 28.2751C55.1437 28.1971 55.2153 28.0867 55.2933 28.0478C55.3714 28.0478 55.4819 28.0088 55.521 27.9309C55.521 27.853 55.3714 27.8205 55.4039 27.7426C55.6315 27.5932 55.8202 27.366 55.7421 27.1387C55.7031 27.0218 55.4039 27.0218 55.2153 26.9504C55.0267 26.879 54.799 26.9504 54.5714 26.9893C54.3827 26.9893 54.1941 27.1062 54.0055 27.1387C53.7388 27.2166 53.5112 27.366 53.29 27.5153C53.5567 27.4049 53.8169 27.366 54.1226 27.288C54.3502 27.2945 54.5388 27.2426 54.7665 27.2945Z" fill="#808080"/><path d="M22.06 65V51H25.6L29.02 56.88L32.44 51H35.98V65H33.14V54.96L30.02 60.2H28.02L24.9 54.96V65H22.06ZM40.1873 65V51H43.0273V65H40.1873ZM47.2405 65V51H50.8805L57.1405 61.12V51H59.9805V65H56.3405L50.0805 54.88V65H47.2405ZM64.1959 65V51H67.0359V65H64.1959ZM69.9891 63.06L72.0491 61.16C72.8891 62.24 74.0091 62.88 75.1491 62.88C76.2691 62.88 76.9491 62.28 76.9491 61.28C76.9491 58.7 70.5891 59.4 70.5891 54.66C70.5891 52.44 72.4291 50.6 75.1091 50.6C77.2091 50.6 78.8091 51.54 80.0091 52.96L77.9291 54.84C77.1091 53.78 76.1891 53.08 75.1291 53.08C74.1291 53.08 73.4691 53.72 73.4691 54.56C73.4691 57.1 79.8291 56.38 79.8291 61.18C79.7891 63.82 77.7491 65.4 75.1691 65.4C72.8091 65.4 71.2291 64.54 69.9891 63.06ZM81.5692 53.58V51H93.0492V53.58H88.7292V65H85.8892V53.58H81.5692ZM98.6636 49.8L96.0836 47.1H99.0036L101.264 49.8H98.6636ZM95.8436 65V51H104.004V53.36H98.6836V56.68H103.204V59.04H98.6836V62.64H104.004V65H95.8436ZM107.604 65V51H111.884C114.964 51 116.864 52.58 116.864 55.18C116.864 56.88 116.044 58.14 114.604 58.8L118.984 65H115.644L111.904 59.34H110.444V65H107.604ZM112.044 53.36H110.444V56.98H112.044C113.244 56.98 113.944 56.28 113.944 55.14C113.944 54.08 113.244 53.36 112.044 53.36ZM121.083 65V51H129.243V53.36H123.923V56.68H128.443V59.04H123.923V62.64H129.243V65H121.083ZM22.06 86V72H27.56C32 72 35 75.22 35 79C35 82.78 32 86 27.56 86H22.06ZM27.6 74.58H24.9V83.42H27.6C30.2 83.42 32.08 81.48 32.08 79C32.08 76.5 30.2 74.58 27.6 74.58ZM38.0389 86V72H46.1989V74.36H40.8789V77.68H45.3989V80.04H40.8789V83.64H46.1989V86H38.0389ZM55.2897 86V72H58.1297V83.42H63.4497V86H55.2897ZM65.0945 86L70.3945 72H74.1145L79.4145 86H76.3945L75.0545 82.36H69.4545L68.1145 86H65.0945ZM70.3345 79.94H74.1745L72.2545 74.68L70.3345 79.94ZM85.927 74.58V72H97.407V74.58H93.087V86H90.247V74.58H85.927ZM100.201 86V72H104.481C107.561 72 109.461 73.58 109.461 76.18C109.461 77.88 108.641 79.14 107.201 79.8L111.581 86H108.241L104.501 80.34H103.041V86H100.201ZM104.641 74.36H103.041V77.98H104.641C105.841 77.98 106.541 77.28 106.541 76.14C106.541 75.08 105.841 74.36 104.641 74.36ZM112.526 86L117.826 72H121.546L126.846 86H123.826L122.486 82.36H116.886L115.546 86H112.526ZM117.766 79.94H121.606L119.686 74.68L117.766 79.94ZM129.308 86V72H132.948L139.208 82.12V72H142.048V86H138.408L132.148 75.88V86H129.308ZM145.003 84.06L147.063 82.16C147.903 83.24 149.023 83.88 150.163 83.88C151.283 83.88 151.963 83.28 151.963 82.28C151.963 79.7 145.603 80.4 145.603 75.66C145.603 73.44 147.443 71.6 150.123 71.6C152.223 71.6 153.823 72.54 155.023 73.96L152.943 75.84C152.123 74.78 151.203 74.08 150.143 74.08C149.143 74.08 148.483 74.72 148.483 75.56C148.483 78.1 154.843 77.38 154.843 82.18C154.803 84.82 152.763 86.4 150.183 86.4C147.823 86.4 146.243 85.54 145.003 84.06ZM158.121 86V72H160.961V86H158.121ZM163.734 74.58V72H175.214V74.58H170.894V86H168.054V74.58H163.734ZM178.008 86V72H180.848V86H178.008ZM191.302 71.6C195.702 71.6 198.722 75 198.722 79C198.722 83 195.702 86.4 191.302 86.4C186.882 86.4 183.862 83 183.862 79C183.862 75 186.882 71.6 191.302 71.6ZM191.302 83.74C193.922 83.74 195.802 81.68 195.802 79C195.802 76.32 193.922 74.26 191.302 74.26C188.662 74.26 186.782 76.32 186.782 79C186.782 81.68 188.662 83.74 191.302 83.74ZM201.744 86V72H205.384L211.644 82.12V72H214.484V86H210.844L204.584 75.88V86H201.744ZM27.4 91.8H24.82L27.08 89.1H30L27.4 91.8ZM22.06 107V93H30.22V95.36H24.9V98.68H29.42V101.04H24.9V104.64H30.22V107H22.06ZM39.7477 104.74C41.3477 104.74 42.6077 103.96 43.4077 102.82L45.6477 104.54C44.3677 106.28 42.2877 107.4 39.7477 107.4C35.3277 107.4 32.3077 104 32.3077 100C32.3077 96 35.3277 92.6 39.7477 92.6C42.2877 92.6 44.3677 93.74 45.6477 95.44L43.4077 97.18C42.6077 96.04 41.3477 95.26 39.7477 95.26C37.1077 95.26 35.2277 97.32 35.2277 100C35.2277 102.68 37.1077 104.74 39.7477 104.74ZM54.5547 92.6C58.9547 92.6 61.9747 96 61.9747 100C61.9747 104 58.9547 107.4 54.5547 107.4C50.1347 107.4 47.1147 104 47.1147 100C47.1147 96 50.1347 92.6 54.5547 92.6ZM54.5547 104.74C57.1747 104.74 59.0547 102.68 59.0547 100C59.0547 97.32 57.1747 95.26 54.5547 95.26C51.9147 95.26 50.0347 97.32 50.0347 100C50.0347 102.68 51.9147 104.74 54.5547 104.74ZM64.9967 107V93H67.8367V104.42H73.1567V107H64.9967ZM81.6883 92.6C86.0883 92.6 89.1083 96 89.1083 100C89.1083 104 86.0883 107.4 81.6883 107.4C77.2683 107.4 74.2483 104 74.2483 100C74.2483 96 77.2683 92.6 81.6883 92.6ZM81.6883 104.74C84.3083 104.74 86.1883 102.68 86.1883 100C86.1883 97.32 84.3083 95.26 81.6883 95.26C79.0483 95.26 77.1683 97.32 77.1683 100C77.1683 102.68 79.0483 104.74 81.6883 104.74ZM98.9219 104.74C100.242 104.74 101.382 104.28 102.182 103.52V101.08H98.6219V98.66H105.022V104.54C103.722 106.28 101.542 107.4 98.9219 107.4C94.3819 107.4 91.2819 104 91.2819 100C91.2819 96 94.3019 92.6 98.7219 92.6C101.262 92.6 103.342 93.74 104.622 95.44L102.382 97.18C101.582 96.04 100.322 95.26 98.7219 95.26C96.0819 95.26 94.2019 97.32 94.2019 100C94.2019 102.68 96.1819 104.74 98.9219 104.74ZM108.48 107V93H111.32V107H108.48ZM127.273 106.64C128.353 107.62 129.313 107.98 130.213 107.98C130.513 107.98 130.913 107.94 131.213 107.82V110.22C130.753 110.4 130.353 110.48 129.733 110.48C128.173 110.48 126.733 109.84 125.353 108.64L123.693 107.16C123.093 107.32 122.453 107.4 121.773 107.4C117.353 107.4 114.333 104 114.333 100C114.333 96 117.353 92.6 121.773 92.6C126.173 92.6 129.193 96 129.193 100C129.193 102.34 128.153 104.48 126.433 105.84L127.273 106.64ZM121.773 104.74C124.393 104.74 126.273 102.68 126.273 100C126.273 97.32 124.393 95.26 121.773 95.26C119.133 95.26 117.253 97.32 117.253 100C117.253 102.68 119.133 104.74 121.773 104.74ZM140.472 101.76V93H143.312V101.52C143.312 105.2 141.152 107.4 137.632 107.4C134.132 107.4 131.972 105.2 131.972 101.52V93H134.812V101.76C134.812 103.64 135.872 104.74 137.652 104.74C139.392 104.74 140.472 103.64 140.472 101.76ZM147.14 107V93H155.3V95.36H149.98V98.68H154.5V101.04H149.98V104.64H155.3V107H147.14Z" fill="white"/><path fill-rule="evenodd" clip-rule="evenodd" d="M71.96 142.7L70.1 144.4H69.62L70.72 142.46H71.96V142.7ZM70.62 149.279H70.22C69.72 149.879 69.16 150.359 68.62 150.359C68.06 150.359 67.78 150.019 67.78 149.279C67.78 148.979 67.82 148.659 67.88 148.379L71.14 147.299C71.78 145.779 71.02 145.119 70.12 145.119C68.58 145.119 66.82 147.819 66.82 149.979C66.82 150.999 67.3 151.559 68.06 151.559C68.94 151.539 69.86 150.679 70.62 149.279ZM69.5012 146C69.9412 146 70.3213 146.34 70.1213 147.12L68.1012 147.66C68.4212 146.7 69.0212 146 69.5012 146ZM63.1421 146.039H64.2221L62.5021 150.759C62.3421 151.159 62.5621 151.559 62.9821 151.559C64.2021 151.559 65.6621 150.519 66.2221 149.039H65.9221C65.4821 149.659 64.5221 150.339 63.8021 150.459L65.3821 146.039H67.0021L67.2021 145.359H65.6221L66.2221 143.659H65.6021L64.4821 145.359L63.1421 145.539V146.039ZM61.6409 145.14C61.8609 145.14 62.161 145.38 62.021 145.82L60.0809 150.52C60.5809 150.44 61.1009 149.96 61.4009 149.52H61.7209C61.2609 150.7 60.2209 151.56 59.3209 151.56C59.1009 151.56 58.7809 151.32 58.9409 150.88L60.7409 146.18C60.2409 146.26 59.7209 146.74 59.4209 147.18H59.1209C59.5809 145.98 60.7009 145.14 61.6409 145.14ZM62.2023 143.94C62.6023 143.94 62.9423 143.62 62.9423 143.2C62.9423 142.8 62.6023 142.46 62.2023 142.46C61.7823 142.46 61.4623 142.8 61.4623 143.2C61.4623 143.6 61.8023 143.94 62.2023 143.94ZM53.4619 147.84C53.9019 146.88 53.7419 146.44 53.4619 146.44C53.2219 146.44 52.9418 146.7 52.6618 147.18H52.3618C52.8218 146.16 53.4219 145.14 54.0819 145.14C54.6419 145.14 54.8419 145.7 54.8419 146.32V147.2C54.9319 147.096 55.0195 146.993 55.1051 146.892L55.1067 146.89L55.108 146.889C55.9529 145.897 56.5981 145.14 57.3419 145.14C57.9219 145.14 58.2219 145.5 58.2219 146.04C58.2219 146.36 58.1219 146.76 57.9019 147.18L56.2419 150.52C56.7419 150.44 57.2619 149.96 57.5619 149.52H57.8619C57.4019 150.72 56.2819 151.56 55.3419 151.56C54.9219 151.56 54.6819 151.12 54.8619 150.76L56.7819 147.06C57.0019 146.64 57.0419 146.36 56.7019 146.36C56.2419 146.36 55.1619 147.12 54.5819 147.82L53.3219 151.14C53.1819 151.48 53.0419 151.56 52.7218 151.56C52.2018 151.56 51.9418 151.22 52.1818 150.68L53.4619 147.84ZM52.1604 146.559C52.3804 145.799 52.2604 145.119 51.6803 145.119C50.957 145.119 50.7305 145.597 50.0296 147.075L49.9803 147.179V146.299C49.9803 145.679 49.7803 145.119 49.2203 145.119C48.5603 145.119 47.9603 146.139 47.5003 147.159H47.8003C48.1203 146.699 48.4203 146.419 48.6603 146.419C48.9403 146.419 49.1003 146.859 48.6603 147.819L47.3803 150.659C47.1403 151.199 47.4003 151.539 47.9203 151.539C48.2403 151.539 48.3803 151.459 48.5203 151.119L49.7803 147.799C50.1403 147.359 50.4603 146.979 50.8603 146.559H52.1604ZM45.8407 147.12C46.0407 146.34 45.6607 146 45.2207 146C44.7407 146 44.1407 146.7 43.8207 147.66L45.8407 147.12ZM46.3395 149.279H45.9395C45.4395 149.879 44.8795 150.359 44.3394 150.359C43.7794 150.359 43.4994 150.019 43.4994 149.279C43.4994 148.979 43.5394 148.659 43.5994 148.379L46.8595 147.299C47.4995 145.779 46.7395 145.119 45.8395 145.119C44.2994 145.119 42.5394 147.819 42.5394 149.979C42.5394 150.999 43.0194 151.559 43.7794 151.559C44.6595 151.539 45.5795 150.679 46.3395 149.279ZM39.9415 146.039H38.8615V145.539L40.2016 145.359L41.3216 143.659H41.9416L41.3416 145.359H42.9216L42.7216 146.039H41.1016L39.5215 150.459C40.2416 150.339 41.2016 149.659 41.6416 149.039H41.9416C41.3816 150.519 39.9215 151.559 38.7015 151.559C38.2815 151.559 38.0615 151.159 38.2215 150.759L39.9415 146.039ZM33.1424 149.699C33.1424 148.239 34.7625 146.28 35.6625 146.28C35.8625 146.28 36.0625 146.3 36.2225 146.36L35.2825 148.879C34.7425 149.539 33.9025 150.339 33.5024 150.339C33.2824 150.339 33.1424 150.139 33.1424 149.699ZM37.603 144.82L38.103 144.86L36.363 148.859C35.943 149.819 36.123 150.259 36.363 150.259C36.603 150.259 36.903 149.979 37.223 149.519H37.523C37.063 150.539 36.463 151.559 35.803 151.559C35.243 151.559 34.903 150.959 35.003 149.879L35.043 149.499L34.9341 149.652C34.2176 150.653 33.5693 151.559 32.9029 151.559C32.3229 151.559 32.0229 151.199 32.0229 150.659C32.0229 148.34 34.563 145.38 36.943 145.38H37.043L37.603 144.82ZM33.0217 146.559C33.2417 145.799 33.1217 145.119 32.5417 145.119C31.8183 145.119 31.5918 145.597 30.8909 147.075L30.8417 147.179V146.299C30.8417 145.679 30.6417 145.119 30.0816 145.119C29.4216 145.119 28.8216 146.139 28.3616 147.159H28.6616C28.9816 146.699 29.2816 146.419 29.5016 146.419C29.7816 146.419 29.9416 146.859 29.5016 147.819L28.2216 150.679C27.9816 151.219 28.2416 151.559 28.7616 151.559C29.0816 151.559 29.2216 151.479 29.3616 151.139L30.6217 147.819C30.9817 147.379 31.3017 146.999 31.7017 146.579H33.0217V146.559ZM24.7801 150.958L24.6601 151.318H20L20.12 150.938C21.56 150.678 21.8 150.558 22.4 148.938L23.7001 145.458C24.2801 143.838 24.1601 143.718 22.9 143.458L23.02 143.098H29.0801L28.7201 145.038H28.2801C28.2801 143.878 28.1601 143.578 27.0601 143.578H26.7801C25.7001 143.578 25.5601 143.738 25.2601 144.578L24.4001 146.918H25.6601C26.5001 146.918 26.8201 146.398 27.2001 145.718H27.6401L26.6001 148.558H26.1601C26.2601 147.698 26.2601 147.358 25.4801 147.358H24.2201L23.6401 148.958C23.0131 150.623 23.1923 150.657 24.6852 150.94C24.7163 150.946 24.7479 150.952 24.7801 150.958Z" fill="white"/><path fill-rule="evenodd" clip-rule="evenodd" d="M28.7397 127.4L26.8797 128.74V128.76H26.3997L27.4997 127.16H28.7397V127.4ZM41.7415 136.78L44.7214 128.86L44.6214 128.74L42.5615 128.98V129.22L42.9615 129.52C43.3029 129.785 43.2125 130.033 42.9292 130.809L42.8815 130.94L40.6015 137.02C40.4215 137.38 40.6615 137.82 41.0815 137.82C42.0215 137.82 43.0215 136.96 43.4815 135.78H43.1815C42.8615 136.22 42.2215 136.7 41.7415 136.78ZM55.4 130.68L57.26 128.98V128.74H56.02L54.92 130.68H55.4ZM55.5187 135.54H55.9187C55.1787 136.96 54.2587 137.82 53.3787 137.82C52.6187 137.82 52.1387 137.26 52.1387 136.24C52.1387 134.08 53.8987 131.38 55.4387 131.38C56.3187 131.38 57.0987 132.04 56.4587 133.56L53.1787 134.64C53.1187 134.92 53.0787 135.24 53.0787 135.54C53.0787 136.28 53.3587 136.62 53.9187 136.62C54.4587 136.62 55.0187 136.14 55.5187 135.54ZM55.4177 133.38C55.6177 132.62 55.2377 132.28 54.7977 132.28C54.3377 132.28 53.7377 132.98 53.3977 133.92L55.4177 133.38ZM49.5377 132.319H48.4577V131.819L49.7977 131.639L50.9177 129.939H51.5377L50.9377 131.639H52.5177L52.3177 132.319H50.6977L49.1177 136.739C49.8377 136.619 50.7977 135.939 51.2377 135.319H51.5377C50.9777 136.799 49.5177 137.839 48.2977 137.839C47.8777 137.839 47.6577 137.439 47.8177 137.039L49.5377 132.319ZM47.3376 132.079C47.4576 131.639 47.1776 131.399 46.9376 131.399C45.9976 131.399 44.8776 132.259 44.4176 133.439H44.7176C45.0176 132.999 45.5376 132.519 46.0376 132.439L44.2376 137.139C44.0776 137.579 44.3976 137.819 44.6176 137.819C45.5176 137.819 46.5576 136.959 47.0176 135.779H46.7176C46.4176 136.219 45.8976 136.699 45.3976 136.779L47.3376 132.079ZM48.2591 129.48C48.2591 129.88 47.9191 130.22 47.5191 130.22C47.1191 130.22 46.7791 129.88 46.7791 129.48C46.7791 129.08 47.0991 128.74 47.5191 128.74C47.9191 128.74 48.2591 129.08 48.2591 129.48ZM38.1612 132.56C37.2612 132.56 35.6412 134.52 35.6412 135.98C35.6412 136.42 35.7812 136.62 36.0212 136.62C36.4012 136.62 37.2412 135.82 37.7812 135.16L38.7212 132.64C38.5412 132.58 38.3612 132.56 38.1612 132.56ZM40.6017 131.14L40.1017 131.1L39.5417 131.66H39.4417C37.0617 131.66 34.5217 134.62 34.5217 136.94C34.5217 137.48 34.8217 137.84 35.4017 137.84C36.0681 137.84 36.7164 136.933 37.4328 135.932L37.5417 135.78L37.5017 136.16C37.4017 137.24 37.7417 137.84 38.3017 137.84C38.9617 137.84 39.5617 136.82 40.0217 135.8H39.7217C39.4017 136.26 39.1017 136.54 38.8617 136.54C38.6217 136.54 38.4417 136.1 38.8617 135.14L40.6017 131.14ZM30.5206 137.62C29.6606 137.96 29.0606 138.36 29.0606 138.98C29.0606 139.56 29.6006 139.8 30.7206 139.8C32.2206 139.8 33.0406 139.36 33.0406 138.78C33.0406 138.52 32.7006 138.4 31.8006 138.1C31.2206 137.92 30.8006 137.76 30.5206 137.62ZM31.5193 135.16C31.1193 135.16 30.9793 134.82 30.9793 134.46C30.9793 133.3 31.5393 131.86 32.4393 131.86C32.8393 131.86 32.9793 132.2 32.9793 132.56C32.9593 133.74 32.3993 135.16 31.5193 135.16ZM32.2813 137.04C33.3813 137.38 34.0613 137.64 34.0613 138.4C34.0613 139.38 32.2613 140.54 30.0813 140.52C28.8213 140.52 27.7413 140.18 27.7413 139.36C27.7413 138.58 28.4613 137.94 30.2213 137.42C29.9813 137.26 29.8813 137.06 29.8813 136.78C29.8813 136.3 30.3213 135.92 31.0813 135.56C30.3413 135.46 29.8613 134.9 29.8613 134.08C29.8613 132.82 30.9013 131.38 32.5413 131.38C32.8813 131.38 33.1813 131.46 33.4213 131.62H35.2213L35.0213 132.3H33.9613C34.0213 132.48 34.0613 132.68 34.0613 132.9C34.0613 134.12 33.0813 135.52 31.5213 135.6C31.1213 135.82 30.9213 136.12 30.9213 136.36C30.9213 136.642 31.2485 136.738 31.9715 136.949C32.0677 136.977 32.1709 137.007 32.2813 137.04ZM25.94 133.62C26.72 133.62 26.74 133.96 26.62 134.82H27.06L28.1 131.98H27.66C27.28 132.66 26.96 133.18 26.12 133.18H24.4L25.24 130.84C25.54 130 25.68 129.84 26.76 129.84H27.52C28.62 129.84 28.74 130.14 28.74 131.3H29.18L29.54 129.36H23.02L22.9 129.72C24.16 129.98 24.28 130.1 23.7 131.72L22.4 135.22C21.8 136.84 21.56 136.96 20.1 137.22L20 137.6H27.24L28.54 135.54H28.04C27.2 136.36 26.36 137.12 24.72 137.12C22.9161 137.12 22.9482 137.032 23.4895 135.545C23.5243 135.449 23.5613 135.347 23.6 135.24L24.2 133.64H25.94V133.62Z" fill="white"/><path fill-rule="evenodd" clip-rule="evenodd" d="M31.9182 116.48C32.3182 116.48 32.6582 116.14 32.6582 115.74C32.6582 115.34 32.3182 115 31.9182 115C31.4982 115 31.1782 115.34 31.1782 115.74C31.1782 116.16 31.4982 116.48 31.9182 116.48ZM37.8403 118.999C37.8403 118.039 37.6003 117.679 36.9203 117.679C36.0803 117.679 35.3003 118.579 34.5203 119.659L36.2003 115.159L36.1003 115.019L34.0403 115.259V115.499L34.4403 115.799C34.7886 116.07 34.6876 116.341 34.391 117.137L34.3603 117.219L32.5403 121.979C32.3803 122.379 32.2003 122.859 32.2003 122.979C32.2003 123.539 32.9603 124.079 33.6603 124.079C35.2203 124.099 37.8403 121.219 37.8403 118.999ZM55.18 116.959L57.04 115.259V115.019H55.8L54.7 116.959H55.18ZM55.3005 121.819H55.7005C54.9405 123.239 54.0205 124.099 53.1405 124.079C52.3805 124.079 51.9005 123.539 51.9005 122.519C51.9005 120.359 53.6605 117.659 55.2005 117.659C56.0805 117.659 56.8605 118.319 56.2205 119.839L52.9605 120.919C52.9005 121.199 52.8605 121.519 52.8605 121.819C52.8605 122.559 53.1405 122.899 53.7005 122.899C54.2405 122.899 54.8005 122.419 55.3005 121.819ZM55.1986 119.659C55.3985 118.899 55.0186 118.559 54.5786 118.559C54.0986 118.559 53.4986 119.259 53.1786 120.199L55.1986 119.659ZM49.2964 118.6H48.2164V118.1L49.5564 117.92L50.6764 116.221H51.2964L50.6964 117.92H52.2764L52.0764 118.6H50.4564L48.8764 123.02C49.5964 122.9 50.5564 122.22 50.9964 121.6H51.2964C50.7364 123.08 49.2764 124.12 48.0564 124.12C47.6364 124.12 47.4164 123.72 47.5764 123.32L49.2964 118.6ZM47.6602 119.12C47.8802 118.36 47.7602 117.68 47.1802 117.68C46.4569 117.68 46.2304 118.158 45.5295 119.637L45.4802 119.74V118.86C45.4802 118.24 45.2802 117.68 44.7202 117.68C44.0603 117.68 43.4603 118.7 43.0003 119.72H43.3003C43.6203 119.26 43.9203 118.98 44.1403 118.98C44.4203 118.98 44.5803 119.42 44.1403 120.38L42.8603 123.22C42.6203 123.76 42.8803 124.1 43.4003 124.1C43.7203 124.1 43.8603 124.02 44.0003 123.68L45.2602 120.36C45.6202 119.92 45.9402 119.54 46.3402 119.12H47.6602ZM41.3208 119.659C41.5208 118.899 41.1408 118.559 40.7008 118.559C40.2208 118.559 39.6408 119.259 39.3008 120.199L41.3208 119.659ZM41.8195 121.819H41.4195C40.9195 122.419 40.3595 122.899 39.8195 122.899C39.2595 122.899 38.9796 122.559 38.9796 121.819C38.9796 121.519 39.0196 121.199 39.0795 120.919L42.3395 119.839C42.9795 118.319 42.2195 117.659 41.3195 117.659C39.7795 117.659 38.0196 120.359 38.0196 122.519C38.0196 123.539 38.4996 124.079 39.2595 124.079C40.1395 124.099 41.0595 123.239 41.8195 121.819ZM33.4211 122.58C33.4211 122.84 33.8811 123.14 34.2011 123.14C35.5011 123.14 36.7211 120.8 36.7011 119.5C36.7011 119.06 36.4811 118.88 36.1811 118.88C35.7011 118.88 34.8211 119.6 34.2611 120.28L33.7411 121.68C33.5611 122.14 33.4211 122.5 33.4211 122.58ZM31.3215 117.68C31.5615 117.68 31.8415 117.92 31.7215 118.36L29.8015 123.06C30.3015 122.98 30.8215 122.5 31.1215 122.06H31.4215C30.9615 123.24 29.9215 124.1 29.0215 124.1C28.7815 124.1 28.4615 123.86 28.6215 123.42L30.4215 118.72C29.9215 118.8 29.4015 119.28 29.1015 119.72H28.8015C29.2615 118.54 30.3815 117.68 31.3215 117.68ZM23.02 115.601H27.3199L27.1999 115.981C25.7399 116.24 25.4999 116.36 24.8999 117.98L23.6199 121.5C23 123.18 23.16 123.38 24.2599 123.38C25.619 123.38 26.5101 122.392 27.2882 121.53C27.346 121.466 27.4032 121.402 27.4599 121.34H27.9599L26.5399 123.86H20L20.12 123.5C21.56 123.24 21.8 123.12 22.4 121.5L23.6999 117.96C24.2799 116.34 24.1599 116.22 22.9 115.961L23.02 115.601Z" fill="white"/></svg>
