<svg width="232" height="172" fill="none" xmlns="http://www.w3.org/2000/svg"><path fill="#fff" d="M20 20h55v20H20z"/><path d="M37.765 37.589c.007 0 .013-.01.013-.01a.807.807 0 00.153-.147c-.007 0-.013 0-.02-.01a2.51 2.51 0 00-.146.167zm7.357-2.479l-.116.1c.066-.017.116-.034.116-.1z" fill="#000091"/><path fill-rule="evenodd" clip-rule="evenodd" d="M42.743 37.642c.214-.214.427-.442.64-.675h-.007c.4-.455.788-.89 1.253-1.287.142-.13.278-.24.407-.33a.194.194 0 00.038-.076c.01-.03.02-.058.04-.074a.968.968 0 00-.24.146.973.973 0 01-.251.153c-.04 0-.078-.04-.04-.078a9.34 9.34 0 00.401-.306h-.026c-.038 0-.038-.039-.038-.078-.481-.076-.85.253-1.18.547l-.021.018c-.052.026-.1 0-.139-.02-.019-.01-.036-.019-.049-.019-.292.098-.544.28-.798.461-.234.168-.47.337-.739.442v-.078c-.091.032-.181.073-.272.114a2.12 2.12 0 01-.406.153c-.252.058-.487.05-.714.044a5.522 5.522 0 00-.222-.005c-.413.04-.822.13-1.23.218l-.133.029c-.006.003-.012.004-.019.006-.006.002-.013.003-.02.007a2.82 2.82 0 00-.697.285l-.026.013a.669.669 0 01-.026.033.87.87 0 01-.284.26c-.162.081-.302.207-.44.33-.06.054-.119.108-.18.157-.012.013-.038.02-.058.02-.2.194-.4.39-.607.577-.012.013-.07.02-.116.013 0 0 .007 0 .007-.006l.02-.04.096-.155c.02-.03.037-.058.055-.088.018-.029.035-.058.055-.087a2.83 2.83 0 01.161-.228c.013-.02.013-.039 0-.052a.073.073 0 00-.052-.02c.188-.181.407-.337.633-.473v-.007c-.026.007-.064-.013-.045-.039a.575.575 0 00.05-.077l.015-.027a.118.118 0 00.006-.016.112.112 0 01.007-.016.06.06 0 00-.013-.016.055.055 0 01-.013-.017l-.04.026a.667.667 0 00-.218.19c-.058.075-.12.155-.214.155-.006 0-.038 0-.058-.007-.02 0-.032-.006-.038-.013v-.006h.006s.007-.007.007-.013c0 0 0-.007.006-.007l.01-.016.01-.016a.13.13 0 01.009-.017l.01-.016a.026.026 0 00.006-.013.031.031 0 01.007-.013l.007-.013a.23.23 0 00.018-.039l.01-.016.01-.016c.01-.013.018-.028.026-.042a.386.386 0 01.025-.043c.007-.013.013-.026.026-.039l.02-.035.019-.036c.02-.033 0-.059-.026-.065a.871.871 0 01.258-.227h-.012c.089-.045.18-.098.272-.15.053-.03.108-.062.16-.09a.254.254 0 01.065-.053 2.32 2.32 0 00-.594.3s-.052.019-.065.032c0 0-.039.013-.09-.033-.007-.006-.007-.013-.007-.026.023-.045.069-.075.119-.107.036-.024.075-.048.107-.081.039 0 .071 0 .071.039.744-.584 1.661-.718 2.581-.854.566-.083 1.133-.166 1.662-.355.055-.038.111-.076.168-.113.056-.038.113-.075.168-.114.094-.04.178-.106.268-.177.088-.07.181-.145.294-.2.297-.227.523-.487.639-.87 0-.039-.039-.078-.039-.078a5.94 5.94 0 01-1.653 1.247c-.573.302-1.186.347-1.794.392a11.15 11.15 0 00-.68.063c.04-.078.117-.078.188-.078 0-.092.044-.132.1-.183l.048-.044h.11c.02 0 .03-.02.039-.04.01-.019.02-.038.039-.038.077 0 .187-.04.148-.04-.059-.075-.145-.045-.24-.012-.091.032-.19.067-.283.013a.257.257 0 00.054-.124c.01-.044.02-.083.056-.104h.148c0-.078.078-.15.078-.15.337-.202.662-.378.981-.552.213-.116.424-.23.633-.35a.274.274 0 00-.116.034c-.058.027-.113.053-.18.005.038 0 .038-.028.038-.055 0-.028 0-.055.039-.055.242-.065.458-.17.678-.277.155-.076.313-.153.484-.217-.05 0-.097.014-.143.027-.088.026-.172.05-.27-.027a.377.377 0 00.067-.046c.041-.032.081-.064.159-.064v-.11c0-.04.039-.04.077-.04-.038 0-.077-.039-.077-.039.02-.041.06-.05.106-.06a.236.236 0 00.12-.05c-.039 0-.11 0-.11-.04.11-.149.297-.188.484-.227-.019-.039-.056-.039-.088-.039-.033 0-.06 0-.06-.039 0-.038.039-.038.078-.038h-.078c-.06-.031-.05-.086-.043-.123.002-.01.004-.02.004-.027.152-.179.202-.39.251-.6.025-.102.049-.205.085-.303-.039 0-.077 0-.077-.039-.364.403-.94.556-1.486.701l-.051.014h-.188a.739.739 0 01-.639-.04 1.015 1.015 0 01-.221-.168 1.875 1.875 0 00-.154-.13 4.63 4.63 0 00-.936-.455 8.41 8.41 0 00-2.886-.416c.272-.15.561-.209.854-.27a5.776 5.776 0 00.742-.193c.535-.164 1.055-.323 1.626-.29-.075-.027-.17-.017-.258-.008a1.2 1.2 0 01-.117.008c-.431-.032-.867.064-1.322.164-.097.021-.194.043-.292.063-.178.037-.348.09-.517.144-.187.059-.374.118-.574.155a.848.848 0 00-.224.13c-.11.08-.214.157-.377.137v-.117c.375-.455.827-.903 1.427-.942.58-.095 1.128-.027 1.7.043l.29.035c.467.037.905.142 1.377.254l.05.012c.103 0 .16.09.217.179.046.072.09.141.157.159.092.031.184.037.276.043.134.009.268.017.402.106 0-.026-.005-.052-.009-.077-.008-.05-.017-.099.009-.15.083-.084.179-.061.273-.04.073.018.146.035.211 0 .205-.126.013-.321-.18-.517-.092-.094-.185-.188-.233-.275 0-.039.039-.078.039-.078a6.4 6.4 0 01.242.233c.196.195.388.386.655.52.188.079.64.19.562-.038-.133-.294-.36-.55-.588-.808-.094-.106-.189-.212-.277-.322v-.15c-.06 0-.073-.022-.09-.05a.234.234 0 00-.02-.028v-.149c-.095-.05-.116-.128-.137-.208a.448.448 0 00-.05-.13c-.065-.105-.07-.234-.074-.367-.004-.106-.008-.214-.043-.315a3.847 3.847 0 01-.148-.643 25.949 25.949 0 00-.134-.673 12.99 12.99 0 01-.202-1.14c-.06-.55.219-1.016.503-1.493a7.92 7.92 0 00.246-.429c.265-.455.562-.903 1.053-1.208.107-.444.398-.813.688-1.18l.022-.028c.286-.357.764-.575 1.116-.736l.04-.018A9.596 9.596 0 0145.94 20H20v20h18.404c.492-.357.981-.582 1.564-.85a28.625 28.625 0 001.097-.526c.526-.258 1.363-.67 1.678-.982zm-5.84-2.698c-.072.007-.15.015-.12-.044.027-.131.161-.17.293-.21a.943.943 0 00.158-.055l.021-.011.016-.008c.073-.04.162-.087.228-.059.044.063.099.08.152.095.04.012.08.024.112.054-.14.14-.302.154-.468.168a.995.995 0 00-.325.065.705.705 0 00-.066.005zm-5.712-.914c0 .04.038.078.038.078.904-1.02 1.724-1.89 2.887-2.61.031-.014.02.002.004.024-.023.032-.054.076.035.053.384-.088.557-.417.725-.738.044-.083.087-.165.133-.243.177-.287.427-.47.68-.656.182-.133.365-.267.522-.442 0 .04 0 .078-.04.117.04.04.078.04.117.04.068-.052.143-.073.214-.094.09-.026.177-.05.238-.134-.297-.117-.678-.156-.975-.039-.788.377-1.46.98-2.099 1.663-.387.41-.788.792-1.278 1.059a11.52 11.52 0 01-1.201 1.922zm3.152-2.416a.276.276 0 01-.06.082.252.252 0 00-.05.067.303.303 0 01-.148.15c-.039 0-.077 0-.077-.04.038-.148.148-.297.296-.336.04.006.04.045.04.078zm1.651 5.77a.467.467 0 00.09-.111c.033-.078-.167-.059-.2-.04-.029.024-.047.048-.07.076l-.007.01c-.026.03-.058.059-.09.088l-.064.06c-.09.092-.181.182-.278.267-.064.058.142.084.187.045.052-.039.097-.084.142-.13a.28.28 0 00.046-.004l.008-.002h.004a.733.733 0 00.264-.183l.02-.019c.026-.026-.006-.051-.051-.058zm-.583-.423h-.002v.006c-.04.027-.08.055-.118.083-.101.07-.202.142-.309.203a4.99 4.99 0 01-.313.158 8.802 8.802 0 00-.184.089s0-.007-.007-.007c-.013-.02-.038-.026-.064-.013a1.663 1.663 0 00-.375.293.199.199 0 00-.051.051l-.059.059v.006a1.276 1.276 0 00-.1.111c-.01.013-.018.024-.035.032-.026.013-.09.013-.084-.026V38a.301.301 0 01-.065.032.256.256 0 01-.029.017.164.164 0 00-.029.016c-.006-.007-.02-.007-.026-.007-.006 0-.019 0-.026.007-.014.013-.03.025-.045.037-.03.025-.06.05-.09.08a2.57 2.57 0 00-.22.233s0 .007-.006.007c0 .003-.002.005-.003.007a.007.007 0 00-.004.006l-.013.013a.04.04 0 00-.005.007c-.002.004-.003.006-.007.006l-.007.007a.136.136 0 01-.026.038.049.049 0 01-.032.014c-.006-.007-.013-.014-.013-.02a.034.034 0 01-.006-.01.265.265 0 01-.023-.039l-.016-.029v-.006a.023.023 0 00-.003-.01.023.023 0 01-.003-.01l.116-.136.006-.007a.27.27 0 00.02-.023.694.694 0 01.052-.062.694.694 0 00.041-.054l.01-.017c.039-.052.077-.104.116-.162v-.007c.007-.006.013-.013.013-.026a.504.504 0 00.052-.078l.038-.078v-.006l.007-.007c0-.003.002-.004.003-.006.002-.002.003-.003.003-.006l.02-.046.02-.045v-.007l.005-.026c.004-.006.005-.013.007-.02a.088.088 0 01.006-.019v-.006c.004-.01.005-.02.007-.03.002-.01.003-.02.006-.029 0-.006 0-.02-.006-.026a1.08 1.08 0 01.148-.201.022.022 0 00-.01.003.067.067 0 01-.005.003h-.004c-.029.018-.053.043-.079.067-.02.02-.04.04-.063.057-.039.032-.116-.02-.065-.059a.804.804 0 00.084-.078s0-.006.007-.006c.026-.023.05-.05.075-.077a.943.943 0 01.118-.111c.046-.033.078-.059.117-.091.006-.007.013-.013.02-.013a.9.9 0 01.083-.098s.007 0 .007-.006c.221-.215.533-.291.851-.369.2-.049.404-.098.589-.184.104-.043.22-.026.336-.009.09.013.181.027.264.01.11 0 .226 0 .336.077-.255.136-.5.292-.74.446l-.21.133h-.003zm.807-2.648c-.03.004-.05.006-.033.023.11.11.335.071.49-.013.11-.078.226-.078.375-.078.039 0 .039-.072.039-.11a.8.8 0 00.297.038c.897-.188 1.763-.376 2.59-.792-.837-.646-1.868-.934-2.878-1.216-.168-.047-.335-.093-.5-.142.036 0 .073.012.11.025.073.024.148.05.226-.025-.103-.081-.217-.097-.33-.112-.093-.013-.186-.026-.27-.076.008 0 .018.002.03.004.039.008.088.017.118-.043-.197-.099-.393-.132-.59-.166a3.769 3.769 0 01-.308-.061.37.37 0 00.303-.377c0-.039-.077-.039-.116-.039-.445.227-.749.643-.936 1.13.169.1.35.088.53.077.1-.007.2-.013.296.001-.084.08-.206.103-.324.123a1.634 1.634 0 00-.128.027c-.116.026-.226.11-.187.188a.132.132 0 00.084.052.538.538 0 00-.232.136c.106.084.216.068.324.052.043-.006.085-.013.128-.013 0 .047.03.063.063.08a.181.181 0 01.046.03c-.187.072-.335.228-.374.338-.046.113-.132.186-.217.259a.978.978 0 00-.158.157v.117c-.124.11-.253.21-.379.307-.26.2-.512.394-.712.674.039 0 .039.039.039.078a.521.521 0 01-.135.127c-.056.041-.11.08-.13.14 0 .038 0 .077.039.077.237-.078.442-.21.643-.34.182-.117.361-.232.558-.303.16-.038.3-.111.437-.183.116-.06.23-.119.35-.155a5.56 5.56 0 00.301-.074 5.78 5.78 0 01.3-.075c0 .039 0 .078.039.078h.297c-.018.044-.076.05-.115.055z" fill="#000091"/><path d="M75 20H53.488s.04.006.202.091c.176.091.403.215.54.286.28.143.546.325.722.605.078.11.188.338.117.487-.078.189-.117.495-.306.566-.228.117-.527.117-.793.078-.15 0-.3-.039-.456-.078.566.228 1.1.494 1.477 1.02.039.079.188.111.338.111.039 0 .039.078.039.111-.078.078-.15.117-.11.228h.11c.188-.078.15-.456.416-.338.188.11.267.377.15.565-.15.15-.3.267-.456.377a.318.318 0 000 .267c.11.15.15.299.189.455.117.267.15.566.267.832.15.566.299 1.131.266 1.704 0 .299-.15.565-.039.871.078.3.267.527.416.793.15.228.3.377.416.605.228.377.644.754.456 1.21-.11.266-.527.227-.794.376-.227.189-.039.494.078.683.189.338-.227.566-.494.683.078.117.228.078.267.15.039.188.227.298.11.493-.15.228-.605.339-.377.683.15.267.052.56-.039.832-.11.338-.416.488-.683.566a1.49 1.49 0 01-.715.04c-.078-.04-.15-.079-.228-.079-.643-.078-1.287-.26-1.924-.26-.189.039-.378.072-.527.15-.17.123-.325.26-.455.403l-.007.006c-.026.033-.058.059-.084.091-.013.02-.033.04-.046.059-.013.013-.02.026-.032.039a3.908 3.908 0 00-.3.435.07.07 0 01-.02.026c-.006.02-.019.033-.032.052a3.737 3.737 0 00-.286.696c-.26.865-.143 1.606.04 1.788.051.052 1.248.423 2.08.793.39.176.663.306.891.449h21.121V20H75z" fill="#E1000F"/><path d="M54.767 27.294c.15.04.377.04.377.117-.078.3-.527.377-.755.682h-.117c-.11.078-.078.267-.188.267-.111-.04-.228 0-.339.038.15.15.339.267.566.228.04 0 .11.078.11.149 0 0 .04 0 .079-.039.039 0 .078 0 .078.039v.15c-.11.149-.306.077-.455.11.305.078.605.078.871 0 .228-.078 0-.455.15-.643-.078 0 0-.117-.078-.117.078-.078.15-.188.227-.227.078 0 .189-.04.228-.117 0-.078-.15-.11-.117-.188.227-.15.416-.377.338-.604-.039-.117-.338-.117-.527-.189-.188-.071-.416 0-.644.04-.188 0-.377.116-.566.149-.266.078-.494.227-.715.376.267-.11.527-.149.833-.227.227.006.416-.045.644.006z" fill="gray"/><path d="M22.06 65V51h3.54l3.42 5.88L32.44 51h3.54v14h-2.84V54.96l-3.12 5.24h-2l-3.12-5.24V65h-2.84zm18.127 0V51h2.84v14h-2.84zm7.053 0V51h3.64l6.26 10.12V51h2.84v14h-3.64l-6.26-10.12V65h-2.84zm16.956 0V51h2.84v14h-2.84zm5.793-1.94l2.06-1.9c.84 1.08 1.96 1.72 3.1 1.72 1.12 0 1.8-.6 1.8-1.6 0-2.58-6.36-1.88-6.36-6.62 0-2.22 1.84-4.06 4.52-4.06 2.1 0 3.7.94 4.9 2.36l-2.08 1.88c-.82-1.06-1.74-1.76-2.8-1.76-1 0-1.66.64-1.66 1.48 0 2.54 6.36 1.82 6.36 6.62-.04 2.64-2.08 4.22-4.66 4.22-2.36 0-3.94-.86-5.18-2.34zm11.58-9.48V51h11.48v2.58h-4.32V65h-2.84V53.58h-4.32zm17.095-3.78l-2.58-2.7h2.92l2.26 2.7h-2.6zM95.844 65V51h8.16v2.36h-5.32v3.32h4.52v2.36h-4.52v3.6h5.32V65h-8.16zm11.76 0V51h4.28c3.08 0 4.98 1.58 4.98 4.18 0 1.7-.82 2.96-2.26 3.62l4.38 6.2h-3.34l-3.74-5.66h-1.46V65h-2.84zm4.44-11.64h-1.6v3.62h1.6c1.2 0 1.9-.7 1.9-1.84 0-1.06-.7-1.78-1.9-1.78zM121.083 65V51h8.16v2.36h-5.32v3.32h4.52v2.36h-4.52v3.6h5.32V65h-8.16zM22.06 86V72h5.5C32 72 35 75.22 35 79s-3 7-7.44 7h-5.5zm5.54-11.42h-2.7v8.84h2.7c2.6 0 4.48-1.94 4.48-4.42 0-2.5-1.88-4.42-4.48-4.42zM38.039 86V72h8.16v2.36h-5.32v3.32h4.52v2.36h-4.52v3.6h5.32V86h-8.16zm17.25 0V72h2.84v11.42h5.32V86h-8.16zm9.805 0l5.3-14h3.72l5.3 14h-3.02l-1.34-3.64h-5.6L68.114 86h-3.02zm5.24-6.06h3.84l-1.92-5.26-1.92 5.26zm15.593-5.36V72h11.48v2.58h-4.32V86h-2.84V74.58h-4.32zM100.201 86V72h4.28c3.08 0 4.98 1.58 4.98 4.18 0 1.7-.82 2.96-2.26 3.62l4.38 6.2h-3.34l-3.74-5.66h-1.46V86h-2.84zm4.44-11.64h-1.6v3.62h1.6c1.2 0 1.9-.7 1.9-1.84 0-1.06-.7-1.78-1.9-1.78zM112.526 86l5.3-14h3.72l5.3 14h-3.02l-1.34-3.64h-5.6l-1.34 3.64h-3.02zm5.24-6.06h3.84l-1.92-5.26-1.92 5.26zM129.308 86V72h3.64l6.26 10.12V72h2.84v14h-3.64l-6.26-10.12V86h-2.84zm15.695-1.94l2.06-1.9c.84 1.08 1.96 1.72 3.1 1.72 1.12 0 1.8-.6 1.8-1.6 0-2.58-6.36-1.88-6.36-6.62 0-2.22 1.84-4.06 4.52-4.06 2.1 0 3.7.94 4.9 2.36l-2.08 1.88c-.82-1.06-1.74-1.76-2.8-1.76-1 0-1.66.64-1.66 1.48 0 2.54 6.36 1.82 6.36 6.62-.04 2.64-2.08 4.22-4.66 4.22-2.36 0-3.94-.86-5.18-2.34zM158.121 86V72h2.84v14h-2.84zm5.613-11.42V72h11.48v2.58h-4.32V86h-2.84V74.58h-4.32zM178.008 86V72h2.84v14h-2.84zm13.294-14.4c4.4 0 7.42 3.4 7.42 7.4s-3.02 7.4-7.42 7.4c-4.42 0-7.44-3.4-7.44-7.4s3.02-7.4 7.44-7.4zm0 12.14c2.62 0 4.5-2.06 4.5-4.74s-1.88-4.74-4.5-4.74c-2.64 0-4.52 2.06-4.52 4.74s1.88 4.74 4.52 4.74zM201.744 86V72h3.64l6.26 10.12V72h2.84v14h-3.64l-6.26-10.12V86h-2.84zM27.4 91.8h-2.58l2.26-2.7H30l-2.6 2.7zM22.06 107V93h8.16v2.36H24.9v3.32h4.52v2.36H24.9v3.6h5.32V107h-8.16zm17.688-2.26c1.6 0 2.86-.78 3.66-1.92l2.24 1.72c-1.28 1.74-3.36 2.86-5.9 2.86-4.42 0-7.44-3.4-7.44-7.4s3.02-7.4 7.44-7.4c2.54 0 4.62 1.14 5.9 2.84l-2.24 1.74c-.8-1.14-2.06-1.92-3.66-1.92-2.64 0-4.52 2.06-4.52 4.74s1.88 4.74 4.52 4.74zM54.555 92.6c4.4 0 7.42 3.4 7.42 7.4s-3.02 7.4-7.42 7.4c-4.42 0-7.44-3.4-7.44-7.4s3.02-7.4 7.44-7.4zm0 12.14c2.62 0 4.5-2.06 4.5-4.74s-1.88-4.74-4.5-4.74c-2.64 0-4.52 2.06-4.52 4.74s1.88 4.74 4.52 4.74zM64.997 107V93h2.84v11.42h5.32V107h-8.16zm16.691-14.4c4.4 0 7.42 3.4 7.42 7.4s-3.02 7.4-7.42 7.4c-4.42 0-7.44-3.4-7.44-7.4s3.02-7.4 7.44-7.4zm0 12.14c2.62 0 4.5-2.06 4.5-4.74s-1.88-4.74-4.5-4.74c-2.64 0-4.52 2.06-4.52 4.74s1.88 4.74 4.52 4.74zm17.234 0c1.32 0 2.46-.46 3.26-1.22v-2.44h-3.56v-2.42h6.4v5.88c-1.3 1.74-3.48 2.86-6.1 2.86-4.54 0-7.64-3.4-7.64-7.4s3.02-7.4 7.44-7.4c2.54 0 4.62 1.14 5.9 2.84l-2.24 1.74c-.8-1.14-2.06-1.92-3.66-1.92-2.64 0-4.52 2.06-4.52 4.74s1.98 4.74 4.72 4.74zm9.558 2.26V93h2.84v14h-2.84zm18.793-.36c1.08.98 2.04 1.34 2.94 1.34.3 0 .7-.04 1-.16v2.4c-.46.18-.86.26-1.48.26-1.56 0-3-.64-4.38-1.84l-1.66-1.48c-.6.16-1.24.24-1.92.24-4.42 0-7.44-3.4-7.44-7.4s3.02-7.4 7.44-7.4c4.4 0 7.42 3.4 7.42 7.4 0 2.34-1.04 4.48-2.76 5.84l.84.8zm-5.5-1.9c2.62 0 4.5-2.06 4.5-4.74s-1.88-4.74-4.5-4.74c-2.64 0-4.52 2.06-4.52 4.74s1.88 4.74 4.52 4.74zm18.699-2.98V93h2.84v8.52c0 3.68-2.16 5.88-5.68 5.88-3.5 0-5.66-2.2-5.66-5.88V93h2.84v8.76c0 1.88 1.06 2.98 2.84 2.98 1.74 0 2.82-1.1 2.82-2.98zm6.668 5.24V93h8.16v2.36h-5.32v3.32h4.52v2.36h-4.52v3.6h5.32V107h-8.16z" fill="#fff"/><path fill-rule="evenodd" clip-rule="evenodd" d="M71.96 142.7l-1.86 1.7h-.48l1.1-1.94h1.24v.24zm-1.34 6.579h-.4c-.5.6-1.06 1.08-1.6 1.08-.56 0-.84-.34-.84-1.08 0-.3.04-.62.1-.9l3.26-1.08c.64-1.52-.12-2.18-1.02-2.18-1.54 0-3.3 2.7-3.3 4.86 0 1.02.48 1.58 1.24 1.58.88-.02 1.8-.88 2.56-2.28zM69.501 146c.44 0 .82.34.62 1.12l-2.02.54c.32-.96.92-1.66 1.4-1.66zm-6.359.039h1.08l-1.72 4.72c-.16.4.06.8.48.8 1.22 0 2.68-1.04 3.24-2.52h-.3c-.44.62-1.4 1.3-2.12 1.42l1.58-4.42h1.62l.2-.68h-1.58l.6-1.7h-.62l-1.12 1.7-1.34.18v.5zm-1.501-.899c.22 0 .52.24.38.68l-1.94 4.7c.5-.08 1.02-.56 1.32-1h.32c-.46 1.18-1.5 2.04-2.4 2.04-.22 0-.54-.24-.38-.68l1.8-4.7c-.5.08-1.02.56-1.32 1h-.3c.46-1.2 1.58-2.04 2.52-2.04zm.561-1.2c.4 0 .74-.32.74-.74 0-.4-.34-.74-.74-.74-.42 0-.74.34-.74.74 0 .4.34.74.74.74zm-8.74 3.9c.44-.96.28-1.4 0-1.4-.24 0-.52.26-.8.74h-.3c.46-1.02 1.06-2.04 1.72-2.04.56 0 .76.56.76 1.18v.88l.263-.308.002-.002.001-.001c.845-.992 1.49-1.749 2.234-1.749.58 0 .88.36.88.9 0 .32-.1.72-.32 1.14l-1.66 3.34c.5-.08 1.02-.56 1.32-1h.3c-.46 1.2-1.58 2.04-2.52 2.04-.42 0-.66-.44-.48-.8l1.92-3.7c.22-.42.26-.7-.08-.7-.46 0-1.54.76-2.12 1.46l-1.26 3.32c-.14.34-.28.42-.6.42-.52 0-.78-.34-.54-.88l1.28-2.84zm-1.302-1.281c.22-.76.1-1.44-.48-1.44-.723 0-.95.478-1.65 1.956l-.05.104v-.88c0-.62-.2-1.18-.76-1.18-.66 0-1.26 1.02-1.72 2.04h.3c.32-.46.62-.74.86-.74.28 0 .44.44 0 1.4l-1.28 2.84c-.24.54.02.88.54.88.32 0 .46-.08.6-.42l1.26-3.32c.36-.44.68-.82 1.08-1.24h1.3zm-6.32.561c.2-.78-.18-1.12-.62-1.12-.48 0-1.08.7-1.4 1.66l2.02-.54zm.5 2.159h-.4c-.5.6-1.06 1.08-1.6 1.08-.56 0-.84-.34-.84-1.08 0-.3.04-.62.1-.9l3.26-1.08c.64-1.52-.12-2.18-1.02-2.18-1.54 0-3.3 2.7-3.3 4.86 0 1.02.48 1.58 1.24 1.58.88-.02 1.8-.88 2.56-2.28zm-6.399-3.24h-1.08v-.5l1.34-.18 1.12-1.7h.62l-.6 1.7h1.58l-.2.68h-1.62l-1.58 4.42c.72-.12 1.68-.8 2.12-1.42h.3c-.56 1.48-2.02 2.52-3.24 2.52-.42 0-.64-.4-.48-.8l1.72-4.72zm-6.799 3.66c0-1.46 1.62-3.419 2.52-3.419.2 0 .4.02.56.08l-.94 2.519c-.54.66-1.38 1.46-1.78 1.46-.22 0-.36-.2-.36-.64zm4.461-4.879l.5.04-1.74 3.999c-.42.96-.24 1.4 0 1.4s.54-.28.86-.74h.3c-.46 1.02-1.06 2.04-1.72 2.04-.56 0-.9-.6-.8-1.68l.04-.38-.109.153c-.716 1.001-1.365 1.907-2.031 1.907-.58 0-.88-.36-.88-.9 0-2.319 2.54-5.279 4.92-5.279h.1l.56-.56zm-4.581 1.739c.22-.76.1-1.44-.48-1.44-.724 0-.95.478-1.651 1.956l-.05.104v-.88c0-.62-.2-1.18-.76-1.18-.66 0-1.26 1.02-1.72 2.04h.3c.32-.46.62-.74.84-.74.28 0 .44.44 0 1.4l-1.28 2.86c-.24.54.02.88.54.88.32 0 .46-.08.6-.42l1.26-3.32c.36-.44.68-.82 1.08-1.24h1.32v-.02zm-8.242 4.399l-.12.36H20l.12-.38c1.44-.26 1.68-.38 2.28-2l1.3-3.48c.58-1.62.46-1.74-.8-2l.12-.36h6.06l-.36 1.94h-.44c0-1.16-.12-1.46-1.22-1.46h-.28c-1.08 0-1.22.16-1.52 1l-.86 2.34h1.26c.84 0 1.16-.52 1.54-1.2h.44l-1.04 2.84h-.44c.1-.86.1-1.2-.68-1.2h-1.26l-.58 1.6c-.627 1.665-.448 1.699 1.045 1.982l.095.018zm3.96-23.558l-1.86 1.34v.02h-.48l1.1-1.6h1.24v.24zm13.002 9.38l2.98-7.92-.1-.12-2.06.24v.24l.4.3c.34.265.25.513-.033 1.289l-.047.131-2.28 6.08c-.18.36.06.8.48.8.94 0 1.94-.86 2.4-2.04h-.3c-.32.44-.96.92-1.44 1zm13.658-6.1l1.86-1.7v-.24h-1.24l-1.1 1.94h.48zm.119 4.86h.4c-.74 1.42-1.66 2.28-2.54 2.28-.76 0-1.24-.56-1.24-1.58 0-2.16 1.76-4.86 3.3-4.86.88 0 1.66.66 1.02 2.18l-3.28 1.08c-.06.28-.1.6-.1.9 0 .74.28 1.08.84 1.08.54 0 1.1-.48 1.6-1.08zm-.101-2.16c.2-.76-.18-1.1-.62-1.1-.46 0-1.06.7-1.4 1.64l2.02-.54zm-5.88-1.061h-1.08v-.5l1.34-.18 1.12-1.7h.62l-.6 1.7h1.58l-.2.68h-1.62l-1.58 4.42c.72-.12 1.68-.8 2.12-1.42h.3c-.56 1.48-2.02 2.52-3.24 2.52-.42 0-.64-.4-.48-.8l1.72-4.72zm-2.2-.24c.12-.44-.16-.68-.4-.68-.94 0-2.06.86-2.52 2.04h.3c.3-.44.82-.92 1.32-1l-1.8 4.7c-.16.44.16.68.38.68.9 0 1.94-.86 2.4-2.04h-.3c-.3.44-.82.92-1.32 1l1.94-4.7zm.921-2.599c0 .4-.34.74-.74.74-.4 0-.74-.34-.74-.74 0-.4.32-.74.74-.74.4 0 .74.34.74.74zm-10.098 3.08c-.9 0-2.52 1.96-2.52 3.42 0 .44.14.64.38.64.38 0 1.22-.8 1.76-1.46l.94-2.52c-.18-.06-.36-.08-.56-.08zm2.44-1.42l-.5-.04-.56.56h-.1c-2.38 0-4.92 2.96-4.92 5.28 0 .54.3.9.88.9.667 0 1.315-.907 2.032-1.908l.109-.152-.04.38c-.1 1.08.24 1.68.8 1.68.66 0 1.26-1.02 1.72-2.04h-.3c-.32.46-.62.74-.86.74s-.42-.44 0-1.4l1.74-4zm-10.08 6.48c-.86.34-1.46.74-1.46 1.36 0 .58.54.82 1.66.82 1.5 0 2.32-.44 2.32-1.02 0-.26-.34-.38-1.24-.68-.58-.18-1-.34-1.28-.48zm.998-2.46c-.4 0-.54-.34-.54-.7 0-1.16.56-2.6 1.46-2.6.4 0 .54.34.54.7-.02 1.18-.58 2.6-1.46 2.6zm.762 1.88c1.1.34 1.78.6 1.78 1.36 0 .98-1.8 2.14-3.98 2.12-1.26 0-2.34-.34-2.34-1.16 0-.78.72-1.42 2.48-1.94a.703.703 0 01-.34-.64c0-.48.44-.86 1.2-1.22-.74-.1-1.22-.66-1.22-1.48 0-1.26 1.04-2.7 2.68-2.7.34 0 .64.08.88.24h1.8l-.2.68h-1.06c.06.18.1.38.1.6 0 1.22-.98 2.62-2.54 2.7-.4.22-.6.52-.6.76 0 .282.328.378 1.05.589l.31.091zm-6.341-3.42c.78 0 .8.34.68 1.2h.44l1.04-2.84h-.44c-.38.68-.7 1.2-1.54 1.2H24.4l.84-2.34c.3-.84.44-1 1.52-1h.76c1.1 0 1.22.3 1.22 1.46h.44l.36-1.94h-6.52l-.12.36c1.26.26 1.38.38.8 2l-1.3 3.5c-.6 1.62-.84 1.74-2.3 2l-.1.38h7.24l1.3-2.06h-.5c-.84.82-1.68 1.58-3.32 1.58-1.804 0-1.772-.088-1.23-1.575l.11-.305.6-1.6h1.74v-.02zm5.978-17.14c.4 0 .74-.34.74-.74 0-.4-.34-.74-.74-.74-.42 0-.74.34-.74.74 0 .42.32.74.74.74zm5.922 2.519c0-.96-.24-1.32-.92-1.32-.84 0-1.62.9-2.4 1.98l1.68-4.5-.1-.14-2.06.24v.24l.4.3c.349.271.248.542-.049 1.338l-.03.082-1.82 4.76c-.16.4-.34.88-.34 1 0 .56.76 1.1 1.46 1.1 1.56.02 4.18-2.86 4.18-5.08zm17.34-2.04l1.86-1.7v-.24H55.8l-1.1 1.94h.48zm.12 4.86h.4c-.76 1.42-1.68 2.28-2.56 2.26-.76 0-1.24-.54-1.24-1.56 0-2.16 1.76-4.86 3.3-4.86.88 0 1.66.66 1.02 2.18l-3.26 1.08c-.06.28-.1.6-.1.9 0 .74.28 1.08.84 1.08.54 0 1.1-.48 1.6-1.08zm-.101-2.16c.2-.76-.18-1.1-.62-1.1-.48 0-1.08.7-1.4 1.64l2.02-.54zm-5.903-1.059h-1.08v-.5l1.34-.18 1.12-1.699h.62l-.6 1.699h1.58l-.2.68h-1.62l-1.58 4.42c.72-.12 1.68-.8 2.12-1.42h.3c-.56 1.48-2.02 2.52-3.24 2.52-.42 0-.64-.4-.48-.8l1.72-4.72zm-1.636.52c.22-.76.1-1.44-.48-1.44-.723 0-.95.478-1.65 1.957l-.05.103v-.88c0-.62-.2-1.18-.76-1.18-.66 0-1.26 1.02-1.72 2.04h.3c.32-.46.62-.74.84-.74.28 0 .44.44 0 1.4l-1.28 2.84c-.24.54.02.88.54.88.32 0 .46-.08.6-.42l1.26-3.32c.36-.44.68-.82 1.08-1.24h1.32zm-6.34.539c.2-.76-.18-1.1-.62-1.1-.48 0-1.06.7-1.4 1.64l2.02-.54zm.5 2.16h-.4c-.5.6-1.06 1.08-1.6 1.08-.56 0-.84-.34-.84-1.08 0-.3.04-.62.1-.9l3.26-1.08c.64-1.52-.12-2.18-1.02-2.18-1.54 0-3.3 2.7-3.3 4.86 0 1.02.48 1.56 1.24 1.56.88.02 1.8-.84 2.56-2.26zm-8.399.761c0 .26.46.56.78.56 1.3 0 2.52-2.34 2.5-3.64 0-.44-.22-.62-.52-.62-.48 0-1.36.72-1.92 1.4l-.52 1.4c-.18.46-.32.82-.32.9zm-2.1-4.9c.24 0 .52.24.4.68l-1.92 4.7c.5-.08 1.02-.56 1.32-1h.3c-.46 1.18-1.5 2.04-2.4 2.04-.24 0-.56-.24-.4-.68l1.8-4.7c-.5.08-1.02.56-1.32 1h-.3c.46-1.18 1.58-2.04 2.52-2.04zm-8.301-2.079h4.3l-.12.38c-1.46.259-1.7.379-2.3 1.999l-1.28 3.52c-.62 1.68-.46 1.88.64 1.88 1.359 0 2.25-.988 3.028-1.85l.172-.19h.5l-1.42 2.52H20l.12-.36c1.44-.26 1.68-.38 2.28-2l1.3-3.54c.58-1.62.46-1.74-.8-1.999l.12-.36z" fill="#fff"/></svg>
