<svg viewBox="0 0 1000 1000" xmlns="http://www.w3.org/2000/svg"><path d="M987.3 411.3L858.5 187c-3-4.5-8.1-7.5-13.9-7.5-.5 0-266.6 38.7-266.6 38.7L475.8 30.3c-2.5-5.2-7.8-8.7-13.9-8.7-3.4 0-6.5 1.1-9 2.9l-377.7 275c-1.8 1.3-3.3 3-4.4 5L11.9 410.6c-3.2 5.8-2.4 12.9 2.1 17.8 3 3.3 7.1 5 11.3 5 2.1 0 4.2-.4 6.2-1.3l3.8-1.7v384c0 5.6 3.1 10.8 8 13.5L314 976.2c2.3 1.4 5 2.2 7.9 2.2 1.6 0 3.2-.3 4.7-.7L632 900.6l126.6 37.6s3.8 1.1 5.8 1.1c2.3 0 4.5-.5 6.4-1.3l171-76.4c5.5-2.5 9.1-8 9.1-14V430.7l20.6 4.2c1.1.2 2.1.3 3.1.3h.2c8.4-.1 15.2-6.9 15.2-15.4-.1-3.1-1-6-2.7-8.5zM88.1 752.2c0 1.7-.8 3.2-2.2 4.2-.9.6-1.9.9-2.9.9-.6 0-1.2-.1-1.8-.3l-22-8.1c-2-.8-3.4-2.6-3.4-4.8v-76c0-1.5.7-3 1.9-3.9 1.2-1 2.7-1.4 4.2-1.1l22 4.1c2.4.4 4.2 2.6 4.2 5zm0-119.9c0 1.4-.6 2.8-1.7 3.8-.9.9-2.2 1.3-3.4 1.3h-.5l-22-2.1c-2.6-.2-4.6-2.5-4.6-5.1v-76c0-2.6 2-4.9 4.7-5.1l22-1.8c1.4-.1 2.8.4 3.9 1.4 1 1 1.6 2.3 1.6 3.7zm0-119.9c0 2.5-1.8 4.6-4.3 5.1l-22 3.8c-.3 0-.6.1-.9.1-1.2 0-2.4-.4-3.3-1.2-1.2-1-1.8-2.4-1.8-3.9v-75.9c0-2.2 1.4-4.1 3.4-4.8l22-7.8c1.6-.5 3.3-.3 4.7.6 1.4 1 2.1 2.5 2.1 4.2zm51.8 258.8c0 1.7-.8 3.3-2.2 4.2-.9.6-1.9.9-2.9.9-.6 0-1.2-.1-1.8-.4l-27.3-10c-2-.7-3.4-2.7-3.4-4.8v-84.3c0-1.5.7-3 1.9-4s2.7-1.4 4.2-1.1l27.3 5.1c2.4.4 4.1 2.6 4.1 5v89.4zm0-133.9c0 1.4-.6 2.8-1.7 3.8-1 .9-2.2 1.3-3.4 1.3h-.5l-27.3-2.7c-2.6-.3-4.6-2.4-4.6-5.1v-84.3c0-2.7 2-4.9 4.7-5.1l27.3-2.3c1.4-.1 2.9.4 3.9 1.3 1.1 1 1.6 2.3 1.6 3.8zm0-133.8c0 2.5-1.8 4.6-4.2 5l-27.3 4.7c-.3 0-.6.1-.9.1-1.2 0-2.4-.4-3.3-1.2-1.2-1-1.8-2.4-1.8-3.9v-84.3c0-2.2 1.4-4.1 3.4-4.8l27.3-9.6c1.6-.5 3.3-.3 4.7.6 1.4 1 2.1 2.5 2.1 4.2zM61 385.5l35-63.2L414.1 90.7l-11.7 20.9L311 274.7l-160.1 71zm144.3 409.8c0 1.7-.8 3.2-2.2 4.2-.9.6-1.9.9-3 .9-.6 0-1.2-.1-1.8-.3l-34.7-12.8c-2-.8-3.3-2.7-3.3-4.8v-94.8c0-1.5.7-3 1.9-3.9 1.2-1 2.7-1.4 4.2-1.1l34.7 6.5c2.4.4 4.2 2.6 4.2 5zm0-151.6c0 1.4-.6 2.8-1.7 3.8-.9.9-2.2 1.3-3.5 1.3h-.5l-34.7-3.4c-2.6-.3-4.6-2.5-4.6-5.1v-94.8c0-2.7 2-4.9 4.7-5.1l34.7-2.9c1.4-.1 2.8.4 3.9 1.3 1.1 1 1.6 2.3 1.6 3.8zm0-151.5c0 2.5-1.8 4.6-4.3 5l-34.7 6c-.3 0-.6.1-.9.1-1.2 0-2.4-.4-3.3-1.2-1.1-1-1.8-2.4-1.8-3.9v-94.8c0-2.2 1.4-4.1 3.4-4.8l34.7-12.3c1.6-.5 3.3-.3 4.7.6 1.3 1 2.1 2.5 2.1 4.2zm85.3 334.4c0 1.7-.8 3.2-2.2 4.2-.9.6-1.9.9-2.9.9-.6 0-1.2-.1-1.8-.3L238 814.6c-2-.8-3.4-2.7-3.4-4.8V701.7c0-1.5.7-3 1.8-3.9 1.2-1 2.7-1.4 4.2-1.1l45.7 8.6c2.4.4 4.2 2.6 4.2 5zm0-174.6c0 1.4-.6 2.8-1.7 3.8-1 .9-2.2 1.3-3.4 1.3h-.5l-45.7-4.5c-2.6-.2-4.6-2.5-4.6-5.1V539.4c0-2.7 2-4.9 4.7-5.1l45.7-3.8c1.4-.1 2.9.4 3.9 1.4 1.1 1 1.6 2.3 1.6 3.8zm0-174.6c0 2.5-1.8 4.6-4.2 5l-45.7 7.9c-.3 0-.6.1-.9.1-1.2 0-2.4-.4-3.3-1.2-1.2-1-1.8-2.4-1.8-3.9V377.2c0-2.2 1.3-4.1 3.4-4.8l45.6-16.1c1.6-.6 3.3-.3 4.7.6 1.4 1 2.2 2.5 2.2 4.2zM467 816.3c0 2.5-1.8 4.6-4.3 5.1l-105.3 17.8c-.3.1-.6.1-.9.1-1.2 0-2.4-.4-3.3-1.2-1.2-1-1.8-2.4-1.8-3.9V714.1c0-2.7 2-4.9 4.7-5.1l105.3-9.1c1.4-.1 2.9.4 3.9 1.4 1 1 1.6 2.3 1.6 3.8v111.2zm0-167c0 2.7-2.2 5-4.9 5.1l-105.3 4.7h-.2c-1.3 0-2.6-.5-3.5-1.4-1-1-1.6-2.3-1.6-3.7V534c0-1.4.6-2.8 1.6-3.7 1-1 2.4-1.5 3.8-1.4l105.3 4c2.7.1 4.9 2.4 4.9 5.1zm0-167c0 1.4-.6 2.8-1.6 3.8-.9.9-2.2 1.4-3.5 1.4h-.4L356.1 479c-2.6-.2-4.7-2.4-4.7-5.1v-120c0-1.5.6-2.9 1.8-3.9 1.2-1 2.7-1.4 4.1-1.1L462.6 366c2.5.4 4.3 2.5 4.3 5v111.3zm132 311.6c0 2.5-1.8 4.6-4.3 5l-84.9 14.4c-.3 0-.6.1-.8.1-1.2 0-2.4-.4-3.3-1.2-1.2-1-1.8-2.4-1.8-3.9V700.9c0-2.7 2-4.9 4.7-5.1l84.9-7.4c1.4-.1 2.9.4 3.9 1.3 1.1 1 1.7 2.4 1.7 3.8zm0-150.5c0 2.7-2.2 5-4.9 5.1l-84.9 3.8h-.2c-1.3 0-2.6-.5-3.6-1.4-1-1-1.6-2.3-1.6-3.7V539.8c0-1.4.5-2.7 1.6-3.7 1-1 2.4-1.5 3.8-1.4l84.9 3.2c2.8.1 4.9 2.4 4.9 5.1zm0-150.6c0 1.4-.6 2.8-1.6 3.8-1 .9-2.2 1.4-3.5 1.4h-.4l-84.9-6.8c-2.7-.2-4.7-2.4-4.7-5.1V378.6c0-1.5.6-2.9 1.8-3.9 1.1-1 2.7-1.4 4.1-1.2l84.9 13.8c2.5.4 4.3 2.5 4.3 5.1zm140.3 422.1c0 1.6-.8 3.1-2.1 4.1-.9.7-2 1-3.1 1-.5 0-1-.1-1.5-.2l-65.8-19.5c-2.2-.6-3.7-2.6-3.7-4.9V687.1c0-1.4.6-2.8 1.7-3.8s2.5-1.5 3.9-1.3l65.8 5.9c2.6.3 4.7 2.5 4.7 5.1zm-12.5-561.2l-84.5-17.2-48.7-89.5 220.9-32.2zm123.6 397.7c0 2.5-1.8 4.6-4.3 5l-52.5 8.9c-.3 0-.6.1-.9.1-1.2 0-2.4-.4-3.3-1.2-1.2-1-1.8-2.4-1.8-3.9v-83.9c0-2.7 2.1-4.9 4.7-5.1l52.5-4.5c1.4-.1 2.9.4 3.9 1.3 1 1 1.7 2.3 1.7 3.8zm0-119.4c0 2.8-2.2 5-4.9 5.1l-52.5 2.4h-.3c-1.3 0-2.6-.5-3.5-1.4-1-1-1.6-2.3-1.6-3.7v-83.9c0-1.4.6-2.7 1.6-3.7s2.3-1.5 3.7-1.5l52.5 2c2.8.1 4.9 2.4 4.9 5.1V632zm0-119.2c0 1.4-.6 2.8-1.7 3.8-.9.9-2.2 1.4-3.5 1.4h-.4l-52.5-4.2c-2.6-.2-4.7-2.4-4.7-5.1v-83.9c0-1.5.7-2.9 1.8-3.9 1.2-1 2.7-1.4 4.1-1.1l52.5 8.5c2.5.4 4.3 2.5 4.3 5.1zm69.3 226.8c0 2.5-1.8 4.6-4.3 5l-45 7.6c-.3 0-.6.1-.8.1-1.2 0-2.4-.4-3.3-1.2-1.2-1-1.8-2.4-1.8-3.9v-77.5c0-2.7 2-4.9 4.7-5.1l45-3.9c1.4-.1 2.9.4 3.9 1.3 1.1 1 1.6 2.3 1.6 3.8zm0-110.7c0 2.7-2.1 5-4.9 5.1l-45 2h-.2c-1.3 0-2.6-.5-3.6-1.4-1-1-1.6-2.3-1.6-3.7v-77.5c0-1.4.6-2.7 1.6-3.7s2.3-1.5 3.8-1.4l45 1.7c2.8.1 4.9 2.4 4.9 5.1zm0-110.6c0 1.4-.6 2.8-1.6 3.8-.9.9-2.2 1.4-3.5 1.4h-.4l-45-3.6c-2.7-.2-4.7-2.4-4.7-5.1v-77.5c0-1.5.6-2.9 1.8-3.9 1.1-1 2.6-1.4 4.1-1.2l45 7.3c2.5.4 4.3 2.5 4.3 5.1z" fill="#bccdff"/></svg>
