<?xml version="1.0" encoding="UTF-8" standalone="no"?>
<!-- Svg Vector Icons : http://www.onlinewebfonts.com/icon -->

<svg
   version="1.1"
   x="0px"
   y="0px"
   viewBox="0 0 1000 1000"
   enable-background="new 0 0 1000 1000"
   xml:space="preserve"
   id="svg40"
   sodipodi:docname="maison.svg"
   inkscape:version="1.1.2 (0a00cf5339, 2022-02-04)"
   xmlns:inkscape="http://www.inkscape.org/namespaces/inkscape"
   xmlns:sodipodi="http://sodipodi.sourceforge.net/DTD/sodipodi-0.dtd"
   xmlns="http://www.w3.org/2000/svg"
   xmlns:svg="http://www.w3.org/2000/svg"><defs
   id="defs44" /><sodipodi:namedview
   id="namedview42"
   pagecolor="#ffffff"
   bordercolor="#666666"
   borderopacity="1.0"
   inkscape:pageshadow="2"
   inkscape:pageopacity="0.0"
   inkscape:pagecheckerboard="0"
   showgrid="false"
   inkscape:zoom="1.091"
   inkscape:cx="302.47479"
   inkscape:cy="500"
   inkscape:window-width="2560"
   inkscape:window-height="1376"
   inkscape:window-x="0"
   inkscape:window-y="0"
   inkscape:window-maximized="1"
   inkscape:current-layer="svg40" />
<metadata
   id="metadata2"> Svg Vector Icons : http://www.onlinewebfonts.com/icon </metadata>
<path
   d="m 987.3,411.3 c 0,0 -128.8,-224.3 -128.8,-224.3 -3,-4.5 -8.1,-7.5 -13.9,-7.5 -0.5,0 -266.6,38.7 -266.6,38.7 L 475.8,30.3 c -2.5,-5.2 -7.8,-8.7 -13.9,-8.7 -3.4,0 -6.5,1.1 -9,2.9 0,0 -377.7,275 -377.7,275 -1.8,1.3 -3.3,3 -4.4,5 L 11.9,410.6 c -3.2,5.8 -2.4,12.9 2.1,17.8 3,3.3 7.1,5 11.3,5 2.1,0 4.2,-0.4 6.2,-1.3 l 3.8,-1.7 v 384 c 0,5.6 3.1,10.8 8,13.5 L 314,976.2 c 2.3,1.4 5,2.2 7.9,2.2 1.6,0 3.2,-0.3 4.7,-0.7 L 632,900.6 758.6,938.2 c 0,0 3.8,1.1 5.8,1.1 2.3,0 4.5,-0.5 6.4,-1.3 l 171,-76.4 c 5.5,-2.5 9.1,-8 9.1,-14 V 430.7 l 20.6,4.2 c 1.1,0.2 2.1,0.3 3.1,0.3 0.1,0 0.1,0 0.2,0 8.4,-0.1 15.2,-6.9 15.2,-15.4 -0.1,-3.1 -1,-6 -2.7,-8.5 z M 88.1,752.2 c 0,1.7 -0.8,3.2 -2.2,4.2 -0.9,0.6 -1.9,0.9 -2.9,0.9 -0.6,0 -1.2,-0.1 -1.8,-0.3 l -22,-8.1 c -2,-0.8 -3.4,-2.6 -3.4,-4.8 v -76 c 0,-1.5 0.7,-3 1.9,-3.9 1.2,-1 2.7,-1.4 4.2,-1.1 l 22,4.1 c 2.4,0.4 4.2,2.6 4.2,5 z m 0,-119.9 c 0,1.4 -0.6,2.8 -1.7,3.8 -0.9,0.9 -2.2,1.3 -3.4,1.3 -0.2,0 -0.3,0 -0.5,0 l -22,-2.1 c -2.6,-0.2 -4.6,-2.5 -4.6,-5.1 v -76 c 0,-2.6 2,-4.9 4.7,-5.1 l 22,-1.8 c 1.4,-0.1 2.8,0.4 3.9,1.4 1,1 1.6,2.3 1.6,3.7 z m 0,-119.9 c 0,2.5 -1.8,4.6 -4.3,5.1 l -22,3.8 c -0.3,0 -0.6,0.1 -0.9,0.1 -1.2,0 -2.4,-0.4 -3.3,-1.2 -1.2,-1 -1.8,-2.4 -1.8,-3.9 v -75.9 c 0,-2.2 1.4,-4.1 3.4,-4.8 l 22,-7.8 c 1.6,-0.5 3.3,-0.3 4.7,0.6 1.4,1 2.1,2.5 2.1,4.2 z m 51.8,258.8 c 0,1.7 -0.8,3.3 -2.2,4.2 -0.9,0.6 -1.9,0.9 -2.9,0.9 -0.6,0 -1.2,-0.1 -1.8,-0.4 l -27.3,-10 c -2,-0.7 -3.4,-2.7 -3.4,-4.8 v -84.3 c 0,-1.5 0.7,-3 1.9,-4 1.2,-1 2.7,-1.4 4.2,-1.1 l 27.3,5.1 c 2.4,0.4 4.1,2.6 4.1,5 v 89.4 z m 0,-133.9 c 0,1.4 -0.6,2.8 -1.7,3.8 -1,0.9 -2.2,1.3 -3.4,1.3 -0.2,0 -0.3,0 -0.5,0 L 107,639.7 c -2.6,-0.3 -4.6,-2.4 -4.6,-5.1 v -84.3 c 0,-2.7 2,-4.9 4.7,-5.1 l 27.3,-2.3 c 1.4,-0.1 2.9,0.4 3.9,1.3 1.1,1 1.6,2.3 1.6,3.8 z m 0,-133.8 c 0,2.5 -1.8,4.6 -4.2,5 l -27.3,4.7 c -0.3,0 -0.6,0.1 -0.9,0.1 -1.2,0 -2.4,-0.4 -3.3,-1.2 -1.2,-1 -1.8,-2.4 -1.8,-3.9 v -84.3 c 0,-2.2 1.4,-4.1 3.4,-4.8 l 27.3,-9.6 c 1.6,-0.5 3.3,-0.3 4.7,0.6 1.4,1 2.1,2.5 2.1,4.2 z M 61,385.5 96,322.3 414.1,90.7 402.4,111.6 311,274.7 l -160.1,71 z m 144.3,409.8 c 0,1.7 -0.8,3.2 -2.2,4.2 -0.9,0.6 -1.9,0.9 -3,0.9 -0.6,0 -1.2,-0.1 -1.8,-0.3 l -34.7,-12.8 c -2,-0.8 -3.3,-2.7 -3.3,-4.8 v -94.8 c 0,-1.5 0.7,-3 1.9,-3.9 1.2,-1 2.7,-1.4 4.2,-1.1 l 34.7,6.5 c 2.4,0.4 4.2,2.6 4.2,5 z m 0,-151.6 c 0,1.4 -0.6,2.8 -1.7,3.8 -0.9,0.9 -2.2,1.3 -3.5,1.3 -0.2,0 -0.3,0 -0.5,0 l -34.7,-3.4 c -2.6,-0.3 -4.6,-2.5 -4.6,-5.1 v -94.8 c 0,-2.7 2,-4.9 4.7,-5.1 l 34.7,-2.9 c 1.4,-0.1 2.8,0.4 3.9,1.3 1.1,1 1.6,2.3 1.6,3.8 z m 0,-151.5 c 0,2.5 -1.8,4.6 -4.3,5 l -34.7,6 c -0.3,0 -0.6,0.1 -0.9,0.1 -1.2,0 -2.4,-0.4 -3.3,-1.2 -1.1,-1 -1.8,-2.4 -1.8,-3.9 v -94.8 c 0,-2.2 1.4,-4.1 3.4,-4.8 l 34.7,-12.3 c 1.6,-0.5 3.3,-0.3 4.7,0.6 1.3,1 2.1,2.5 2.1,4.2 z m 85.3,334.4 c 0,1.7 -0.8,3.2 -2.2,4.2 -0.9,0.6 -1.9,0.9 -2.9,0.9 -0.6,0 -1.2,-0.1 -1.8,-0.3 L 238,814.6 c -2,-0.8 -3.4,-2.7 -3.4,-4.8 V 701.7 c 0,-1.5 0.7,-3 1.8,-3.9 1.2,-1 2.7,-1.4 4.2,-1.1 l 45.7,8.6 c 2.4,0.4 4.2,2.6 4.2,5 z m 0,-174.6 c 0,1.4 -0.6,2.8 -1.7,3.8 -1,0.9 -2.2,1.3 -3.4,1.3 -0.2,0 -0.4,0 -0.5,0 l -45.7,-4.5 c -2.6,-0.2 -4.6,-2.5 -4.6,-5.1 V 539.4 c 0,-2.7 2,-4.9 4.7,-5.1 l 45.7,-3.8 c 1.4,-0.1 2.9,0.4 3.9,1.4 1.1,1 1.6,2.3 1.6,3.8 z m 0,-174.6 c 0,2.5 -1.8,4.6 -4.2,5 l -45.7,7.9 c -0.3,0 -0.6,0.1 -0.9,0.1 -1.2,0 -2.4,-0.4 -3.3,-1.2 -1.2,-1 -1.8,-2.4 -1.8,-3.9 V 377.2 c 0,-2.2 1.3,-4.1 3.4,-4.8 l 45.6,-16.1 c 1.6,-0.6 3.3,-0.3 4.7,0.6 1.4,1 2.2,2.5 2.2,4.2 z M 467,816.3 c 0,2.5 -1.8,4.6 -4.3,5.1 l -105.3,17.8 c -0.3,0.1 -0.6,0.1 -0.9,0.1 -1.2,0 -2.4,-0.4 -3.3,-1.2 -1.2,-1 -1.8,-2.4 -1.8,-3.9 V 714.1 c 0,-2.7 2,-4.9 4.7,-5.1 l 105.3,-9.1 c 1.4,-0.1 2.9,0.4 3.9,1.4 1,1 1.6,2.3 1.6,3.8 v 111.2 z m 0,-167 c 0,2.7 -2.2,5 -4.9,5.1 l -105.3,4.7 c -0.1,0 -0.2,0 -0.2,0 -1.3,0 -2.6,-0.5 -3.5,-1.4 -1,-1 -1.6,-2.3 -1.6,-3.7 V 534 c 0,-1.4 0.6,-2.8 1.6,-3.7 1,-1 2.4,-1.5 3.8,-1.4 l 105.3,4 c 2.7,0.1 4.9,2.4 4.9,5.1 z m 0,-167 c 0,1.4 -0.6,2.8 -1.6,3.8 -0.9,0.9 -2.2,1.4 -3.5,1.4 -0.1,0 -0.3,0 -0.4,0 L 356.1,479 c -2.6,-0.2 -4.7,-2.4 -4.7,-5.1 v -120 c 0,-1.5 0.6,-2.9 1.8,-3.9 1.2,-1 2.7,-1.4 4.1,-1.1 L 462.6,366 c 2.5,0.4 4.3,2.5 4.3,5 v 111.3 z m 132,311.6 c 0,2.5 -1.8,4.6 -4.3,5 l -84.9,14.4 c -0.3,0 -0.6,0.1 -0.8,0.1 -1.2,0 -2.4,-0.4 -3.3,-1.2 -1.2,-1 -1.8,-2.4 -1.8,-3.9 V 700.9 c 0,-2.7 2,-4.9 4.7,-5.1 l 84.9,-7.4 c 1.4,-0.1 2.9,0.4 3.9,1.3 1.1,1 1.7,2.4 1.7,3.8 z m 0,-150.5 c 0,2.7 -2.2,5 -4.9,5.1 l -84.9,3.8 c -0.1,0 -0.1,0 -0.2,0 -1.3,0 -2.6,-0.5 -3.6,-1.4 -1,-1 -1.6,-2.3 -1.6,-3.7 V 539.8 c 0,-1.4 0.5,-2.7 1.6,-3.7 1,-1 2.4,-1.5 3.8,-1.4 l 84.9,3.2 c 2.8,0.1 4.9,2.4 4.9,5.1 z m 0,-150.6 c 0,1.4 -0.6,2.8 -1.6,3.8 -1,0.9 -2.2,1.4 -3.5,1.4 -0.1,0 -0.3,0 -0.4,0 l -84.9,-6.8 c -2.7,-0.2 -4.7,-2.4 -4.7,-5.1 V 378.6 c 0,-1.5 0.6,-2.9 1.8,-3.9 1.1,-1 2.7,-1.4 4.1,-1.2 l 84.9,13.8 c 2.5,0.4 4.3,2.5 4.3,5.1 z m 140.3,422.1 c 0,1.6 -0.8,3.1 -2.1,4.1 -0.9,0.7 -2,1 -3.1,1 -0.5,0 -1,-0.1 -1.5,-0.2 l -65.8,-19.5 c -2.2,-0.6 -3.7,-2.6 -3.7,-4.9 V 687.1 c 0,-1.4 0.6,-2.8 1.7,-3.8 1.1,-1 2.5,-1.5 3.9,-1.3 l 65.8,5.9 c 2.6,0.3 4.7,2.5 4.7,5.1 z M 726.8,353.7 642.3,336.5 593.6,247 814.5,214.8 Z m 123.6,397.7 c 0,2.5 -1.8,4.6 -4.3,5 l -52.5,8.9 c -0.3,0 -0.6,0.1 -0.9,0.1 -1.2,0 -2.4,-0.4 -3.3,-1.2 -1.2,-1 -1.8,-2.4 -1.8,-3.9 v -83.9 c 0,-2.7 2.1,-4.9 4.7,-5.1 l 52.5,-4.5 c 1.4,-0.1 2.9,0.4 3.9,1.3 1,1 1.7,2.3 1.7,3.8 z m 0,-119.4 c 0,2.8 -2.2,5 -4.9,5.1 l -52.5,2.4 c -0.1,0 -0.2,0 -0.3,0 -1.3,0 -2.6,-0.5 -3.5,-1.4 -1,-1 -1.6,-2.3 -1.6,-3.7 v -83.9 c 0,-1.4 0.6,-2.7 1.6,-3.7 1,-1 2.3,-1.5 3.7,-1.5 l 52.5,2 c 2.8,0.1 4.9,2.4 4.9,5.1 V 632 Z m 0,-119.2 c 0,1.4 -0.6,2.8 -1.7,3.8 -0.9,0.9 -2.2,1.4 -3.5,1.4 -0.1,0 -0.3,0 -0.4,0 l -52.5,-4.2 c -2.6,-0.2 -4.7,-2.4 -4.7,-5.1 v -83.9 c 0,-1.5 0.7,-2.9 1.8,-3.9 1.2,-1 2.7,-1.4 4.1,-1.1 l 52.5,8.5 c 2.5,0.4 4.3,2.5 4.3,5.1 z m 69.3,226.8 c 0,2.5 -1.8,4.6 -4.3,5 l -45,7.6 c -0.3,0 -0.6,0.1 -0.8,0.1 -1.2,0 -2.4,-0.4 -3.3,-1.2 -1.2,-1 -1.8,-2.4 -1.8,-3.9 v -77.5 c 0,-2.7 2,-4.9 4.7,-5.1 l 45,-3.9 c 1.4,-0.1 2.9,0.4 3.9,1.3 1.1,1 1.6,2.3 1.6,3.8 z m 0,-110.7 c 0,2.7 -2.1,5 -4.9,5.1 l -45,2 c -0.1,0 -0.2,0 -0.2,0 -1.3,0 -2.6,-0.5 -3.6,-1.4 -1,-1 -1.6,-2.3 -1.6,-3.7 v -77.5 c 0,-1.4 0.6,-2.7 1.6,-3.7 1,-1 2.3,-1.5 3.8,-1.4 l 45,1.7 c 2.8,0.1 4.9,2.4 4.9,5.1 z m 0,-110.6 c 0,1.4 -0.6,2.8 -1.6,3.8 -0.9,0.9 -2.2,1.4 -3.5,1.4 -0.1,0 -0.3,0 -0.4,0 l -45,-3.6 c -2.7,-0.2 -4.7,-2.4 -4.7,-5.1 v -77.5 c 0,-1.5 0.6,-2.9 1.8,-3.9 1.1,-1 2.6,-1.4 4.1,-1.2 l 45,7.3 c 2.5,0.4 4.3,2.5 4.3,5.1 z"
   id="path4"
   style="fill:#9a9aff;fill-opacity:1" /><g
   id="g8" /><g
   id="g10" /><g
   id="g12" /><g
   id="g14" /><g
   id="g16" /><g
   id="g18" /><g
   id="g20" /><g
   id="g22" /><g
   id="g24" /><g
   id="g26" /><g
   id="g28" /><g
   id="g30" /><g
   id="g32" /><g
   id="g34" /><g
   id="g36" />
</svg>
