<svg data-name="Calque 1" width="140" height="50" xmlns="http://www.w3.org/2000/svg"><path style="fill:#fff;fill-opacity:1;stroke:none;stroke-linejoin:round" d="M0 0h1400v50H0z"/><g data-name="Groupe 1616"><g data-name="Groupe 1615"><path data-name="Tracé 6274" d="M58.05 44.056a105.99 105.99 0 0 0 1.65-1.685 32.635 32.635 0 0 1 3.164-3.213 9.82 9.82 0 0 1 1.083-.806c.084-.084.084-.289.193-.397-.482.193-.77.566-1.204.758-.084 0-.204-.084-.084-.192l1.023-.758c-.084 0-.084-.085-.084-.193a3.899 3.899 0 0 0-3.08 1.42c-.205.084-.398-.084-.482-.084-1.456.481-2.515 1.709-3.947 2.262v-.192a16.847 16.847 0 0 1-1.745.673 10.59 10.59 0 0 1-2.407.085 29.001 29.001 0 0 0-3.514.613h-.108a8.628 8.628 0 0 0-1.805.698h-.06c-.06 0-.085.109-.145.157a2.298 2.298 0 0 1-.662.565 9.82 9.82 0 0 0-1.588 1.204.253.253 0 0 1-.144 0c-.518.469-1.035.974-1.553 1.456a.433.433 0 0 1-.277 0v-.084l.265-.398.289-.445.397-.59v-.108a.373.373 0 0 0-.144 0 9.76 9.76 0 0 1 1.624-1.203s-.168 0-.108-.084l.168-.253v-.084l-.108-.012c-.144.108-.313.192-.457.3s-.397.614-.77.614a.3.3 0 0 1-.145 0h-.108l.06-.084c.06-.084 0 0 0-.084a.313.313 0 0 0 0-.109v-.084l.12-.192a.614.614 0 0 0 0-.12.566.566 0 0 1 .133-.157c0-.084 0-.145-.084-.169a2.106 2.106 0 0 1 .65-.565c.373-.193.746-.385 1.107-.614l.18-.144a6.197 6.197 0 0 0-1.552.758l-.169.084a.24.24 0 0 1-.228-.084s.397-.289.565-.482c.084 0 .205 0 .205.085 3.08-2.347 7.34-1.793 10.83-3.02l.855-.554c.48-.205.866-.674 1.456-.95a4.055 4.055 0 0 0 1.949-2.372.614.614 0 0 0-.084-.204 15.03 15.03 0 0 1-4.26 3.105c-2.034 1.034-4.26.842-6.366 1.143.084-.193.277-.193.481-.193 0-.277.193-.397.398-.565h.204c.084 0 .084-.193.193-.193s.481-.084.397-.084c-.277-.385-.855.277-1.336 0 .205-.193.084-.47.289-.554h.457a.686.686 0 0 1 .193-.397c1.456-.842 2.803-1.504 4.151-2.262-.289 0-.481.277-.782.084.205 0 0-.277.205-.277 1.059-.276 1.937-.842 2.996-1.203-.397 0-.686.277-1.059 0 .205-.084.289-.289.578-.289v-.277c0-.084.084-.084.204-.084a.433.433 0 0 1-.204-.084c.084-.193.397-.084.565-.277-.084 0-.277 0-.277-.084a1.769 1.769 0 0 1 1.204-.554c-.084-.204-.397 0-.397-.204s.084-.084.204-.084h-.204c-.205-.085-.084-.277-.084-.386a6.715 6.715 0 0 0 .854-2.262c-.084 0-.205 0-.205-.084a7.846 7.846 0 0 1-3.935 1.78h-.397a1.925 1.925 0 0 1-1.624-.083 6.534 6.534 0 0 1-.975-.746A12.9 12.9 0 0 0 48.23 28.7a21.913 21.913 0 0 0-7.425-1.035 17.954 17.954 0 0 1 3.37-.95 14.826 14.826 0 0 1 4.91-.951 4.404 4.404 0 0 0-.975 0 17.16 17.16 0 0 0-4.14.566c-.974.192-1.829.553-2.804.758-.565.192-.854.746-1.54.661v-.228a5.463 5.463 0 0 1 3.61-2.347 18.664 18.664 0 0 1 5.115.193 25.391 25.391 0 0 1 3.61.674c.481 0 .565.758.962.842.397.084 1.204 0 1.745.397 0-.204-.084-.397 0-.565.397-.385.855.084 1.204-.085.782-.469-.686-1.311-1.047-1.985a.397.397 0 0 1 .084-.193 10.999 10.999 0 0 0 2.407 1.865c.481.193 1.624.47 1.456-.084a14.874 14.874 0 0 0-2.227-2.828v-.385c-.204 0-.204-.084-.288-.204v-.385c-.397-.193-.29-.566-.482-.843-.289-.481-.084-1.143-.289-1.709a11.793 11.793 0 0 1-.397-1.588c-.288-1.588-.686-3.02-.854-4.525-.205-1.793 1.047-3.213 1.937-4.813a8.267 8.267 0 0 1 2.708-3.02 8.099 8.099 0 0 1 1.841-3.009 8.424 8.424 0 0 1 2.96-1.877 24.452 24.452 0 0 1 2.576-.951H0v49.856h46.86a41.348 41.348 0 0 1 6.233-3.177 24.97 24.97 0 0 0 4.958-2.72zm-14.873-6.775c-.193 0-.566.084-.481-.084.084-.47.77-.47 1.203-.662.205-.084.481-.277.686-.204.205.288.481.204.686.397-.638.553-1.408.276-2.094.553zm-14.73-2.058a.361.361 0 0 1-.095-.204 27.22 27.22 0 0 0 3.092-4.814 13.454 13.454 0 0 0 3.285-2.683 18.724 18.724 0 0 1 5.391-4.164 3.911 3.911 0 0 1 2.516.084c-.29.398-.77.277-1.204.566a.41.41 0 0 1-.229-.096.361.361 0 0 0 .085-.29c-.975 1.036-2.31 1.517-3.08 2.745-.579.95-.976 2.178-2.227 2.406-.397.085.084-.276-.084-.192a32.647 32.647 0 0 0-7.45 6.642zm7.943-6.233c-.084.192-.205.192-.289.385a.758.758 0 0 1-.397.397c-.084 0-.192 0-.192-.084a1.059 1.059 0 0 1 .77-.842c.108-.025.108.06.108.144zm4.537 14.176a1.276 1.276 0 0 1-.229.276c.108 0 .193.085.108.145a1.974 1.974 0 0 1-.746.493h-.132l-.373.337c-.12.108-.662 0-.481-.12.18-.12.48-.445.71-.662l.397-.361a.662.662 0 0 1 .204-.205c.109-.084.602-.132.542.097zm-1.745-.783c-.361.253-.734.506-1.12.722-.384.217-.854.422-1.287.614a.108.108 0 0 0-.144 0 4.031 4.031 0 0 0-.963.722c-.06 0-.096.084-.144.133l-.145.144a1.745 1.745 0 0 0-.204.217.818.818 0 0 1-.145.144s-.228 0-.192-.084l-.18.084a.313.313 0 0 0-.133.084l-.337.277a3.815 3.815 0 0 0-.578.59v.084a.096.096 0 0 1-.084 0 .445.445 0 0 0-.084-.144 4.152 4.152 0 0 1 .313-.337s0-.085.12-.109c.12-.024.108-.132.168-.192.06-.06 0 0 0-.085l.313-.397s.085-.144.145-.204a1.035 1.035 0 0 0 .12-.193c0-.084 0-.144.084-.228v-.06a.77.77 0 0 0 0-.109v-.132l.373-.506a2.274 2.274 0 0 0-.373.301c-.12.084-.289-.06-.18-.144.108-.084.144-.133.228-.193.18-.144.325-.36.482-.481a1.3 1.3 0 0 0 .289-.217 1.203 1.203 0 0 1 .228-.252c.915-.867 2.48-.843 3.683-1.396.48-.205 1.059.084 1.54 0a1.324 1.324 0 0 1 .854.192c-.854.47-1.66.999-2.406 1.48zm2.021-6.606c-.084-.084.277 0 .398-.193h-.77c-.085 0-.085-.084-.085-.204-.481.084-1.059.289-1.552.397-.686.193-1.203.674-2.022.842-1.059.361-1.937 1.204-3.08 1.589-.085 0-.085-.084-.085-.193s.482-.36.686-.674c0-.084 0-.192-.096-.192a18.724 18.724 0 0 1 2.804-2.407v-.289c.289-.36.77-.553.975-1.023a1.588 1.588 0 0 1 .962-.842c-.084-.084-.277-.084-.277-.289-.397 0-.77.205-1.203-.084a1.757 1.757 0 0 1 .602-.337.373.373 0 0 1-.229-.132c-.084-.193.205-.397.482-.482a2.19 2.19 0 0 0 1.203-.385c-.686-.084-1.456.193-2.118-.192a5.078 5.078 0 0 1 2.407-2.828c.084 0 .276 0 .276.084a.939.939 0 0 1-.77.95 11.576 11.576 0 0 1 2.31.566c-.083.193-.276.085-.396.085.481.276 1.059.084 1.54.469-.277.277-.566 0-.854 0 2.996.842 6.173 1.504 8.688 3.405a26.98 26.98 0 0 1-6.655 1.986 2.058 2.058 0 0 1-.77-.084c0 .084 0 .288-.096.288a1.504 1.504 0 0 0-.963.193 1.203 1.203 0 0 1-1.312-.024z" fill="#000091"/><g data-name="Groupe 1614"><path data-name="Tracé 6275" d="M140.313 0H85.415a2.828 2.828 0 0 1 .518.23c.457.216 1.023.529 1.372.721a4.368 4.368 0 0 1 1.829 1.505c.192.276.481.842.277 1.203-.205.361-.277 1.203-.77 1.432a3.742 3.742 0 0 1-2.022.193 4.392 4.392 0 0 1-1.204-.193 7.894 7.894 0 0 1 3.779 2.54c.084.192.481.276.854.276.085 0 .085.204.085.289-.205.192-.398.276-.29.553h.29c.48-.192.373-1.143 1.058-.842a1.071 1.071 0 0 1 .398 1.432 9.82 9.82 0 0 1-1.204.95.927.927 0 0 0 0 .674 2.828 2.828 0 0 1 .482 1.204c.288.674.397 1.432.685 2.07a13.093 13.093 0 0 1 .686 4.248c0 .758-.397 1.42-.084 2.178a8.736 8.736 0 0 0 1.06 1.985 16.005 16.005 0 0 1 1.046 1.504c.578.951 1.637 1.902 1.203 3.02-.288.675-1.347.566-2.033.952-.686.385-.084 1.203.204 1.708.482.843-.577 1.42-1.203 1.71.205.276.578.192.686.384.096.482.577.758.289 1.204s-1.54.842-.975 1.708a2.647 2.647 0 0 1-1.528 3.406l-.361.108a3.61 3.61 0 0 1-1.83.084 1.637 1.637 0 0 0-.577-.192 42.226 42.226 0 0 0-4.814-.71 4.452 4.452 0 0 0-1.347.397 7.653 7.653 0 0 0-1.204.999 1.203 1.203 0 0 0-.192.228s-.097.085-.12.133l-.085.084a8.544 8.544 0 0 0-.77 1.095v.084a.903.903 0 0 1-.084.145 11.01 11.01 0 0 0-.734 1.733c-.662 2.142-.373 4.019.084 4.464.108.108 3.165 1.035 5.307 1.986.999.445 1.685.782 2.286 1.119h53.9z" fill="#e1000f"/></g><path data-name="Tracé 6276" d="M88.7 18.22c.398.084.975.084.975.289-.204.746-1.348.95-1.95 1.696h-.276c-.289.205-.205.674-.481.674a1.48 1.48 0 0 0-.855.084 1.588 1.588 0 0 0 1.456.566.445.445 0 0 1 .277.385.433.433 0 0 0 .205-.084c.084 0 .192 0 .192.084v.361c-.277.361-.77.193-1.203.277a4.116 4.116 0 0 0 2.226 0c.578-.193 0-1.143.397-1.589-.192 0 0-.276-.192-.276.192-.205.373-.482.565-.566a.65.65 0 0 0 .578-.277c0-.192-.373-.276-.289-.481.578-.361 1.059-.95.854-1.504-.084-.277-.854-.277-1.335-.47a3.105 3.105 0 0 0-1.625.085 6.655 6.655 0 0 0-1.456.385 6.462 6.462 0 0 0-1.829.95 11.54 11.54 0 0 1 2.106-.553 5.259 5.259 0 0 1 1.66-.036z" fill="#9d9d9c"/></g></g></svg>