<svg width="100" height="100" viewBox="0 0 100 100" fill="none" xmlns="http://www.w3.org/2000/svg">
<path fill-rule="evenodd" clip-rule="evenodd" d="M87.5 86.25C86.8107 86.25 86.25 85.6893 86.25 85C86.25 84.3107 86.8107 83.75 87.5 83.75C88.1893 83.75 88.75 84.3107 88.75 85C88.75 85.6893 88.1893 86.25 87.5 86.25Z" fill="#CACAFB"/>
<path fill-rule="evenodd" clip-rule="evenodd" d="M85 16.25C84.3107 16.25 83.75 15.6893 83.75 15C83.75 14.3107 84.3107 13.75 85 13.75C85.6893 13.75 86.25 14.3107 86.25 15C86.25 15.6893 85.6893 16.25 85 16.25Z" fill="#CACAFB"/>
<path fill-rule="evenodd" clip-rule="evenodd" d="M17.5 86.25C16.8107 86.25 16.25 85.6893 16.25 85C16.25 84.3107 16.8107 83.75 17.5 83.75C18.1893 83.75 18.75 84.3107 18.75 85C18.75 85.6893 18.1893 86.25 17.5 86.25Z" fill="#CACAFB"/>
<path fill-rule="evenodd" clip-rule="evenodd" d="M24.2457 15.0078C24.4945 15.0026 24.7461 15 25 15L25.3791 15.002C25.5048 15.0033 25.6299 15.0052 25.7543 15.0078L26.4921 15.0312L27.2118 15.0703C27.5668 15.0937 27.9143 15.1229 28.2532 15.158L28.9194 15.2359C32.5175 15.7072 35 16.8832 35 18.75V26.25C35 26.9404 34.4404 27.5 33.75 27.5C33.109 27.5 32.5806 27.0174 32.5084 26.3958L32.5 26.25V21.4076C31.5236 21.797 30.3042 22.0827 28.9194 22.2641L28.2532 22.342C27.9143 22.3771 27.5668 22.4063 27.2118 22.4297L26.4921 22.4688L25.7543 22.4922C25.5055 22.4974 25.2539 22.5 25 22.5C24.7461 22.5 24.4945 22.4974 24.2457 22.4922L23.5079 22.4688L22.7882 22.4297C22.4332 22.4063 22.0857 22.3771 21.7468 22.342L21.0806 22.2641C17.4825 21.7928 15 20.6168 15 18.75C15 16.8832 17.4825 15.7072 21.0806 15.2359L21.7468 15.158C22.0857 15.1229 22.4332 15.0937 22.7882 15.0703L23.5079 15.0312L24.2457 15.0078ZM32.5 18.75L32.4727 18.7325C32.1889 18.5717 31.7884 18.4088 31.2921 18.2583L31.0361 18.1841C29.4764 17.7527 27.317 17.5 25.0006 17.5C22.6843 17.5 20.5249 17.7527 18.9652 18.1841C18.4376 18.3301 18.0022 18.4909 17.6801 18.652L17.5 18.75L17.7127 18.8641C17.9764 18.993 18.3122 19.1213 18.7092 19.2417L18.9652 19.3159C20.5249 19.7473 22.6843 20 25.0006 20C27.317 20 29.4764 19.7473 31.0361 19.3159C31.5637 19.1699 31.999 19.0091 32.3212 18.848L32.5 18.75Z" fill="#E1000F"/>
<path d="M74.6646 62.2549C73.3403 60.824 71.5284 60 69.5939 60C66.5002 60 63.8768 62.0903 62.9039 65H61.25L61.1042 65.0084C60.4826 65.0806 60 65.609 60 66.25C60 66.9404 60.5596 67.5 61.25 67.5H62.5C62.5 67.9258 62.5336 68.3434 62.5982 68.75H61.25L61.1042 68.7584C60.4826 68.8306 60 69.359 60 70C60 70.6904 60.5596 71.25 61.25 71.25H63.4492C64.6745 73.4899 66.9644 75 69.5939 75C71.3588 75 73.0248 74.3145 74.314 73.099C74.8075 72.6337 74.8425 71.843 74.3922 71.3331C73.9419 70.8231 73.1768 70.7869 72.6833 71.2523C71.8342 72.0529 70.7474 72.5 69.5939 72.5C68.4105 72.5 67.3273 72.0285 66.5022 71.25H68.75L68.8958 71.2416C69.5174 71.1694 70 70.641 70 70C70 69.3096 69.4404 68.75 68.75 68.75H65.0665C64.9705 68.3507 64.9194 67.9319 64.9194 67.5H68.75L68.8958 67.4916C69.5174 67.4194 70 66.891 70 66.25C70 65.5596 69.4404 65 68.75 65H65.5445C66.354 63.5036 67.8674 62.5 69.5939 62.5C70.8584 62.5 72.0419 63.0382 72.9161 63.9828C73.3778 64.4817 74.1436 64.4994 74.6264 64.0222C75.1092 63.5451 75.1263 62.7538 74.6646 62.2549Z" fill="#E1000F"/>
<path d="M16.25 25C16.891 25 17.4194 25.4387 17.4916 26.0038L17.5 26.1364V48.8636C17.5 49.4912 16.9404 50 16.25 50C15.609 50 15.0806 49.5613 15.0084 48.9962L15 48.8636V26.1364C15 25.5088 15.5596 25 16.25 25Z" fill="#E1000F"/>
<path d="M16.25 55C16.9404 55 17.5 54.4404 17.5 53.75C17.5 53.0596 16.9404 52.5 16.25 52.5C15.5596 52.5 15 53.0596 15 53.75C15 54.4404 15.5596 55 16.25 55Z" fill="#E1000F"/>
<path fill-rule="evenodd" clip-rule="evenodd" d="M75 35C74.7461 35 74.4945 35.0026 74.2458 35.0078L73.5079 35.0312L72.7882 35.0703C72.4332 35.0937 72.0857 35.1229 71.7468 35.158L71.0806 35.2359C67.4825 35.7072 65 36.8832 65 38.75C65 40.6168 67.4825 41.7928 71.0806 42.2641L71.7468 42.342C72.0857 42.3771 72.4332 42.4063 72.7882 42.4297L73.5079 42.4688L74.2458 42.4922C74.4945 42.4974 74.7461 42.5 75 42.5C75.2539 42.5 75.5055 42.4974 75.7542 42.4922L76.4921 42.4688L77.2118 42.4297C77.5668 42.4063 77.9143 42.3771 78.2532 42.342L78.9194 42.2641C80.3042 42.0827 81.5237 41.797 82.5 41.4076V46.25L82.5084 46.3958C82.5806 47.0174 83.109 47.5 83.75 47.5C84.4404 47.5 85 46.9404 85 46.25V38.75C85 36.8832 82.5175 35.7072 78.9194 35.2359L78.2532 35.158C77.9143 35.1229 77.5668 35.0937 77.2118 35.0703L76.4921 35.0312L75.7542 35.0078C75.6299 35.0052 75.5048 35.0033 75.3791 35.002L75 35ZM82.3212 38.848L82.5 38.75L82.4727 38.7325C82.1889 38.5717 81.7884 38.4088 81.2921 38.2583L81.0361 38.1841C79.4764 37.7527 77.317 37.5 75.0006 37.5C72.6843 37.5 70.5249 37.7527 68.9652 38.1841C68.4376 38.3301 68.0022 38.4909 67.6801 38.652L67.5 38.75L67.7127 38.8641C67.9764 38.993 68.3122 39.1213 68.7092 39.2417L68.9652 39.3159C70.5249 39.7473 72.6843 40 75.0006 40C77.317 40 79.4764 39.7473 81.0361 39.3159C81.5637 39.1699 81.999 39.0091 82.3212 38.848Z" fill="#E1000F"/>
<path d="M67.4916 43.6042C67.4194 42.9825 66.891 42.5 66.25 42.5C65.5596 42.5 65 43.0596 65 43.75V48.75L65.0084 48.8958C65.0806 49.5174 65.609 50 66.25 50C66.9404 50 67.5 49.4404 67.5 48.75V43.75L67.4916 43.6042Z" fill="#E1000F"/>
<path fill-rule="evenodd" clip-rule="evenodd" d="M45.8275 27.5L44.9925 27.515C44.8545 27.5188 44.7171 27.5231 44.5804 27.5281L43.7678 27.5654L42.9719 27.6173C42.5784 27.6469 42.1917 27.6819 41.8125 27.7223L41.0645 27.8101C40.9416 27.826 40.8196 27.8424 40.6985 27.8594L39.9835 27.9683C35.5285 28.7024 32.5 30.2712 32.5 32.4991V38.2145L32.5061 38.3998C32.5091 38.4452 32.5132 38.4904 32.5184 38.5353C32.5063 38.6051 32.5 38.6768 32.5 38.75V44.4645L32.5061 44.6498C32.5091 44.6952 32.5132 44.7404 32.5184 44.7853C32.5063 44.8551 32.5 44.9268 32.5 45V50.7145L32.5061 50.8998C32.5091 50.945 32.5131 50.9899 32.5183 51.0346C32.5063 51.1042 32.5 51.1759 32.5 51.2489V56.9634L32.5061 57.1487C32.5177 57.3239 32.5457 57.4956 32.5894 57.6636C32.4039 57.6469 32.2168 57.6315 32.0281 57.6173L31.2322 57.5654L30.4196 57.5281C30.2829 57.5231 30.1455 57.5188 30.0075 57.515L29.1725 57.5H28.3275L27.4925 57.515C27.3545 57.5188 27.2171 57.5231 27.0804 57.5281L26.2678 57.5654L25.4719 57.6173C25.0784 57.6469 24.6917 57.6819 24.3125 57.7223L23.5645 57.8101C23.4416 57.826 23.3196 57.8424 23.1985 57.8594L22.4835 57.9683C18.0285 58.7024 15 60.2712 15 62.4991V68.2138L15.0061 68.3991C15.0091 68.4445 15.0132 68.4897 15.0184 68.5347C15.0063 68.6045 15 68.6763 15 68.7495V74.464L15.0061 74.6493C15.1681 77.1023 18.5475 78.8571 23.3139 79.6021L24.0391 79.7062C24.2841 79.7384 24.5324 79.768 24.7837 79.795L25.5463 79.8681C26.5746 79.9552 27.6474 79.9999 28.75 79.9999C29.8526 79.9999 30.9254 79.9552 31.9537 79.8681L32.7163 79.795C32.9676 79.768 33.2159 79.7384 33.4609 79.7062L34.1861 79.6021C38.8583 78.8718 42.1977 77.1713 42.4805 74.794C43.6729 74.93 44.9179 75 46.1873 75C49.3001 75 53.1133 74.6021 55.23 74.0046C57.6529 79.0313 62.7964 82.5 68.75 82.5C77.0343 82.5 83.75 75.784 83.75 67.4995C83.75 59.2149 77.0343 52.499 68.75 52.499C65.4845 52.499 62.4628 53.5425 60 55.3142V51.2489L59.9916 51.1031C59.9902 51.0915 59.9887 51.0799 59.9871 51.0684C59.9854 51.0571 59.9836 51.0458 59.9817 51.0346C59.9939 50.9292 60 50.8225 60 50.7145V45L59.9916 44.8543C59.9889 44.8311 59.9856 44.8081 59.9816 44.7853C59.9938 44.6797 60 44.5728 60 44.4645V38.75L59.9916 38.6043C59.9889 38.5811 59.9856 38.5581 59.9816 38.5353C59.9938 38.4297 60 38.3228 60 38.2145V32.5C60 30.3308 57.1288 28.7854 52.8652 28.028L52.1618 27.9121C51.9235 27.8758 51.6813 27.8418 51.4355 27.8101L50.6875 27.7223C50.3083 27.6819 49.9216 27.6469 49.5281 27.6173L48.7322 27.5654L47.9196 27.5281C47.7829 27.5231 47.6455 27.5188 47.5075 27.515L46.6725 27.5H45.8275ZM55.0752 61.3259C54.0594 61.6484 52.9192 61.9088 51.6861 62.1015L50.9609 62.2056C50.7159 62.2378 50.4676 62.2674 50.2163 62.2944L49.4537 62.3675C48.4254 62.4546 47.3526 62.4993 46.25 62.4993C45.1474 62.4993 44.0746 62.4546 43.0463 62.3675L42.493 62.3145C42.4977 62.3755 42.5 62.437 42.5 62.4991V65.7412C43.6922 65.8896 44.95 65.9666 46.2375 65.9666C48.7817 65.9666 51.8138 65.6745 53.9212 65.2256C54.1295 63.8561 54.5229 62.5474 55.0752 61.3259ZM53.7612 68.0845C51.5438 68.4973 48.6881 68.75 46.2375 68.75C44.9509 68.75 43.6894 68.6781 42.4822 68.5386L42.4861 68.5626L42.4895 68.5869L42.4916 68.6037L42.5 68.7495V72.0065C43.6772 72.151 44.9178 72.2259 46.1873 72.2259C48.9389 72.2259 52.3099 71.8906 54.2644 71.4086C53.9775 70.3428 53.8051 69.2301 53.7612 68.0845ZM35 38.2145V35.5569C36.2039 36.1667 37.7889 36.6422 39.6348 36.9701L40.3382 37.086C40.5765 37.1223 40.8187 37.1563 41.0645 37.188L41.8125 37.2758C42.1917 37.3162 42.5784 37.3512 42.9719 37.3808L43.7678 37.4327L44.5804 37.47C44.7171 37.475 44.8545 37.4793 44.9925 37.4831L45.8275 37.4981C45.9678 37.4994 46.1086 37.5 46.25 37.5L46.6725 37.4981L47.5075 37.4831C47.6455 37.4793 47.7829 37.475 47.9196 37.47L48.7322 37.4327L49.5281 37.3808C49.9216 37.3512 50.3083 37.3162 50.6875 37.2758L51.4355 37.188C51.5584 37.1722 51.6804 37.1557 51.8015 37.1388L52.5165 37.0298C54.5118 36.701 56.2209 36.2048 57.5 35.5569V38.2145L57.4913 38.2909C57.3922 38.7398 56.4517 39.4563 54.6834 40.0626C52.4942 40.8132 49.48 41.2503 46.25 41.2503C43.02 41.2503 40.0058 40.8132 37.8166 40.0626C35.9443 39.4207 35 38.6552 35 38.2145ZM35.9659 33.3399C35.3455 33.0474 35 32.7554 35 32.5005C35 32.2456 35.3455 31.9535 35.9659 31.661L36.2986 31.5149C36.4169 31.4663 36.5426 31.4179 36.6752 31.3697L37.0937 31.2265C37.2399 31.1792 37.3928 31.1325 37.5521 31.0863L38.0484 30.9501C38.1342 30.9278 38.2215 30.9057 38.3102 30.8838L38.8598 30.7556C39.0486 30.7139 39.2429 30.6732 39.4424 30.6339L40.0561 30.5197L40.6989 30.4142C40.8084 30.3974 40.919 30.381 41.0306 30.365L41.7135 30.2743L42.4205 30.1947L43.1498 30.1273C43.3963 30.107 43.6463 30.0889 43.8993 30.0732L44.6672 30.0332L45.4514 30.0085C45.5833 30.0057 45.7159 30.0036 45.849 30.0021L46.25 30C46.5184 30 46.7847 30.0029 47.0486 30.0085L47.8328 30.0332L48.6007 30.0732C48.8537 30.0889 49.1037 30.107 49.3502 30.1273L50.0795 30.1947L50.7865 30.2743L51.4694 30.365L52.126 30.4658C52.2332 30.4834 52.3391 30.5014 52.4439 30.5197L53.0576 30.6339C53.1574 30.6535 53.2558 30.6735 53.3529 30.6938L53.9193 30.819C54.1025 30.8617 54.28 30.9055 54.4516 30.9501L54.9479 31.0863C55.0275 31.1094 55.1056 31.1326 55.182 31.156L55.6207 31.2978C55.8299 31.3695 56.0239 31.442 56.2014 31.5149L56.5341 31.661C57.1545 31.9535 57.5 32.2456 57.5 32.5005C57.5 32.7554 57.1545 33.0474 56.5341 33.3399L56.2014 33.486C56.0831 33.5346 55.9574 33.5831 55.8248 33.6312L55.4063 33.7744C55.2601 33.8217 55.1072 33.8685 54.9479 33.9146L54.4516 34.0508C54.3658 34.0731 54.2785 34.0952 54.1898 34.1171L53.6402 34.2454C53.4514 34.2871 53.2571 34.3277 53.0576 34.3671L52.4439 34.4812L51.8011 34.5867C51.6916 34.6036 51.581 34.62 51.4694 34.636L50.7865 34.7267L50.0795 34.8062L49.3502 34.8736C49.1037 34.8939 48.8537 34.912 48.6007 34.9278L47.8328 34.9677L47.0486 34.9925C46.7847 34.9981 46.5184 35.0009 46.25 35.0009C45.9816 35.0009 45.7153 34.9981 45.4514 34.9925L44.6672 34.9677L43.8993 34.9278C43.6463 34.912 43.3963 34.8939 43.1498 34.8736L42.4205 34.8062L41.7135 34.7267L41.0306 34.636L40.374 34.5351C40.2668 34.5175 40.1609 34.4995 40.0561 34.4812L39.4424 34.3671C39.3426 34.3474 39.2442 34.3274 39.1471 34.3071L38.5807 34.182C38.3975 34.1392 38.22 34.0954 38.0484 34.0508L37.5521 33.9146C37.4724 33.8916 37.3944 33.8683 37.318 33.8449L36.8793 33.7031C36.6701 33.6315 36.4761 33.5589 36.2986 33.486L35.9659 33.3399ZM35 44.4645V41.5546C36.4559 42.374 38.4667 42.9857 40.8139 43.3526L41.5391 43.4568C41.7841 43.4889 42.0324 43.5185 42.2837 43.5455L43.0463 43.6187C44.0746 43.7057 45.1474 43.7504 46.25 43.7504C47.3526 43.7504 48.4254 43.7057 49.4537 43.6187L50.2163 43.5455C50.4676 43.5185 50.7159 43.4889 50.9609 43.4568L51.6861 43.3526C54.0333 42.9857 56.0441 42.374 57.5 41.5546V44.4645L57.4913 44.5409C57.3922 44.9898 56.4517 45.7063 54.6834 46.3126C52.4942 47.0632 49.48 47.5003 46.25 47.5003C43.02 47.5003 40.0058 47.0632 37.8166 46.3126C35.9443 45.6707 35 44.9052 35 44.4645ZM40 71.5539C38.5441 72.3733 36.5333 72.985 34.1861 73.3519L33.4609 73.456C33.2159 73.4882 32.9676 73.5178 32.7163 73.5448L31.9537 73.6179C30.9254 73.7049 29.8526 73.7497 28.75 73.7497C27.6474 73.7497 26.5746 73.7049 25.5463 73.6179L24.7837 73.5448C24.5324 73.5178 24.2841 73.4882 24.0391 73.456L23.3139 73.3519C20.9667 72.985 18.9559 72.3733 17.5 71.5539V74.464C17.5 74.9047 18.4443 75.6702 20.3166 76.3121C22.5058 77.0627 25.52 77.4998 28.75 77.4998C31.98 77.4998 34.9942 77.0627 37.1834 76.3121C38.9517 75.7058 39.8922 74.9893 39.9913 74.5404L40 74.464V71.5539ZM35 47.8046C36.4559 48.624 38.4667 49.2357 40.8139 49.6026L41.5391 49.7068C41.7841 49.7389 42.0324 49.7685 42.2837 49.7955L43.0463 49.8687C44.0746 49.9557 45.1474 50.0004 46.25 50.0004C47.3526 50.0004 48.4254 49.9557 49.4537 49.8687L50.2163 49.7955C50.4676 49.7685 50.7159 49.7389 50.9609 49.7068L51.6861 49.6026C54.0333 49.2357 56.0441 48.624 57.5 47.8046V50.7145L57.4913 50.7909C57.3922 51.2398 56.4517 51.9563 54.6834 52.5626C52.4942 53.3132 49.48 53.7503 46.25 53.7503C43.02 53.7503 40.0058 53.3132 37.8166 52.5626C35.9443 51.9207 35 51.1552 35 50.7145V47.8046ZM57.5 56.9634V54.0546C56.0441 54.874 54.0333 55.4857 51.6861 55.8526L50.9609 55.9568C50.7159 55.9889 50.4676 56.0185 50.2163 56.0455L49.4537 56.1187C48.4254 56.2057 47.3526 56.2504 46.25 56.2504C45.1474 56.2504 44.0746 56.2057 43.0463 56.1187L42.2837 56.0455C42.0324 56.0185 41.7841 55.9889 41.5391 55.9568L40.8139 55.8526C38.4667 55.4857 36.4559 54.874 35 54.0546V56.9634C35 57.2784 35.4826 57.7594 36.4417 58.2426C37.7624 58.5365 38.9182 58.9142 39.8563 59.3699C41.7265 59.7742 43.9327 59.9992 46.25 59.9992C49.48 59.9992 52.4942 59.5621 54.6834 58.8115C56.4517 58.2052 57.3922 57.4887 57.4913 57.0398L57.5 56.9634ZM39.3734 61.8366C37.9757 61.5382 36.7331 61.1437 35.7019 60.6627C35.6541 60.653 35.606 60.6434 35.5576 60.6339L34.9439 60.5197C34.8391 60.5014 34.7332 60.4834 34.626 60.4658L33.9694 60.365L33.2865 60.2743L32.5795 60.1947L31.8502 60.1273C31.6037 60.107 31.3537 60.0889 31.1007 60.0732L30.3328 60.0332L29.5486 60.0085C29.2847 60.0029 29.0184 60 28.75 60L28.349 60.0021C28.2159 60.0036 28.0833 60.0057 27.9514 60.0085L27.1672 60.0332L26.3993 60.0732C26.1463 60.0889 25.8963 60.107 25.6498 60.1273L24.9205 60.1947L24.2135 60.2743L23.5306 60.365C23.419 60.381 23.3084 60.3974 23.1989 60.4142L22.5561 60.5197L21.9424 60.6339C21.7429 60.6732 21.5486 60.7139 21.3598 60.7556L20.8102 60.8839C20.7215 60.9057 20.6342 60.9278 20.5484 60.9501L20.0521 61.0863C19.8928 61.1325 19.7399 61.1792 19.5937 61.2265L19.1752 61.3697C19.0426 61.4179 18.9169 61.4663 18.7986 61.5149L18.4659 61.661C17.8455 61.9535 17.5 62.2456 17.5 62.5005C17.5 62.7554 17.8455 63.0474 18.4659 63.3399L18.7986 63.486C18.9761 63.5589 19.1701 63.6315 19.3793 63.7031L19.818 63.8449C19.8944 63.8683 19.9724 63.8916 20.0521 63.9146L20.5484 64.0508C20.72 64.0954 20.8975 64.1392 21.0807 64.182L21.6471 64.3071C21.7442 64.3274 21.8426 64.3474 21.9424 64.3671L22.5561 64.4812C22.6609 64.4995 22.7668 64.5175 22.874 64.5351L23.5306 64.636L24.2135 64.7267L24.9205 64.8062L25.6498 64.8736C25.8963 64.8939 26.1463 64.912 26.3993 64.9278L27.1672 64.9677L27.9514 64.9925C28.2153 64.9981 28.4816 65.0009 28.75 65.0009C29.0184 65.0009 29.2847 64.9981 29.5486 64.9925L30.3328 64.9677L31.1007 64.9278C31.3537 64.912 31.6037 64.8939 31.8502 64.8736L32.5795 64.8062L33.2865 64.7267L33.9694 64.636C34.081 64.62 34.1916 64.6036 34.3011 64.5867L34.9439 64.4812L35.5576 64.3671C35.7571 64.3277 35.9514 64.2871 36.1402 64.2454L36.6898 64.1171C36.7785 64.0952 36.8658 64.0731 36.9516 64.0508L37.4479 63.9146C37.6072 63.8685 37.7601 63.8217 37.9063 63.7744L38.3248 63.6312C38.4574 63.5831 38.5831 63.5346 38.7014 63.486L39.0341 63.3399C39.6545 63.0474 40 62.7554 40 62.5005C40 62.2967 39.7791 62.0691 39.3734 61.8366ZM40 68.2138V65.5569C38.7209 66.2048 37.0118 66.701 35.0165 67.0298L34.3015 67.1388C34.1804 67.1557 34.0584 67.1722 33.9355 67.188L33.1875 67.2758C32.8083 67.3162 32.4216 67.3512 32.0281 67.3808L31.2322 67.4327L30.4196 67.47C30.2829 67.475 30.1455 67.4793 30.0075 67.4831L29.1725 67.4981L28.75 67.5C28.6086 67.5 28.4678 67.4994 28.3275 67.4981L27.4925 67.4831C27.3545 67.4793 27.2171 67.475 27.0804 67.47L26.2678 67.4327L25.4719 67.3808C25.0784 67.3512 24.6917 67.3162 24.3125 67.2758L23.5645 67.188C23.3187 67.1563 23.0765 67.1223 22.8381 67.086L22.1348 66.9701C20.2888 66.6422 18.7039 66.1667 17.5 65.5569V68.2138C17.5 68.6544 18.4443 69.42 20.3166 70.0619C22.5058 70.8125 25.52 71.2496 28.75 71.2496C31.98 71.2496 34.9942 70.8125 37.1834 70.0619C38.9517 69.4556 39.8922 68.7391 39.9913 68.2902L40 68.2138ZM68.75 54.9991C75.6536 54.9991 81.25 60.5957 81.25 67.4995C81.25 74.4033 75.6536 79.9999 68.75 79.9999C61.8464 79.9999 56.25 74.4033 56.25 67.4995C56.25 60.5957 61.8464 54.9991 68.75 54.9991Z" fill="#6A6AF4"/>
<path d="M76.7768 50.1166C76.1506 49.8258 75.4073 50.0977 75.1166 50.7238C74.8258 51.35 75.0977 52.0933 75.7238 52.3841C81.3294 54.9873 85.0003 60.4437 85.0003 66.2509C85.0003 66.9412 85.5599 67.5009 86.2503 67.5009C86.9407 67.5009 87.5003 66.9412 87.5003 66.2509C87.5003 59.4462 83.2443 53.1201 76.7768 50.1166Z" fill="#6A6AF4"/>
</svg>
