<svg width="100" height="100" fill="none" xmlns="http://www.w3.org/2000/svg"><path fill-rule="evenodd" clip-rule="evenodd" d="M87.5 86.25a1.25 1.25 0 110-2.5 1.25 1.25 0 010 2.5zm-2.5-70a1.25 1.25 0 110-2.5 1.25 1.25 0 010 2.5zm-67.5 70a1.25 1.25 0 110-2.5 1.25 1.25 0 010 2.5z" fill="#CACAFB"/><path fill-rule="evenodd" clip-rule="evenodd" d="M24.246 15.008c.248-.005.5-.008.754-.008l.38.002c.125.001.25.003.374.006l.738.023.72.04c.355.023.702.052 1.041.087l.666.078C32.517 15.707 35 16.883 35 18.75v7.5a1.25 1.25 0 01-2.492.146l-.008-.146v-4.842c-.976.389-2.196.675-3.58.856l-.667.078c-.339.035-.686.064-1.041.088l-.72.039-.738.023a36.112 36.112 0 01-1.508 0l-.738-.023-.72-.04a27.983 27.983 0 01-1.041-.087l-.666-.078C17.483 21.793 15 20.617 15 18.75c0-1.867 2.483-3.043 6.08-3.514l.667-.078c.339-.035.686-.064 1.041-.088l.72-.039.738-.023zM32.5 18.75l-.027-.017c-.284-.161-.685-.324-1.18-.475l-.257-.074c-1.56-.431-3.719-.684-6.035-.684-2.317 0-4.476.253-6.036.684a7.317 7.317 0 00-1.285.468l-.18.098.213.114c.263.129.6.257.996.378l.256.074c1.56.431 3.72.684 6.036.684 2.316 0 4.475-.253 6.035-.684a7.32 7.32 0 001.285-.468l.179-.098z" fill="#E1000F"/><path d="M74.665 62.255C73.34 60.824 71.528 60 69.594 60c-3.094 0-5.717 2.09-6.69 5H61.25l-.146.008a1.25 1.25 0 00.146 2.492h1.25c0 .426.034.843.098 1.25H61.25l-.146.008a1.25 1.25 0 00.146 2.492h2.2c1.224 2.24 3.514 3.75 6.144 3.75 1.765 0 3.43-.686 4.72-1.901a1.28 1.28 0 00.078-1.766 1.182 1.182 0 00-1.709-.08 4.482 4.482 0 01-3.09 1.247 4.49 4.49 0 01-3.09-1.25h2.247l.146-.008a1.25 1.25 0 00-.146-2.492h-3.683a5.343 5.343 0 01-.148-1.25h3.831l.146-.008A1.25 1.25 0 0068.75 65h-3.206c.81-1.496 2.323-2.5 4.05-2.5 1.264 0 2.448.538 3.322 1.483a1.182 1.182 0 001.71.04 1.28 1.28 0 00.039-1.768zM16.25 25c.641 0 1.17.439 1.242 1.004l.008.132v22.728c0 .627-.56 1.136-1.25 1.136-.641 0-1.17-.439-1.242-1.004L15 48.864V26.136c0-.627.56-1.136 1.25-1.136zm0 30a1.25 1.25 0 100-2.5 1.25 1.25 0 000 2.5z" fill="#E1000F"/><path fill-rule="evenodd" clip-rule="evenodd" d="M75 35c-.254 0-.505.003-.754.008l-.738.023-.72.04c-.355.023-.702.052-1.041.087l-.666.078C67.482 35.707 65 36.883 65 38.75c0 1.867 2.483 3.043 6.08 3.514l.667.078c.339.035.686.064 1.041.088l.72.039.738.023a36.095 36.095 0 001.508 0l.738-.023.72-.04c.355-.023.702-.052 1.041-.087l.666-.078c1.385-.181 2.605-.467 3.581-.856v4.842l.008.146A1.25 1.25 0 0085 46.25v-7.5c0-1.867-2.483-3.043-6.08-3.514l-.667-.078a27.983 27.983 0 00-1.041-.088l-.72-.039-.738-.023a23.26 23.26 0 00-.375-.006L75 35zm7.321 3.848l.179-.098-.027-.017c-.284-.161-.685-.324-1.18-.475l-.257-.074c-1.56-.431-3.719-.684-6.035-.684-2.317 0-4.476.253-6.036.684a7.317 7.317 0 00-1.285.468l-.18.098.213.114c.263.129.6.257.996.378l.256.074c1.56.431 3.72.684 6.036.684 2.316 0 4.475-.253 6.035-.684a7.32 7.32 0 001.285-.468z" fill="#E1000F"/><path d="M67.492 43.604A1.25 1.25 0 0065 43.75v5l.008.146a1.25 1.25 0 002.492-.146v-5l-.008-.146z" fill="#E1000F"/><path fill-rule="evenodd" clip-rule="evenodd" d="M45.828 27.5l-.836.015-.412.013-.812.037-.796.052c-.394.03-.78.065-1.16.105l-.747.088a34.17 34.17 0 00-.366.05l-.715.108c-4.456.734-7.484 2.303-7.484 4.531v5.715l.006.186.012.135c-.012.07-.018.142-.018.215v5.715l.006.185.012.135c-.012.07-.018.142-.018.215v5.715l.006.185.012.135c-.012.07-.018.14-.018.214v5.714l.006.186c.012.175.04.347.083.515a38.384 38.384 0 00-.56-.047l-.797-.052-.812-.037a28.03 28.03 0 00-.413-.013l-.835-.015h-.845l-.835.015-.412.013-.812.037-.796.052c-.394.03-.78.065-1.16.105l-.748.088a34.17 34.17 0 00-.366.05l-.715.108C18.03 58.702 15 60.271 15 62.5v5.715l.006.185c.003.046.007.09.012.136-.012.07-.018.141-.018.215v5.714l.006.185c.162 2.453 3.541 4.208 8.308 4.953l.725.104c.245.032.493.062.745.089l.762.073A38.05 38.05 0 0028.75 80a38.05 38.05 0 003.204-.132l.762-.073c.252-.027.5-.057.745-.089l.725-.104c4.672-.73 8.012-2.43 8.294-4.808 1.193.136 2.438.206 3.707.206 3.113 0 6.926-.398 9.043-.995 2.423 5.026 7.566 8.495 13.52 8.495 8.284 0 15-6.716 15-15 0-8.285-6.716-15.001-15-15.001A14.932 14.932 0 0060 55.314V51.25l-.008-.146a1.932 1.932 0 00-.01-.068c.012-.106.018-.212.018-.32V45l-.008-.146a1.206 1.206 0 00-.01-.069 2.82 2.82 0 00.018-.32V38.75l-.008-.146a1.206 1.206 0 00-.01-.069 2.82 2.82 0 00.018-.32V32.5c0-2.17-2.871-3.715-7.135-4.472l-.703-.116c-.239-.036-.48-.07-.727-.102l-.748-.088c-.379-.04-.765-.075-1.159-.105l-.796-.052-.812-.037a28.03 28.03 0 00-.413-.013l-.834-.015h-.846zm9.247 33.826a23.02 23.02 0 01-3.389.776l-.725.104c-.245.032-.493.061-.745.088l-.762.074a38.05 38.05 0 01-3.204.131 38.05 38.05 0 01-3.204-.132l-.553-.052c.005.06.007.122.007.184v3.242c1.192.149 2.45.226 3.737.226 2.545 0 5.577-.293 7.684-.741.209-1.37.602-2.679 1.154-3.9zm-1.314 6.759c-2.217.412-5.073.665-7.524.665-1.286 0-2.548-.072-3.755-.211l.004.024.004.024.002.017.008.145v3.258c1.177.144 2.418.219 3.687.219 2.752 0 6.123-.335 8.077-.817a14.985 14.985 0 01-.503-3.325zM35 38.215v-2.658c1.204.61 2.789 1.085 4.635 1.413l.703.116c.239.036.48.07.727.102l.748.088c.379.04.765.075 1.159.105l.796.052.812.037c.137.005.275.01.413.013l.834.015.423.002.422-.002.836-.015.412-.013.812-.037.796-.052c.394-.03.78-.065 1.16-.105l.747-.088c.123-.016.245-.032.366-.05l.715-.108c1.996-.329 3.705-.825 4.984-1.473v2.657l-.009.077c-.099.449-1.04 1.165-2.808 1.772-2.189.75-5.203 1.187-8.433 1.187-3.23 0-6.244-.437-8.433-1.187C35.944 39.42 35 38.655 35 38.214zm.966-4.875c-.62-.293-.966-.585-.966-.84 0-.254.346-.547.966-.839l.333-.146c.118-.049.244-.097.376-.145l.419-.143c.146-.048.299-.095.458-.14l.496-.137.262-.066.55-.128c.189-.042.383-.083.582-.122l.614-.114.643-.106.332-.049.683-.09.706-.08.73-.068c.246-.02.496-.038.75-.054l.767-.04.784-.024.398-.007.401-.002c.268 0 .535.003.799.009l.784.024.768.04c.253.016.503.034.75.054l.729.068.706.08.683.09.657.1.318.055.614.114.295.06.566.125c.184.043.361.087.533.131l.496.136.234.07.439.142c.209.072.403.144.58.217l.333.146c.62.292.966.585.966.84 0 .254-.346.546-.966.839l-.333.146a9.674 9.674 0 01-.376.145l-.419.143a13.38 13.38 0 01-.458.14l-.496.137-.262.066-.55.128a23.63 23.63 0 01-.582.122l-.614.114-.643.106-.332.049-.683.09-.706.08-.73.068c-.246.02-.496.038-.75.054l-.767.04-.784.024a37.65 37.65 0 01-1.598 0l-.784-.024-.768-.04a37.971 37.971 0 01-.75-.054l-.729-.068-.706-.08-.683-.09-.657-.1a31.754 31.754 0 01-.318-.055l-.614-.114-.295-.06-.566-.125a26.177 26.177 0 01-.533-.131l-.496-.136-.234-.07-.439-.142a10.39 10.39 0 01-.58-.217l-.333-.146zM35 44.464v-2.91c1.456.82 3.467 1.432 5.814 1.799l.725.104c.245.032.493.062.745.088l.762.074c1.029.087 2.101.131 3.204.131 1.103 0 2.175-.044 3.204-.131l.762-.074c.252-.026.5-.056.745-.088l.725-.104c2.347-.367 4.358-.979 5.814-1.798v2.91l-.009.076c-.099.449-1.04 1.165-2.808 1.772-2.189.75-5.203 1.187-8.433 1.187-3.23 0-6.244-.437-8.433-1.187C35.944 45.67 35 44.905 35 44.464zm5 27.09c-1.456.82-3.467 1.431-5.814 1.798l-.725.104a32.38 32.38 0 01-.745.089l-.762.073a38.093 38.093 0 01-3.204.132c-1.103 0-2.175-.045-3.204-.132l-.762-.073a32.38 32.38 0 01-.745-.089l-.725-.104c-2.347-.367-4.358-.979-5.814-1.798v2.91c0 .44.944 1.206 2.817 1.848 2.189.75 5.203 1.188 8.433 1.188 3.23 0 6.244-.437 8.433-1.188 1.769-.606 2.71-1.323 2.808-1.772l.009-.076v-2.91zm-5-23.75c1.456.82 3.467 1.432 5.814 1.799l.725.104c.245.032.493.062.745.088l.762.074c1.029.087 2.101.131 3.204.131 1.103 0 2.175-.044 3.204-.131l.762-.074c.252-.026.5-.056.745-.088l.725-.104c2.347-.367 4.358-.979 5.814-1.798v2.91l-.009.076c-.099.449-1.04 1.165-2.808 1.772-2.189.75-5.203 1.187-8.433 1.187-3.23 0-6.244-.437-8.433-1.187C35.944 51.92 35 51.155 35 50.714v-2.91zm22.5 9.16v-2.91c-1.456.82-3.467 1.432-5.814 1.799l-.725.104a27.67 27.67 0 01-.745.088l-.762.074a38.094 38.094 0 01-3.204.131c-1.103 0-2.175-.044-3.204-.131l-.762-.074a27.67 27.67 0 01-.745-.088l-.725-.104c-2.347-.367-4.358-.979-5.814-1.798v2.908c0 .315.483.796 1.442 1.28 1.32.293 2.476.671 3.414 1.127 1.87.404 4.077.63 6.394.63 3.23 0 6.244-.438 8.433-1.188 1.769-.607 2.71-1.323 2.808-1.772l.009-.077zm-18.127 4.873c-1.397-.299-2.64-.693-3.671-1.174l-.144-.03-.614-.113c-.105-.019-.21-.037-.318-.054l-.657-.101-.683-.09-.706-.08-.73-.068c-.246-.02-.496-.038-.75-.054l-.767-.04-.784-.025c-.264-.005-.53-.008-.799-.008l-.401.002-.398.006-.784.025-.768.04c-.253.016-.503.034-.75.054l-.729.068-.707.08-.682.09a34.09 34.09 0 00-.332.05l-.643.105-.614.114c-.2.04-.393.08-.582.122l-.55.128-.262.066-.496.136c-.16.047-.312.093-.458.14l-.419.144a9.837 9.837 0 00-.376.145l-.333.146c-.62.292-.966.585-.966.84 0 .254.346.546.966.839l.333.146c.177.073.371.146.58.217l.439.142.234.07.496.136c.172.044.35.088.533.131l.566.125.295.06.614.114c.105.019.21.037.318.054l.657.101.683.09.707.08.729.068c.246.02.496.038.75.054l.767.04.784.025a37.65 37.65 0 001.598 0l.784-.025.768-.04c.253-.016.503-.034.75-.054l.729-.068.706-.08.683-.09c.112-.016.223-.032.332-.05l.643-.105.614-.114c.2-.04.393-.08.582-.122l.55-.128.262-.066.496-.136c.16-.047.312-.093.458-.14l.419-.144c.132-.048.258-.096.376-.145l.333-.146c.62-.293.966-.585.966-.84 0-.203-.22-.43-.627-.663zM40 68.214v-2.657c-1.28.648-2.988 1.144-4.983 1.473l-.716.109a34.18 34.18 0 01-.366.049l-.748.088c-.379.04-.765.075-1.159.105l-.796.052-.812.037c-.137.005-.275.01-.413.013l-.835.015-.422.002c-.141 0-.282 0-.422-.002l-.835-.015a45.673 45.673 0 01-.413-.013l-.812-.037-.796-.052c-.394-.03-.78-.065-1.16-.105l-.748-.088a32.117 32.117 0 01-.726-.102l-.703-.116c-1.846-.328-3.431-.803-4.635-1.413v2.657c0 .44.944 1.206 2.817 1.848 2.189.75 5.203 1.188 8.433 1.188 3.23 0 6.244-.438 8.433-1.188 1.769-.606 2.71-1.323 2.808-1.772l.009-.076zm28.75-13.215c6.904 0 12.5 5.597 12.5 12.5 0 6.904-5.596 12.5-12.5 12.5s-12.5-5.596-12.5-12.5c0-6.903 5.596-12.5 12.5-12.5z" fill="#6A6AF4"/><path d="M76.777 50.117a1.25 1.25 0 10-1.053 2.267C81.329 54.987 85 60.444 85 66.251a1.25 1.25 0 002.5 0c0-6.805-4.256-13.13-10.723-16.134z" fill="#6A6AF4"/></svg>
