<svg width="134" height="134" viewBox="0 0 133 132" fill="none" xmlns="http://www.w3.org/2000/svg"><path fill-rule="evenodd" clip-rule="evenodd" d="M97.834 125.4c-.91 0-1.65-.74-1.65-1.65 0-.91.74-1.65 1.65-1.65.91 0 1.65.74 1.65 1.65 0 .91-.74 1.65-1.65 1.65zm13.2-105.6c-.91 0-1.65-.74-1.65-1.65 0-.91.74-1.65 1.65-1.65.91 0 1.65.74 1.65 1.65 0 .91-.74 1.65-1.65 1.65zm-95.7 6.6c-.91 0-1.65-.74-1.65-1.65 0-.91.74-1.65 1.65-1.65.91 0 1.65.74 1.65 1.65 0 .91-.74 1.65-1.65 1.65z" fill="#CACAFB"/><path d="M61.534 37.95a1.65 1.65 0 00-1.65-1.65h-19.8l-.192.011a1.65 1.65 0 00.192 3.289h19.8l.193-.011a1.65 1.65 0 001.457-1.639zm-4.95 4.95a1.65 1.65 0 01.192 3.289l-.192.011h-16.5a1.65 1.65 0 01-.192-3.289l.192-.011h16.5zm-4.95 8.25a1.65 1.65 0 00-1.65-1.65h-9.9l-.192.011a1.65 1.65 0 00.192 3.289h9.9l.192-.011a1.65 1.65 0 001.458-1.639z" fill="#E1000F"/><path d="M53.284 19.8c11.31 0 20.275 6.694 24.631 17.535a1.65 1.65 0 01-3.062 1.23C70.978 28.922 63.18 23.1 53.284 23.1c-13.669 0-24.75 11.081-24.75 24.75a24.628 24.628 0 004.729 14.553 1.65 1.65 0 01.095 1.795l-.12.18-6.31 8.222h9.856a1.65 1.65 0 011.639 1.458l.011.192a1.65 1.65 0 01-1.457 1.639l-.193.011h-13.2c-1.306 0-2.07-1.43-1.413-2.504l.104-.15 7.612-9.922-.093-.138a27.912 27.912 0 01-4.55-14.616l-.01-.72c0-15.492 12.558-28.05 28.05-28.05z" fill="#6A6AF4"/><path d="M78.034 46.2c18.225 0 33 14.775 33 33a32.872 32.872 0 01-3.442 14.69 1.65 1.65 0 01-2.954-1.47 29.568 29.568 0 003.096-13.22c0-16.403-13.297-29.7-29.7-29.7s-29.7 13.297-29.7 29.7c0 16.22 13.003 29.404 29.154 29.695l.546.005H106.3l-4.889-7.335a1.65 1.65 0 01.304-2.172l.154-.116a1.65 1.65 0 012.172.304l.116.154 6.6 9.9c.696 1.044.016 2.426-1.188 2.555l-.185.01h-31.35c-18.225 0-33-14.775-33-33s14.775-33 33-33zm13.2-14.85c0 .91.74 1.65 1.65 1.65.91 0 1.65-.74 1.65-1.65 0-.91-.74-1.65-1.65-1.65-.91 0-1.65.74-1.65 1.65zm8.25 1.65c-.91 0-1.65-.74-1.65-1.65 0-.91.74-1.65 1.65-1.65.91 0 1.65.74 1.65 1.65 0 .91-.74 1.65-1.65 1.65zm4.95-1.65c0 .91.74 1.65 1.65 1.65.91 0 1.65-.74 1.65-1.65 0-.91-.74-1.65-1.65-1.65-.91 0-1.65.74-1.65 1.65z" fill="#6A6AF4"/><path fill-rule="evenodd" clip-rule="evenodd" d="M112.684 23.1h-26.4a1.65 1.65 0 00-1.65 1.65v13.2l.011.192a1.65 1.65 0 001.639 1.458h12.515l6.118 6.117.14.125c1.051.849 2.677.114 2.677-1.292V39.6h4.95a1.65 1.65 0 001.65-1.65v-13.2a1.65 1.65 0 00-1.65-1.65zm-1.65 3.3v9.9h-4.95l-.192.011a1.65 1.65 0 00-1.458 1.639v2.615l-3.783-3.782-.164-.143a1.649 1.649 0 00-1.003-.34h-11.55v-9.9h23.1z" fill="#6A6AF4"/><path d="M26.884 95.7a1.65 1.65 0 01.192 3.289l-.192.011h-6.6a1.65 1.65 0 01-.192-3.289l.192-.011h6.6zm4.95 1.65c0 .91.74 1.65 1.65 1.65.91 0 1.65-.74 1.65-1.65 0-.91-.74-1.65-1.65-1.65-.91 0-1.65.74-1.65 1.65zm8.25 1.65c-.91 0-1.65-.74-1.65-1.65 0-.91.74-1.65 1.65-1.65.91 0 1.65.74 1.65 1.65 0 .91-.74 1.65-1.65 1.65z" fill="#6A6AF4"/><path d="M80.862 65.463c-.749-2.303-4.007-2.303-4.755 0l-2.53 7.784h-8.183c-2.422 0-3.429 3.099-1.47 4.522l6.621 4.81-2.529 7.784c-.748 2.303 1.888 4.218 3.847 2.795l6.621-4.81 6.62 4.81c1.96 1.423 4.596-.492 3.848-2.795l-2.529-7.784 6.62-4.81c1.96-1.423.953-4.522-1.469-4.522h-8.183l-2.53-7.784zm5.449 16.771s0 0 0 0h0z" stroke="#E1000F" stroke-width="3"/></svg>
