<svg width="133" height="132" viewBox="0 0 133 132" fill="none" xmlns="http://www.w3.org/2000/svg">
<path fill-rule="evenodd" clip-rule="evenodd" d="M97.8341 125.4C96.9243 125.4 96.1841 124.66 96.1841 123.75C96.1841 122.84 96.9243 122.1 97.8341 122.1C98.744 122.1 99.4841 122.84 99.4841 123.75C99.4841 124.66 98.744 125.4 97.8341 125.4Z" fill="#CACAFB"/>
<path fill-rule="evenodd" clip-rule="evenodd" d="M111.034 19.8C110.124 19.8 109.384 19.0598 109.384 18.15C109.384 17.2401 110.124 16.5 111.034 16.5C111.944 16.5 112.684 17.2401 112.684 18.15C112.684 19.0598 111.944 19.8 111.034 19.8Z" fill="#CACAFB"/>
<path fill-rule="evenodd" clip-rule="evenodd" d="M15.3341 26.4C14.4243 26.4 13.6841 25.6598 13.6841 24.75C13.6841 23.8401 14.4243 23.1 15.3341 23.1C16.244 23.1 16.9841 23.8401 16.9841 24.75C16.9841 25.6598 16.244 26.4 15.3341 26.4Z" fill="#CACAFB"/>
<path d="M61.5341 37.95C61.5341 37.0387 60.7954 36.3 59.8841 36.3H40.0841L39.8917 36.3111C39.0711 36.4064 38.4341 37.1038 38.4341 37.95C38.4341 38.8613 39.1729 39.6 40.0841 39.6H59.8841L60.0766 39.5889C60.8972 39.4936 61.5341 38.7962 61.5341 37.95Z" fill="#6A6AF4"/>
<path d="M56.5841 42.9C57.4954 42.9 58.2341 43.6387 58.2341 44.55C58.2341 45.3962 57.5972 46.0936 56.7766 46.1889L56.5841 46.2H40.0841C39.1729 46.2 38.4341 45.4613 38.4341 44.55C38.4341 43.7038 39.0711 43.0064 39.8917 42.9111L40.0841 42.9H56.5841Z" fill="#6A6AF4"/>
<path d="M51.6341 51.15C51.6341 50.2387 50.8954 49.5 49.9841 49.5H40.0841L39.8917 49.5111C39.0711 49.6064 38.4341 50.3038 38.4341 51.15C38.4341 52.0613 39.1729 52.8 40.0841 52.8H49.9841L50.1766 52.7889C50.9972 52.6936 51.6341 51.9962 51.6341 51.15Z" fill="#6A6AF4"/>
<path d="M53.2842 19.8C64.5933 19.8 73.5593 26.4942 77.9152 37.3348C78.2549 38.1804 77.8449 39.1413 76.9993 39.481C76.1538 39.8208 75.1929 39.4108 74.8531 38.5652C70.9785 28.9224 63.1803 23.1 53.2842 23.1C39.6151 23.1 28.5342 34.181 28.5342 47.85C28.5342 53.1561 30.2061 58.2058 33.2626 62.4031C33.6501 62.9353 33.6807 63.6398 33.3584 64.1985L33.2379 64.3788L26.9287 72.6H36.7842C37.6303 72.6 38.3277 73.237 38.4231 74.0576L38.4342 74.25C38.4342 75.0962 37.7972 75.7936 36.9766 75.8889L36.7842 75.9H23.5842C22.2783 75.9 21.5139 74.4703 22.1714 73.3964L22.2751 73.2456L29.8872 63.3237L29.7939 63.1857C26.968 58.8666 25.3763 53.838 25.2432 48.5698L25.2342 47.85C25.2342 32.3584 37.7926 19.8 53.2842 19.8Z" fill="#000091"/>
<path d="M78.0342 46.2C96.2596 46.2 111.034 60.9746 111.034 79.2C111.034 84.3656 109.845 89.3647 107.592 93.8902C107.186 94.7059 106.195 95.038 105.379 94.6318C104.564 94.2256 104.232 93.2351 104.638 92.4193C106.665 88.3483 107.734 83.8522 107.734 79.2C107.734 62.7971 94.437 49.5 78.0342 49.5C61.6313 49.5 48.3342 62.7971 48.3342 79.2C48.3342 95.4206 61.3374 108.604 77.4886 108.895L78.0342 108.9H106.3L101.411 101.565C100.942 100.861 101.085 99.9276 101.715 99.3931L101.869 99.2771C102.573 98.8077 103.507 98.9509 104.041 99.5808L104.157 99.7347L110.757 109.635C111.453 110.679 110.773 112.061 109.569 112.19L109.384 112.2H78.0342C59.8088 112.2 45.0342 97.4254 45.0342 79.2C45.0342 60.9746 59.8088 46.2 78.0342 46.2Z" fill="#000091"/>
<path d="M91.2342 31.35C91.2342 32.2598 91.9743 33 92.8842 33C93.794 33 94.5342 32.2598 94.5342 31.35C94.5342 30.4401 93.794 29.7 92.8842 29.7C91.9743 29.7 91.2342 30.4401 91.2342 31.35Z" fill="#000091"/>
<path d="M99.4842 33C98.5743 33 97.8342 32.2598 97.8342 31.35C97.8342 30.4401 98.5743 29.7 99.4842 29.7C100.394 29.7 101.134 30.4401 101.134 31.35C101.134 32.2598 100.394 33 99.4842 33Z" fill="#000091"/>
<path d="M104.434 31.35C104.434 32.2598 105.174 33 106.084 33C106.994 33 107.734 32.2598 107.734 31.35C107.734 30.4401 106.994 29.7 106.084 29.7C105.174 29.7 104.434 30.4401 104.434 31.35Z" fill="#000091"/>
<path fill-rule="evenodd" clip-rule="evenodd" d="M112.684 23.1H86.2842C85.3729 23.1 84.6342 23.8387 84.6342 24.75V37.95L84.6453 38.1424C84.7406 38.963 85.438 39.6 86.2842 39.6H98.7994L104.917 45.7167L105.057 45.8423C106.108 46.6908 107.734 45.9561 107.734 44.55V39.6H112.684C113.595 39.6 114.334 38.8613 114.334 37.95V24.75C114.334 23.8387 113.595 23.1 112.684 23.1ZM111.034 26.4V36.3H106.084L105.892 36.3111C105.071 36.4064 104.434 37.1038 104.434 37.95V40.5653L100.651 36.7833L100.487 36.64C100.201 36.4207 99.8488 36.3 99.4842 36.3H87.9342V26.4H111.034Z" fill="#000091"/>
<path d="M26.8842 95.7C27.7954 95.7 28.5342 96.4387 28.5342 97.35C28.5342 98.1962 27.8972 98.8936 27.0766 98.9889L26.8842 99H20.2842C19.3729 99 18.6342 98.2613 18.6342 97.35C18.6342 96.5038 19.2711 95.8064 20.0917 95.7111L20.2842 95.7H26.8842Z" fill="#000091"/>
<path d="M31.8342 97.35C31.8342 98.2598 32.5743 99 33.4842 99C34.394 99 35.1342 98.2598 35.1342 97.35C35.1342 96.4401 34.394 95.7 33.4842 95.7C32.5743 95.7 31.8342 96.4401 31.8342 97.35Z" fill="#000091"/>
<path d="M40.0842 99C39.1743 99 38.4342 98.2598 38.4342 97.35C38.4342 96.4401 39.1743 95.7 40.0842 95.7C40.994 95.7 41.7342 96.4401 41.7342 97.35C41.7342 98.2598 40.994 99 40.0842 99Z" fill="#000091"/>
<path d="M80.8618 65.4635C80.1134 63.1603 76.8549 63.1602 76.1065 65.4635L73.5776 73.2467L65.3939 73.2467C62.972 73.2467 61.9651 76.3457 63.9244 77.7693L70.5452 82.5795L68.0163 90.3627C67.2679 92.666 69.9041 94.5813 71.8634 93.1578L78.4841 88.3475L85.1049 93.1578C87.0642 94.5813 89.7004 92.666 88.952 90.3627L86.4231 82.5795L93.0439 77.7693C95.0032 76.3458 93.9962 73.2467 91.5744 73.2467L83.3907 73.2467L80.8618 65.4635ZM86.3108 82.234C86.3109 82.2343 86.311 82.2345 86.3111 82.2348L86.3108 82.234Z" stroke="#6A6AF4" stroke-width="3"/>
</svg>
