<svg width="100" height="100" fill="none" xmlns="http://www.w3.org/2000/svg"><path fill-rule="evenodd" clip-rule="evenodd" d="M18.75 17.5a1.25 1.25 0 110-2.5 1.25 1.25 0 010 2.5zm-12.5 70a1.25 1.25 0 110-2.5 1.25 1.25 0 010 2.5zm87.5-7.5a1.25 1.25 0 110-2.5 1.25 1.25 0 010 2.5zm-20-65a1.25 1.25 0 110-2.5 1.25 1.25 0 010 2.5z" fill="#CACAFB"/><path d="M17.508 47.003c.1-1.155 1.128-2.003 2.313-2.003h3.929l.146.008A1.25 1.25 0 0125 46.25l-.008.146A1.25 1.25 0 0123.75 47.5H20v5h3.75l.146.008A1.25 1.25 0 0123.75 55h-3.929l-.185-.007c-1.167-.088-2.136-.995-2.136-2.18v-5.626l.008-.184zm17.484 0C34.892 45.848 33.864 45 32.68 45h-3.93l-.146.008A1.25 1.25 0 0027.5 46.25l.008.146A1.25 1.25 0 0028.75 47.5h3.75v5h-3.75l-.146.008A1.25 1.25 0 0028.75 55h3.929l.185-.007c1.167-.088 2.136-.995 2.136-2.18v-5.626l-.008-.184zM80.179 45c1.185 0 2.213.848 2.313 2.003l.008.184v5.626c0 1.185-.969 2.092-2.136 2.18L80.18 55h-3.93a1.25 1.25 0 01-.146-2.492l.146-.008H80v-5h-3.75a1.25 1.25 0 01-1.242-1.104L75 46.25c0-.641.483-1.17 1.104-1.242L76.25 45h3.929zm-15.171 2.003c.1-1.155 1.128-2.003 2.313-2.003h3.929l.146.008A1.25 1.25 0 0172.5 46.25l-.008.146A1.25 1.25 0 0171.25 47.5H67.5v5h3.75l.146.008A1.25 1.25 0 0171.25 55h-3.929l-.185-.007c-1.167-.088-2.136-.995-2.136-2.18v-5.626l.008-.184z" fill="#E1000F"/><path fill-rule="evenodd" clip-rule="evenodd" d="M17.5 60a2.5 2.5 0 00-2.5 2.5V70a2.5 2.5 0 002.5 2.5h5A2.5 2.5 0 0025 70v-7.5a2.5 2.5 0 00-2.5-2.5h-5zm5 10v-7.5h-5V70h5zM30 60a2.5 2.5 0 00-2.5 2.5V70a2.5 2.5 0 002.5 2.5h5a2.5 2.5 0 002.5-2.5v-7.5A2.5 2.5 0 0035 60h-5zm5 10v-7.5h-5V70h5zm30-10a2.5 2.5 0 00-2.5 2.5V70a2.5 2.5 0 002.5 2.5h5a2.5 2.5 0 002.5-2.5v-7.5A2.5 2.5 0 0070 60h-5zm5 10v-7.5h-5V70h5zm7.5-10a2.5 2.5 0 00-2.5 2.5V70a2.5 2.5 0 002.5 2.5h5A2.5 2.5 0 0085 70v-7.5a2.5 2.5 0 00-2.5-2.5h-5zm5 10v-7.5h-5V70h5z" fill="#E1000F"/><path d="M44.634 15.366a1.25 1.25 0 00-1.768 0l-17.5 17.5-.104.118a1.25 1.25 0 001.872 1.65l17.5-17.5.104-.118a1.25 1.25 0 00-.104-1.65zm6.097 2.37a1.25 1.25 0 00-1.588.104l-13.37 12.584-.108.114a1.25 1.25 0 00.054 1.653l.115.107a1.25 1.25 0 001.652-.054L50 20.466l20.033 18.855.16.138a2.5 2.5 0 001.554.541H83.75l.146-.008a1.25 1.25 0 00-.146-2.492H71.746l-20.89-19.66-.125-.104zM88.75 37.5a1.25 1.25 0 00-1.242 1.104l-.008.146V80H76.25a1.25 1.25 0 00-1.242 1.104L75 81.25c0 .641.483 1.17 1.104 1.242l.146.008h12.5a1.25 1.25 0 001.242-1.104L90 81.25v-42.5c0-.69-.56-1.25-1.25-1.25zM26.25 80a1.25 1.25 0 01.146 2.492l-.146.008h-10a1.25 1.25 0 01-.146-2.492L16.25 80h10zM12.5 81.25a1.25 1.25 0 11-2.5 0 1.25 1.25 0 012.5 0z" fill="#000091"/><path fill-rule="evenodd" clip-rule="evenodd" d="M65 76.25c0-.69-.56-1.25-1.25-1.25H60V56.25l-.008-.146A1.25 1.25 0 0058.75 55h-17.5l-.146.008A1.25 1.25 0 0040 56.25V75h-3.75l-.146.008a1.25 1.25 0 00.146 2.492h27.5l.146-.008A1.25 1.25 0 0065 76.25zm-13.75-12.5V75h6.25V57.499h-15V75h6.25V63.75a1.25 1.25 0 012.492-.146l.008.146z" fill="#000091"/><path d="M51.25 37.5a1.25 1.25 0 01.146 2.492L51.25 40h-2.5a1.25 1.25 0 01-1.25-1.25v-2.5a1.25 1.25 0 012.492-.146l.008.146v1.25h1.25z" fill="#000091"/><path fill-rule="evenodd" clip-rule="evenodd" d="M42.5 37.5a7.5 7.5 0 1115 0 7.5 7.5 0 01-15 0zm7.5-5a5 5 0 110 10 5 5 0 010-10z" fill="#000091"/><path d="M57.5 51.25c0-.69-.56-1.25-1.25-1.25h-12.5l-.146.008a1.25 1.25 0 00.146 2.492h12.5l.146-.008A1.25 1.25 0 0057.5 51.25zm12.5 30c0-.69-.56-1.25-1.25-1.25h-37.5l-.146.008a1.25 1.25 0 00.146 2.492h37.5l.146-.008A1.25 1.25 0 0070 81.25zM30.366 35.366a1.25 1.25 0 011.872 1.65l-.104.118-2.5 2.5c-.195.195-.449.32-.72.355L28.75 40H12.5v36.25a1.25 1.25 0 01-1.104 1.242l-.146.008a1.25 1.25 0 01-1.242-1.104L10 76.25v-37.5c0-.641.483-1.17 1.104-1.242l.146-.008h16.98l2.136-2.134zM83.75 32.5a1.25 1.25 0 01.146 2.492L83.75 35h-10a1.25 1.25 0 01-.146-2.492l.146-.008h10zm5 2.5a1.25 1.25 0 100-2.5 1.25 1.25 0 000 2.5z" fill="#000091"/></svg>
