<svg width="138" height="138" fill="none" xmlns="http://www.w3.org/2000/svg"><path fill-rule="evenodd" clip-rule="evenodd" d="M98.325 134.55a1.727 1.727 0 0 1-1.725-1.725c0-.951.774-1.725 1.725-1.725.951 0 1.725.774 1.725 1.725 0 .951-.774 1.725-1.725 1.725Zm6.9-124.2a1.727 1.727 0 0 1-1.725-1.725c0-.951.774-1.725 1.725-1.725.951 0 1.725.774 1.725 1.725 0 .951-.774 1.725-1.725 1.725Zm-58.65 124.2a1.727 1.727 0 0 1-1.725-1.725c0-.951.774-1.725 1.725-1.725.951 0 1.725.774 1.725 1.725 0 .951-.774 1.725-1.725 1.725Z" fill="#CACAFB"/><path d="M77.613 17.049a1.725 1.725 0 0 0-3.438.201v6.9l.012.201a1.725 1.725 0 0 0 3.438-.201v-6.9l-.012-.201ZM34.5 60.375c0-.953-.772-1.725-1.725-1.725h-10.35l-.201.012a1.725 1.725 0 0 0 .201 3.438h10.35l.201-.012a1.725 1.725 0 0 0 1.524-1.713Z" fill="#E1000F"/><path fill-rule="evenodd" clip-rule="evenodd" d="M69 58.65A5.175 5.175 0 1 0 69 69a5.175 5.175 0 0 0 0-10.35Zm0 3.45a1.725 1.725 0 1 1 0 3.45 1.725 1.725 0 0 1 0-3.45Z" fill="#E1000F"/><path d="M32.775 65.55a1.725 1.725 0 0 1 .201 3.438l-.201.012h-10.35a1.725 1.725 0 0 1-.201-3.438l.201-.012h10.35ZM55.2 60.375c0-.953-.772-1.725-1.725-1.725h-10.35l-.201.012a1.725 1.725 0 0 0 .201 3.438h10.35l.201-.012a1.725 1.725 0 0 0 1.524-1.713Zm-1.725 5.175a1.725 1.725 0 0 1 .201 3.438l-.201.012h-10.35a1.725 1.725 0 0 1-.201-3.438l.201-.012h10.35ZM96.6 60.375c0-.953-.772-1.725-1.725-1.725h-10.35l-.201.012a1.725 1.725 0 0 0 .201 3.438h10.35l.201-.012a1.725 1.725 0 0 0 1.524-1.713Zm-1.725 5.175a1.725 1.725 0 0 1 .201 3.438l-.201.012h-10.35a1.725 1.725 0 0 1-.201-3.438l.201-.012h10.35Zm22.425-5.175c0-.953-.772-1.725-1.725-1.725h-10.35l-.201.012a1.725 1.725 0 0 0 .201 3.438h10.35l.201-.012a1.725 1.725 0 0 0 1.524-1.713Zm-1.725 5.175a1.725 1.725 0 0 1 .201 3.438l-.201.012h-10.35a1.725 1.725 0 0 1-.201-3.438l.201-.012h10.35Z" fill="#E1000F"/><path d="M70.713 17.049a1.725 1.725 0 0 0-3.438.201v6.9l.012.201a1.725 1.725 0 0 0 3.438-.201v-6.9l-.012-.201Zm0 12.075a1.725 1.725 0 0 0-3.438.201V34.5h-37.95l-.201.012c-.858.1-1.524.828-1.524 1.713v8.625H5.175l-.201.012a1.725 1.725 0 0 0 .2 3.438h127.651l.201-.012a1.725 1.725 0 0 0-.201-3.438H110.4v-8.625l-.012-.201a1.724 1.724 0 0 0-3.438.201v8.625h-75.9v-6.9h60.375l.201-.012a1.725 1.725 0 0 0-.201-3.438h-20.7v-5.175l-.012-.201ZM43.125 75.9c.885 0 1.614.666 1.713 1.524l.012.201v34.5a1.725 1.725 0 0 1-3.438.201l-.012-.201v-34.5c0-.953.772-1.725 1.725-1.725Zm-5.187 8.424a1.725 1.725 0 0 0-3.438.201V117.3H20.7V84.525l-.012-.201a1.725 1.725 0 0 0-3.438.201V117.3h-5.175l-.201.012a1.724 1.724 0 0 0 .201 3.438h24.15a1.725 1.725 0 0 0 1.725-1.725v-34.5l-.012-.201Z" fill="#000091"/><path d="M25.875 75.9c.885 0 1.614.666 1.713 1.524l.012.201v27.6a1.725 1.725 0 0 1-3.438.201l-.012-.201v-27.6c0-.953.772-1.725 1.725-1.725Zm75.9-41.4a1.725 1.725 0 0 1 .201 3.438l-.201.012h-3.45a1.725 1.725 0 0 1-.201-3.438l.201-.012h3.45Zm-89.7 17.25c.885 0 1.614.666 1.713 1.524l.012.201v58.65a1.725 1.725 0 0 1-3.438.201l-.012-.201v-58.65c0-.953.772-1.725 1.725-1.725Z" fill="#000091"/><path fill-rule="evenodd" clip-rule="evenodd" d="M82.788 84.324a1.725 1.725 0 0 0-1.713-1.524h-24.15l-.201.012c-.858.1-1.524.828-1.524 1.713V110.4h-5.175l-.201.012a1.724 1.724 0 0 0 .201 3.438h37.95l.201-.012a1.724 1.724 0 0 0-.201-3.438H82.8V84.525l-.012-.201ZM67.275 110.4H58.65V86.248h20.7V110.4h-8.625V94.875l-.012-.201a1.725 1.725 0 0 0-3.438.201V110.4Z" fill="#000091"/><path d="M77.625 75.9a1.725 1.725 0 0 1 .201 3.438l-.201.012h-17.25a1.725 1.725 0 0 1-.201-3.438l.201-.012h17.25Zm17.25 0c-.885 0-1.614.666-1.713 1.524l-.012.201v34.5a1.725 1.725 0 0 0 3.438.201l.012-.201v-34.5c0-.953-.772-1.725-1.725-1.725Zm5.187 8.424a1.724 1.724 0 0 1 3.438.201v20.7l-.012.201a1.724 1.724 0 0 1-3.438-.201v-20.7l.012-.201Zm12.063-8.424c-.885 0-1.614.666-1.713 1.524l-.012.201v34.5a1.725 1.725 0 0 0 3.438.201l.012-.201v-34.5c0-.953-.772-1.725-1.725-1.725Z" fill="#000091"/><path d="M117.312 84.324a1.724 1.724 0 0 1 3.438.201v34.5a1.725 1.725 0 0 1-1.725 1.725h-75.9a1.725 1.725 0 0 1-.201-3.438l.201-.012H117.3V84.525l.012-.201Zm8.613-32.574c.885 0 1.614.666 1.713 1.524l.012.201v65.55a1.725 1.725 0 0 1-3.438.201l-.012-.201v-65.55c0-.953.772-1.725 1.725-1.725Z" fill="#000091"/></svg>