<svg width="138" height="138" fill="none" xmlns="http://www.w3.org/2000/svg"><path fill-rule="evenodd" clip-rule="evenodd" d="M34.5 13.8a1.727 1.727 0 0 1-1.725-1.725c0-.951.774-1.725 1.725-1.725.951 0 1.725.774 1.725 1.725 0 .951-.774 1.725-1.725 1.725ZM13.8 127.65a1.727 1.727 0 0 1-1.725-1.725c0-.951.774-1.725 1.725-1.725.951 0 1.725.774 1.725 1.725 0 .951-.774 1.725-1.725 1.725ZM124.2 41.4a1.727 1.727 0 0 1-1.725-1.725c0-.951.774-1.725 1.725-1.725.951 0 1.725.774 1.725 1.725 0 .951-.774 1.725-1.725 1.725Z" fill="#CACAFB"/><path fill-rule="evenodd" clip-rule="evenodd" d="M78.487 22.425c0-.953.773-1.725 1.726-1.725h27.599a1.725 1.725 0 1 1 0 3.45h-27.6a1.725 1.725 0 0 1-1.725-1.725Zm37.088 3.45c.953 0 1.725.772 1.725 1.725v82.8a6.9 6.9 0 0 1-6.9 6.9H44.85a1.725 1.725 0 1 1 0-3.45h65.55a3.45 3.45 0 0 0 3.45-3.45V27.6c0-.953.772-1.725 1.725-1.725ZM22.425 65.55c.953 0 1.725.772 1.725 1.725V75.9a1.725 1.725 0 0 1-3.45 0v-8.625c0-.953.772-1.725 1.725-1.725Zm0 18.112c.953 0 1.725.773 1.725 1.725v.863a1.725 1.725 0 0 1-3.45 0v-.862c0-.953.772-1.726 1.725-1.726Z" fill="#000091"/><path fill-rule="evenodd" clip-rule="evenodd" d="M79.9 61.595c.953 0 1.725.772 1.725 1.725v49.983a1.725 1.725 0 1 1-3.45 0V63.32c0-.953.773-1.725 1.725-1.725Zm0-40.895c.953 0 1.725.772 1.725 1.725v14.662a1.725 1.725 0 1 1-3.45 0V22.425c0-.953.773-1.725 1.725-1.725Z" fill="#000091"/><path fill-rule="evenodd" clip-rule="evenodd" d="M78.175 83.768c0-.953.773-1.725 1.725-1.725h11.892a1.725 1.725 0 1 1 0 3.45H79.9a1.725 1.725 0 0 1-1.725-1.725Zm23.783 0c0-.953.773-1.725 1.725-1.725h9.91a1.725 1.725 0 1 1 0 3.45h-9.91a1.725 1.725 0 0 1-1.725-1.725Z" fill="#000091"/><path fill-rule="evenodd" clip-rule="evenodd" d="M101.958 93.296c-2.557-.472-6.616-2.686-8.496-9.96a1.725 1.725 0 0 0-3.34.863c2.645 10.236 9.45 12.845 13.343 12.643 1.157-.06 1.943-1.029 1.943-2.057V83.768a1.725 1.725 0 1 0-3.45 0v9.528Z" fill="#000091"/><path fill-rule="evenodd" clip-rule="evenodd" d="m54.138 74.625 8.401 8.471-29.864 29.619-8.401-8.472 3.01-2.986 4.201 4.236a1.725 1.725 0 0 0 2.45-2.43l-4.2-4.235 2.898-2.875 1.548 1.561a1.725 1.725 0 1 0 2.45-2.429l-1.549-1.561 2.899-2.875 4.2 4.235a1.725 1.725 0 1 0 2.45-2.429l-4.2-4.236 2.898-2.874 1.549 1.561a1.725 1.725 0 0 0 2.45-2.43l-1.55-1.56 2.9-2.876 4.2 4.236a1.725 1.725 0 1 0 2.45-2.43l-4.201-4.235 3.01-2.986Zm-2.43-2.45a3.45 3.45 0 0 1 4.88.02l8.401 8.472a3.45 3.45 0 0 1-.02 4.879l-29.864 29.618a3.45 3.45 0 0 1-4.88-.02l-8.4-8.471a3.45 3.45 0 0 1 .02-4.879l29.863-29.619Zm54.855-45.742 2.351-2.386c.44-.362 1.208-.776 2.036-.85.75-.066 1.671.128 2.627 1.235.451.522.589 1.275.423 2.163a4.47 4.47 0 0 1-.386 1.158 2.94 2.94 0 0 1-.223.378 1.078 1.078 0 0 1-.095.118l-.001.002-.054.046-2.363 2.42-4.315-4.284Zm-2.421 2.457-2.008 2.038 4.336 4.307 1.999-2.048-4.327-4.297Zm-.081 8.814-4.35-4.318-20.34 20.641 4.45 4.419 20.24-20.742ZM80.859 60.368l-3.128-3.107-1.125 4.456 4.253-1.35Zm35.33-38.19c-1.691-1.959-3.702-2.58-5.543-2.417-1.732.153-3.185.982-4.033 1.714l-.052.045-31.018 31.476a2.07 2.07 0 0 0-.532.947l-2.357 9.332c-.397 1.573 1.087 2.97 2.633 2.48l8.517-2.702a2.07 2.07 0 0 0 .856-.528l30.957-31.723c.446-.407.81-.96 1.082-1.503a7.913 7.913 0 0 0 .693-2.072c.28-1.502.168-3.46-1.203-5.05ZM22.77 20.7a2.07 2.07 0 0 0-2.07 2.07v33.35c0 1.82 2.18 2.754 3.498 1.499l35.017-33.35c1.353-1.289.441-3.569-1.428-3.569H22.77Zm1.38 32.2V24.15h30.187L24.15 52.9Zm5.52-25.3a2.07 2.07 0 0 0-2.07 2.07v10.897c0 1.844 2.23 2.768 3.534 1.464L42.03 31.134c1.304-1.304.38-3.534-1.464-3.534H29.67Zm1.38 9.636V31.05h6.185l-6.185 6.186Z" fill="#E1000F"/></svg>