<svg width="48" height="48" fill="none" xmlns="http://www.w3.org/2000/svg"><path d="M33.596 7.73A.6.6 0 0 0 33 7.2H10.2l-.07.004a.6.6 0 0 0-.53.596v32.4l.004.07a.6.6 0 0 0 .596.53h19.2l.07-.004A.6.6 0 0 0 30 40.2l-.004-.07a.6.6 0 0 0-.596-.53H10.8V8.4h21.6v11.4l.004.07a.6.6 0 0 0 1.196-.07v-12l-.004-.07Z" fill="#000091"/><path d="M24 11.4a.6.6 0 0 0-.6-.6h-6.6l-.07.004A.6.6 0 0 0 16.8 12h6.6l.07-.004A.6.6 0 0 0 24 11.4Zm5.4 3a.6.6 0 0 1 .07 1.196l-.07.004H16.8a.6.6 0 0 1-.07-1.196l.07-.004h12.6Zm-3 4.2a.6.6 0 0 0-.6-.6h-9l-.07.004a.6.6 0 0 0 .07 1.196h9l.07-.004a.6.6 0 0 0 .53-.596Zm3 3a.6.6 0 0 1 .07 1.196l-.07.004H16.8a.6.6 0 0 1-.07-1.196l.07-.004h12.6Zm6.596-9.07a.6.6 0 0 0-1.196.07v4.8l.004.07A.6.6 0 0 0 36 17.4v-4.8l-.004-.07ZM30.6 42a.6.6 0 0 1 .07 1.196l-.07.004H15a.6.6 0 0 1-.07-1.196L15 42h15.6Zm-4.2-16.2a.6.6 0 0 0-.6-.6h-9l-.07.004a.6.6 0 0 0 .07 1.196h9l.07-.004a.6.6 0 0 0 .53-.596Z" fill="#000091"/><path fill-rule="evenodd" clip-rule="evenodd" d="M15.318 10.518 13.5 12.336l-1.218-1.218.636-.636.582.582 1.182-1.182.636.636ZM13.5 15.936l1.818-1.818-.636-.636-1.182 1.182-.582-.582-.636.636 1.218 1.218Zm1.818 1.782L13.5 19.536l-1.218-1.218.636-.636.582.582 1.182-1.182.636.636ZM13.5 23.136l1.818-1.818-.636-.636-1.182 1.182-.582-.582-.636.636 1.218 1.218Zm0 3.6 1.818-1.818-.636-.636-1.182 1.182-.582-.582-.636.636 1.218 1.218Zm22.852-5.19a1.2 1.2 0 0 1 1.695.111l1.704 1.948a.6.6 0 1 1-.903.79l-1.704-1.947-8.995 7.904 2 2.25a.6.6 0 1 1-.898.797l-1.685-1.897-.284.947 2.36 2.623 1.597-.24 5.186-4.47-2.03-2.372a.6.6 0 0 1 .912-.78l2.026 2.369 2.475-2.133a.6.6 0 1 1 .784.909l-8.569 7.386a1.2 1.2 0 0 1-.606.278l-4.893.734a1.2 1.2 0 0 1-1.327-1.532l1.479-4.929a1.2 1.2 0 0 1 .357-.556l9.32-8.19Zm-10.006 14.02.532-1.771 1.341 1.49-1.873.281Z" fill="#E1000F"/></svg>