<svg width="48" height="48" fill="none" xmlns="http://www.w3.org/2000/svg"><path d="M33.596 7.73A.6.6 0 0 0 33 7.2H10.2l-.07.004a.6.6 0 0 0-.53.596v32.4l.004.07a.6.6 0 0 0 .596.53h19.2l.07-.004A.6.6 0 0 0 30 40.2l-.004-.07a.6.6 0 0 0-.596-.53H10.8V8.4h21.6v11.4l.004.07a.6.6 0 0 0 1.196-.07v-12l-.004-.07Z" fill="#000091"/><path d="M24 11.4a.6.6 0 0 0-.6-.6h-6.6l-.07.004A.6.6 0 0 0 16.8 12h6.6l.07-.004A.6.6 0 0 0 24 11.4Zm5.4 3a.6.6 0 0 1 .07 1.196l-.07.004H16.8a.6.6 0 0 1-.07-1.196l.07-.004h12.6Zm-3 4.2a.6.6 0 0 0-.6-.6h-9l-.07.004a.6.6 0 0 0 .07 1.196h9l.07-.004a.6.6 0 0 0 .53-.596Zm3 3a.6.6 0 0 1 .07 1.196l-.07.004H16.8a.6.6 0 0 1-.07-1.196l.07-.004h12.6Zm6.596-9.07a.6.6 0 0 0-1.196.07v4.8l.004.07A.6.6 0 0 0 36 17.4v-4.8l-.004-.07ZM30.6 42a.6.6 0 0 1 .07 1.196l-.07.004H15a.6.6 0 0 1-.07-1.196L15 42h15.6Zm-4.2-16.2a.6.6 0 0 0-.6-.6h-9l-.07.004a.6.6 0 0 0 .07 1.196h9l.07-.004a.6.6 0 0 0 .53-.596Z" fill="#000091"/><path d="M36.352 21.546a1.2 1.2 0 0 1 1.696.111l1.704 1.948a.6.6 0 0 1-.904.79l-1.704-1.948-8.995 7.905 1.999 2.25a.6.6 0 1 1-.896.796l-1.686-1.896-.284.947 2.36 2.623 1.598-.24 5.184-4.47-2.029-2.372a.6.6 0 0 1 .912-.78l2.027 2.37 2.474-2.135a.6.6 0 0 1 .783.91l-8.568 7.386a1.2 1.2 0 0 1-.605.279l-4.893.733a1.2 1.2 0 0 1-1.328-1.531l1.48-4.93a1.2 1.2 0 0 1 .356-.557l9.32-8.19Zm-10.006 14.02 1.873-.28-1.341-1.491-.532 1.771ZM15.318 24.918 13.5 26.736l-1.218-1.217.636-.637.582.582 1.182-1.182.636.636Zm0-3.6L13.5 23.137l-1.218-1.219.636-.636.582.581 1.182-1.181.636.636Zm0-3.6L13.5 19.536l-1.218-1.218.636-.636.582.582 1.182-1.182.636.636Zm0-3.6L13.5 15.937l-1.218-1.22.636-.635.582.582 1.182-1.183.636.637Zm0-3.6-1.818 1.82-1.218-1.219.636-.637.582.582 1.182-1.181.636.637Z" fill="#E1000F"/></svg>